<svg xmlns="http://www.w3.org/2000/svg" width="394.04" height="502.06" viewBox="0 0 394.04 502.06">
  <title>icon-location</title>
  <g id="bfe22ebc-3a15-4d70-bf8a-788bdcb49073" data-name="Capa 8">
    <g>
      <path d="M197,18A173.55,173.55,0,0,0,23.47,191.53c0,95.85,144.21,292.55,173.55,292.55s173.55-196.7,173.55-292.55A173.55,173.55,0,0,0,197,18Zm0,237.63a64.08,64.08,0,1,1,64.08-64.08A64.08,64.08,0,0,1,197,255.61Z" fill="#5fbaa7"/>
      <path d="M197,38A153.55,153.55,0,0,1,350.57,191.53c0,35.66-25.31,96.88-67.7,163.76-17.65,27.86-37.13,54.78-54.85,75.79-16.55,19.63-26.33,28-31,31.37-4.67-3.38-14.45-11.74-31-31.37-17.72-21-37.2-47.93-54.86-75.79-42.39-66.88-67.69-128.1-67.69-163.76A153.54,153.54,0,0,1,197,38m0,237.63a84.08,84.08,0,1,0-84.08-84.08A84.18,84.18,0,0,0,197,275.61M197,18A173.55,173.55,0,0,0,23.47,191.53c0,95.85,144.21,292.55,173.55,292.55s173.55-196.7,173.55-292.55A173.55,173.55,0,0,0,197,18Zm0,237.63a64.08,64.08,0,1,1,64.08-64.08A64.08,64.08,0,0,1,197,255.61Z" fill="#fff"/>
    </g>
  </g>
</svg>
