<svg xmlns="http://www.w3.org/2000/svg" width="394.04" height="502.06" viewBox="0 0 394.04 502.06">
  <title>icon-location</title>
  <g id="f580e708-071a-49cb-b389-4625900fc33b" data-name="Capa 6">
    <g>
      <g>
        <path d="M197,18A173.55,173.55,0,0,0,23.47,191.53c0,95.85,144.21,292.55,173.55,292.55s173.55-196.7,173.55-292.55A173.55,173.55,0,0,0,197,18Z" fill="#5fbaa7"/>
        <g>
          <g>
            <path d="M155.13,283.32c-6.66,9.94-13.29,19.9-20,29.78-1,1.41-2.49,3.4-3.81,3.44-10,.29-20.12.16-31.17.16,1.56-2.06,2.37-3.25,3.29-4.34,10.09-11.94,20.1-23.94,30.39-35.7a10.46,10.46,0,0,1,6.62-3.16c6.61-.42,13.27-.15,21.32-.15C159.09,277.33,157.13,280.33,155.13,283.32Z" fill="#fff"/>
            <path d="M136.37,266.46c-12.77,0-21-8.85-21-21.59q0-35.68,0-71.36,0-35.43,0-70.85c0-13.5,8.68-22.21,22-22.28,6.82,0,13.65.19,20.45-.14a8.42,8.42,0,0,0,5.54-2.73c4.38-5.38,9.63-8.47,16.69-8.41,11.65.09,23.29.05,34.93,0,6.87,0,12,3.08,16.25,8.29a8.55,8.55,0,0,0,5.53,2.84c7.14.33,14.3.07,21.46.15,12.13.13,20.84,8.89,20.88,21.34q.13,57.63,0,115.27c0,9.48.06,19,0,28.44-.08,12.22-8.4,21-20.53,21Q197.5,266.67,136.37,266.46Z" fill="#fff"/>
            <path d="M263.39,316.59a4.19,4.19,0,0,1-2.67-1.89q-13.29-19.6-26.41-39.31c-.24-.35-.16-.91-.32-2,7.78,0,15.35-.07,22.93.07a4.63,4.63,0,0,1,2.84,1.72q16.83,19.73,33.54,39.56a8,8,0,0,1,.63,1.91C283.53,316.67,273.46,316.72,263.39,316.59Z" fill="#fff"/>
          </g>
          <g>
            <path d="M138.42,227a15.7,15.7,0,0,1,16-15.62A16,16,0,0,1,170,227.57,16.19,16.19,0,0,1,154.09,243,15.81,15.81,0,0,1,138.42,227Z" fill="#5fbaa7"/>
            <path d="M256.22,227.06a15.63,15.63,0,1,1-15.84-15.67A15.73,15.73,0,0,1,256.22,227.06Z" fill="#5fbaa7"/>
            <path d="M197.34,97.9c14.46,0,28.92,0,43.38,0,14.06.06,21.63,7.57,21.69,21.52,0,13.13-.23,26.26.14,39.38.15,5.3-2,7.75-6.78,8.53-7.85,1.3-15.68,3-23.59,3.58-28.39,2.07-56.78,2.21-85.07-1.6-16-2.16-16-2.21-16.09-18.28q-.08-15.45,0-30.91c.09-13.91,7.94-22,21.92-22.15,14.79-.19,29.59,0,44.38,0Z" fill="#5fbaa7"/>
          </g>
        </g>
      </g>
      <path d="M197,38A153.55,153.55,0,0,1,350.57,191.53c0,35.66-25.31,96.88-67.7,163.76-17.65,27.86-37.13,54.78-54.85,75.79-16.55,19.63-26.33,28-31,31.37-4.67-3.38-14.45-11.74-31-31.37-17.72-21-37.2-47.93-54.86-75.79-42.39-66.88-67.69-128.1-67.69-163.76A153.54,153.54,0,0,1,197,38m0-20A173.55,173.55,0,0,0,23.47,191.53c0,95.85,144.21,292.55,173.55,292.55s173.55-196.7,173.55-292.55A173.55,173.55,0,0,0,197,18Z" fill="#fff"/>
    </g>
  </g>
</svg>
