<?xml version="1.0" encoding="utf-8"?>
<!-- Generator: Adobe Illustrator 24.0.1, SVG Export Plug-In . SVG Version: 6.00 Build 0)  -->
<svg version="1.1" id="Capa_1" xmlns="http://www.w3.org/2000/svg" xmlns:xlink="http://www.w3.org/1999/xlink" x="0px" y="0px"
	 viewBox="0 0 291.9 145.3" style="enable-background:new 0 0 291.9 145.3;" xml:space="preserve">
<style type="text/css">
	.st0{enable-background:new    ;}
	.st1{fill:#F4E4C2;}
	.st2{fill:#505050;}
	.st3{fill:none;stroke:#505050;stroke-miterlimit:10;}
	.st4{fill:#FEFEFE;}
</style>
<g id="texto">
	<g class="st0">
		<path class="st1" d="M227.7,100.8V87.2h8.2v2.2h-5.5v3.1h4.8v2.2h-4.8v3.8h6v2.2H227.7z"/>
		<path class="st1" d="M242,87c0.8,0,1.5,0.1,2.1,0.3s1.2,0.4,1.6,0.8c0.5,0.4,0.8,0.8,1,1.4s0.4,1.2,0.4,2c0,0.8-0.2,1.5-0.5,2.2
			c-0.3,0.6-0.9,1.1-1.6,1.5c0.2,0.4,0.5,0.8,0.8,1.3s0.5,0.9,0.8,1.5c0.3,0.5,0.5,1,0.8,1.5c0.2,0.5,0.5,1,0.6,1.4h-2.8
			c-0.3-0.9-0.7-1.7-1.2-2.5s-0.9-1.6-1.4-2.5h-1.4v5h-2.7V87.4c0.3-0.1,0.6-0.1,0.9-0.2c0.3-0.1,0.6-0.1,1-0.1c0.3,0,0.6,0,0.9-0.1
			S241.8,87,242,87z M244.4,91.5c0-0.7-0.2-1.2-0.7-1.6c-0.4-0.3-1-0.5-1.7-0.5c-0.1,0-0.2,0-0.4,0c-0.1,0-0.3,0-0.4,0.1v4.1h0.6
			c0.9,0,1.6-0.2,2-0.5C244.2,92.6,244.4,92.1,244.4,91.5z"/>
		<path class="st1" d="M253,87c0.8,0,1.5,0.1,2.1,0.3s1.2,0.4,1.6,0.8c0.5,0.4,0.8,0.8,1,1.4s0.4,1.2,0.4,2c0,0.8-0.2,1.5-0.5,2.2
			c-0.3,0.6-0.9,1.1-1.6,1.5c0.2,0.4,0.5,0.8,0.8,1.3s0.5,0.9,0.8,1.5c0.3,0.5,0.5,1,0.8,1.5c0.2,0.5,0.5,1,0.6,1.4h-2.8
			c-0.3-0.9-0.7-1.7-1.2-2.5s-0.9-1.6-1.4-2.5h-1.4v5h-2.7V87.4c0.3-0.1,0.6-0.1,0.9-0.2c0.3-0.1,0.6-0.1,1-0.1c0.3,0,0.6,0,0.9-0.1
			S252.8,87,253,87z M255.4,91.5c0-0.7-0.2-1.2-0.7-1.6c-0.4-0.3-1-0.5-1.7-0.5c-0.1,0-0.2,0-0.4,0c-0.1,0-0.3,0-0.4,0.1v4.1h0.6
			c0.9,0,1.6-0.2,2-0.5C255.2,92.6,255.4,92.1,255.4,91.5z"/>
		<path class="st1" d="M259.9,94c0-2.3,0.4-4.1,1.3-5.3c0.9-1.2,2.1-1.8,3.6-1.8c1.6,0,2.8,0.6,3.7,1.8s1.3,3,1.3,5.3
			c0,2.3-0.4,4.1-1.3,5.3c-0.8,1.2-2.1,1.8-3.6,1.8c-1.6,0-2.8-0.6-3.7-1.8S259.9,96.3,259.9,94z M262.6,94c0,0.7,0,1.3,0.1,1.9
			c0.1,0.6,0.2,1.1,0.3,1.5c0.2,0.4,0.4,0.8,0.6,1c0.3,0.2,0.7,0.4,1.1,0.4c0.5,0,0.8-0.1,1.1-0.4c0.3-0.2,0.5-0.6,0.7-1
			s0.3-0.9,0.3-1.5c0.1-0.6,0.1-1.2,0.1-1.8s0-1.3-0.1-1.9c-0.1-0.6-0.2-1.1-0.3-1.5c-0.2-0.4-0.4-0.8-0.6-1
			c-0.3-0.2-0.7-0.4-1.1-0.4c-0.5,0-0.8,0.1-1.1,0.4c-0.3,0.2-0.5,0.6-0.6,1s-0.3,0.9-0.3,1.5C262.7,92.7,262.6,93.3,262.6,94z"/>
		<path class="st1" d="M275,87c0.8,0,1.5,0.1,2.1,0.3s1.2,0.4,1.6,0.8c0.5,0.4,0.8,0.8,1,1.4s0.4,1.2,0.4,2c0,0.8-0.2,1.5-0.5,2.2
			c-0.3,0.6-0.9,1.1-1.6,1.5c0.2,0.4,0.5,0.8,0.8,1.3s0.5,0.9,0.8,1.5c0.3,0.5,0.5,1,0.8,1.5c0.2,0.5,0.5,1,0.6,1.4h-2.8
			c-0.3-0.9-0.7-1.7-1.2-2.5s-0.9-1.6-1.4-2.5h-1.4v5h-2.7V87.4c0.3-0.1,0.6-0.1,0.9-0.2c0.3-0.1,0.6-0.1,1-0.1c0.3,0,0.6,0,0.9-0.1
			S274.8,87,275,87z M277.4,91.5c0-0.7-0.2-1.2-0.7-1.6c-0.4-0.3-1-0.5-1.7-0.5c-0.1,0-0.2,0-0.4,0c-0.1,0-0.3,0-0.4,0.1v4.1h0.6
			c0.9,0,1.6-0.2,2-0.5C277.2,92.6,277.4,92.1,277.4,91.5z"/>
	</g>
	<g class="st0">
		<path class="st1" d="M193.6,24.4v33.5h6V67h-6v13.1h-11.1V67h-23.2v-8.1c1.1-2.3,2.6-5,4.4-8c1.8-3,3.8-6,5.9-9.1
			c2.2-3.1,4.4-6.2,6.8-9.2c2.4-3,4.8-5.7,7.2-8.1H193.6z M182.6,38.3c-1.1,1.4-2.2,2.8-3.3,4.4c-1.1,1.6-2.3,3.2-3.4,4.9
			c-1.1,1.7-2.2,3.4-3.2,5.2c-1,1.7-1.9,3.5-2.7,5.1h12.6V38.3z"/>
		<path class="st1" d="M243.8,52.2c0,9.8-1.7,17.2-5,22c-3.3,4.8-8.1,7.2-14.4,7.2s-11.1-2.4-14.4-7.2c-3.3-4.8-5-12.1-5-22
			c0-9.7,1.7-17,5-21.8c3.4-4.8,8.1-7.2,14.3-7.2c6.3,0,11.1,2.4,14.4,7.2C242.1,35.1,243.8,42.4,243.8,52.2z M233.8,52.2
			c0-6.4-0.8-11.2-2.4-14.5c-1.6-3.3-3.9-5-7-5c-3,0-5.3,1.7-6.9,5s-2.4,8.2-2.4,14.5c0,6.4,0.8,11.3,2.4,14.6s3.9,5,6.9,5
			c3.1,0,5.4-1.7,7-5C233,63.5,233.8,58.6,233.8,52.2z M229.5,51.3c0,1.6-0.5,3-1.4,4.2c-0.9,1.2-2.1,1.8-3.6,1.8
			c-1.6,0-2.8-0.6-3.7-1.8c-0.9-1.2-1.4-2.6-1.4-4.2s0.5-3,1.4-4.2c0.9-1.2,2.1-1.8,3.7-1.8c1.4,0,2.6,0.6,3.6,1.8
			C229,48.2,229.5,49.6,229.5,51.3z"/>
		<path class="st1" d="M283.6,24.4v33.5h6V67h-6v13.1h-11.1V67h-23.2v-8.1c1.1-2.3,2.6-5,4.4-8c1.8-3,3.8-6,5.9-9.1
			c2.2-3.1,4.4-6.2,6.8-9.2c2.4-3,4.8-5.7,7.2-8.1H283.6z M272.6,38.3c-1.1,1.4-2.2,2.8-3.3,4.4c-1.1,1.6-2.3,3.2-3.4,4.9
			c-1.1,1.7-2.2,3.4-3.2,5.2c-1,1.7-1.9,3.5-2.7,5.1h12.6V38.3z"/>
	</g>
	<g class="st0">
		<path class="st2" d="M180.6,75.8c0.5,0,1,0.1,1.4,0.2c0.4,0.1,0.7,0.3,1,0.6s0.4,0.5,0.6,0.8c0.1,0.3,0.2,0.7,0.2,1.1
			c0,0.9-0.3,1.6-0.8,2.1s-1.3,0.7-2.4,0.7h-1v3.2h-1.1v-8.5c0.2,0,0.4-0.1,0.6-0.1c0.2,0,0.4-0.1,0.6-0.1c0.2,0,0.4,0,0.6,0
			C180.2,75.9,180.4,75.8,180.6,75.8z M180.6,76.8c-0.2,0-0.5,0-0.7,0c-0.2,0-0.4,0-0.5,0v3.5h1c0.7,0,1.2-0.1,1.6-0.4
			s0.5-0.7,0.5-1.4C182.5,77.4,181.9,76.8,180.6,76.8z"/>
		<path class="st2" d="M189.9,84.6l-0.5-2.3h-3.3l-0.5,2.3h-1.2c0.2-0.6,0.3-1.3,0.5-2c0.2-0.7,0.4-1.5,0.6-2.2s0.5-1.5,0.7-2.3
			s0.5-1.5,0.8-2.2h1.4c0.3,0.7,0.5,1.4,0.8,2.2s0.5,1.5,0.7,2.3c0.2,0.8,0.4,1.5,0.6,2.2c0.2,0.7,0.4,1.4,0.5,2H189.9z M187.8,76.9
			c-0.2,0.6-0.4,1.3-0.7,2c-0.3,0.8-0.5,1.6-0.7,2.4h2.8c-0.2-0.8-0.4-1.6-0.7-2.4C188.2,78.2,188,77.5,187.8,76.9z"/>
		<path class="st2" d="M196.5,80.3h1.1v4.1c-0.2,0.1-0.5,0.1-0.9,0.2c-0.4,0.1-0.9,0.1-1.4,0.1c-0.5,0-1-0.1-1.4-0.3
			c-0.4-0.2-0.8-0.5-1.1-0.9s-0.5-0.9-0.7-1.4s-0.3-1.2-0.3-1.9c0-0.7,0.1-1.4,0.3-1.9c0.2-0.6,0.4-1,0.8-1.4s0.7-0.7,1.1-0.9
			c0.4-0.2,0.9-0.3,1.4-0.3c0.3,0,0.6,0,0.8,0.1c0.2,0,0.5,0.1,0.6,0.2c0.2,0.1,0.3,0.1,0.4,0.2c0.1,0.1,0.2,0.1,0.3,0.2l-0.4,1
			c-0.2-0.2-0.5-0.3-0.8-0.4c-0.3-0.1-0.6-0.2-0.9-0.2c-0.4,0-0.7,0.1-1,0.3c-0.3,0.2-0.6,0.4-0.8,0.7c-0.2,0.3-0.4,0.7-0.5,1.1
			c-0.1,0.4-0.2,0.9-0.2,1.4c0,0.5,0.1,1,0.2,1.4c0.1,0.4,0.3,0.8,0.5,1.1c0.2,0.3,0.5,0.5,0.8,0.7c0.3,0.2,0.7,0.3,1,0.3
			c0.3,0,0.5,0,0.6-0.1s0.3-0.1,0.3-0.1V80.3z"/>
		<path class="st2" d="M199.5,84.6v-8.7h4.9v1h-3.7v2.7h3.2v1h-3.2v3.1h4v1H199.5z"/>
		<path class="st2" d="M217.3,84.6c-0.3-0.8-0.6-1.5-0.9-2.1c-0.3-0.6-0.5-1.2-0.8-1.8s-0.5-1.1-0.8-1.6c-0.3-0.5-0.5-1-0.8-1.5v6.9
			h-1v-8.7h1.2c0.4,0.7,0.7,1.3,1,1.8s0.5,1,0.8,1.5c0.2,0.5,0.5,1,0.7,1.5c0.2,0.5,0.5,1.1,0.8,1.8v-6.7h1v8.7H217.3z"/>
		<path class="st2" d="M219.7,80.3c0-0.8,0.1-1.4,0.2-2c0.2-0.6,0.4-1,0.6-1.4c0.3-0.4,0.6-0.6,1-0.8c0.4-0.2,0.8-0.3,1.3-0.3
			c0.5,0,0.9,0.1,1.3,0.3c0.4,0.2,0.7,0.5,1,0.8c0.3,0.4,0.5,0.8,0.6,1.4c0.2,0.6,0.2,1.2,0.2,2s-0.1,1.4-0.2,2
			c-0.2,0.6-0.4,1-0.6,1.4c-0.3,0.4-0.6,0.6-1,0.8s-0.8,0.3-1.3,0.3c-0.5,0-0.9-0.1-1.3-0.3s-0.7-0.5-1-0.8
			c-0.3-0.4-0.5-0.8-0.6-1.4C219.8,81.7,219.7,81,219.7,80.3z M220.9,80.3c0,1.1,0.2,2,0.5,2.6c0.3,0.6,0.8,0.9,1.4,0.9
			c0.7,0,1.1-0.3,1.5-0.9s0.5-1.5,0.5-2.6s-0.2-2-0.5-2.6s-0.8-0.9-1.5-0.9c-0.6,0-1.1,0.3-1.4,0.9C221,78.2,220.9,79.1,220.9,80.3z
			"/>
		<path class="st2" d="M232.7,75.9v1h-2.4v7.7h-1.1v-7.7h-2.4v-1H232.7z"/>
		<path class="st2" d="M241.5,84.6v-8.7h4.9v1h-3.8v2.7h3.3v1h-3.3v4H241.5z"/>
		<path class="st2" d="M247.7,80.3c0-0.8,0.1-1.4,0.2-2c0.2-0.6,0.4-1,0.6-1.4c0.3-0.4,0.6-0.6,1-0.8c0.4-0.2,0.8-0.3,1.3-0.3
			c0.5,0,0.9,0.1,1.3,0.3c0.4,0.2,0.7,0.5,1,0.8c0.3,0.4,0.5,0.8,0.6,1.4c0.2,0.6,0.2,1.2,0.2,2s-0.1,1.4-0.2,2
			c-0.2,0.6-0.4,1-0.6,1.4c-0.3,0.4-0.6,0.6-1,0.8s-0.8,0.3-1.3,0.3c-0.5,0-0.9-0.1-1.3-0.3s-0.7-0.5-1-0.8
			c-0.3-0.4-0.5-0.8-0.6-1.4C247.8,81.7,247.7,81,247.7,80.3z M248.9,80.3c0,1.1,0.2,2,0.5,2.6c0.3,0.6,0.8,0.9,1.4,0.9
			c0.7,0,1.1-0.3,1.5-0.9s0.5-1.5,0.5-2.6s-0.2-2-0.5-2.6s-0.8-0.9-1.5-0.9c-0.6,0-1.1,0.3-1.4,0.9C249,78.2,248.9,79.1,248.9,80.3z
			"/>
		<path class="st2" d="M257.8,84.8c-0.5,0-1-0.1-1.3-0.2s-0.7-0.4-0.9-0.6s-0.4-0.6-0.5-1c-0.1-0.4-0.2-0.8-0.2-1.3v-5.7h1.1v5.6
			c0,0.4,0,0.8,0.1,1.1s0.2,0.5,0.3,0.7c0.1,0.2,0.3,0.3,0.5,0.4c0.2,0.1,0.4,0.1,0.7,0.1c0.3,0,0.5,0,0.7-0.1
			c0.2-0.1,0.4-0.2,0.5-0.4c0.1-0.2,0.3-0.4,0.3-0.7c0.1-0.3,0.1-0.7,0.1-1.1v-5.6h1.1v5.7c0,0.5-0.1,0.9-0.2,1.3
			c-0.1,0.4-0.3,0.7-0.5,1s-0.5,0.5-0.9,0.6S258.3,84.8,257.8,84.8z"/>
		<path class="st2" d="M266.3,84.6c-0.3-0.8-0.6-1.5-0.9-2.1c-0.3-0.6-0.5-1.2-0.8-1.8s-0.5-1.1-0.8-1.6c-0.3-0.5-0.5-1-0.8-1.5v6.9
			h-1v-8.7h1.2c0.4,0.7,0.7,1.3,1,1.8s0.5,1,0.8,1.5c0.2,0.5,0.5,1,0.7,1.5c0.2,0.5,0.5,1.1,0.8,1.8v-6.7h1v8.7H266.3z"/>
		<path class="st2" d="M274.7,80.3c0,0.8-0.1,1.5-0.3,2c-0.2,0.6-0.5,1-0.8,1.4c-0.3,0.3-0.8,0.6-1.2,0.8c-0.5,0.2-1,0.2-1.6,0.2
			c-0.6,0-1.2-0.1-1.8-0.2v-8.4c0.6-0.1,1.2-0.2,1.8-0.2c0.6,0,1.1,0.1,1.6,0.2c0.5,0.2,0.9,0.4,1.2,0.8c0.3,0.4,0.6,0.8,0.8,1.4
			C274.6,78.8,274.7,79.5,274.7,80.3z M270.2,83.6c0.2,0,0.5,0,0.7,0c0.4,0,0.8-0.1,1.1-0.2s0.6-0.3,0.8-0.6s0.4-0.6,0.5-1.1
			c0.1-0.4,0.2-1,0.2-1.6c0-1.2-0.2-2-0.7-2.6c-0.5-0.6-1.1-0.8-2-0.8c-0.1,0-0.2,0-0.4,0c-0.1,0-0.2,0-0.3,0V83.6z"/>
	</g>
	<g class="st0">
		<path class="st3" d="M180.8,60.3c0-2.2,0.2-4.1,0.6-5.8c0.4-1.6,1-3,1.8-4s1.7-1.8,2.8-2.4c1.1-0.5,2.3-0.8,3.6-0.8
			c1.3,0,2.5,0.3,3.6,0.8c1.1,0.5,2,1.3,2.8,2.4s1.4,2.4,1.8,4c0.4,1.6,0.7,3.5,0.7,5.8c0,2.2-0.2,4.1-0.7,5.8s-1,3-1.8,4
			s-1.7,1.9-2.8,2.4c-1.1,0.5-2.3,0.8-3.6,0.8c-1.3,0-2.5-0.3-3.6-0.8c-1.1-0.5-2-1.3-2.8-2.4s-1.4-2.4-1.8-4
			C181,64.4,180.8,62.5,180.8,60.3z M184.1,60.3c0,3.3,0.4,5.7,1.3,7.5s2.2,2.6,4.1,2.6c1.9,0,3.3-0.9,4.2-2.6
			c0.9-1.7,1.4-4.2,1.4-7.5c0-3.3-0.5-5.7-1.4-7.5c-0.9-1.7-2.3-2.6-4.2-2.6c-1.8,0-3.2,0.9-4.1,2.6S184.1,57.1,184.1,60.3z"/>
		<path class="st3" d="M200.8,60.3c0-2.2,0.2-4.1,0.6-5.8c0.4-1.6,1-3,1.8-4s1.7-1.8,2.8-2.4c1.1-0.5,2.3-0.8,3.6-0.8
			c1.3,0,2.5,0.3,3.6,0.8c1.1,0.5,2,1.3,2.8,2.4s1.4,2.4,1.8,4c0.4,1.6,0.7,3.5,0.7,5.8c0,2.2-0.2,4.1-0.7,5.8s-1,3-1.8,4
			s-1.7,1.9-2.8,2.4c-1.1,0.5-2.3,0.8-3.6,0.8c-1.3,0-2.5-0.3-3.6-0.8c-1.1-0.5-2-1.3-2.8-2.4s-1.4-2.4-1.8-4
			C201,64.4,200.8,62.5,200.8,60.3z M204.1,60.3c0,3.3,0.4,5.7,1.3,7.5s2.2,2.6,4.1,2.6c1.9,0,3.3-0.9,4.2-2.6
			c0.9-1.7,1.4-4.2,1.4-7.5c0-3.3-0.5-5.7-1.4-7.5c-0.9-1.7-2.3-2.6-4.2-2.6c-1.8,0-3.2,0.9-4.1,2.6S204.1,57.1,204.1,60.3z"/>
		<path class="st3" d="M229,47.7c1.5,0,2.8,0.2,3.9,0.6c1.1,0.4,2,0.9,2.8,1.6c0.7,0.7,1.3,1.5,1.6,2.4c0.4,0.9,0.5,2,0.5,3.1
			c0,2.6-0.8,4.6-2.3,6c-1.5,1.4-3.8,2.1-6.8,2.1h-2.9v9.2h-3.3V48.3c0.5-0.1,1-0.2,1.6-0.3c0.6-0.1,1.1-0.1,1.7-0.2
			s1.1-0.1,1.7-0.1C228.1,47.7,228.6,47.7,229,47.7z M229.3,50.6c-0.7,0-1.4,0-2,0s-1.1,0-1.4,0.1v10h2.7c2,0,3.5-0.4,4.5-1.2
			c1-0.8,1.5-2.1,1.5-4C234.5,52.2,232.7,50.6,229.3,50.6z"/>
		<path class="st3" d="M249,70.4c1.7,0,3-0.3,3.8-1c0.9-0.6,1.3-1.6,1.3-2.9c0-0.8-0.2-1.4-0.5-2c-0.3-0.5-0.7-1-1.3-1.4
			c-0.5-0.4-1.1-0.8-1.8-1.1c-0.7-0.3-1.3-0.6-2-0.9c-0.8-0.3-1.6-0.7-2.3-1.1c-0.7-0.4-1.4-0.9-2-1.4c-0.6-0.5-1-1.2-1.4-1.9
			c-0.3-0.7-0.5-1.6-0.5-2.6c0-2.2,0.7-3.8,2-5.1c1.4-1.2,3.3-1.8,5.7-1.8c0.7,0,1.3,0,2,0.1c0.7,0.1,1.3,0.2,1.8,0.3
			c0.6,0.1,1.1,0.3,1.5,0.5c0.4,0.2,0.8,0.4,1.1,0.6l-1,2.8c-0.5-0.3-1.3-0.6-2.2-1s-2-0.5-3.1-0.5c-1.2,0-2.2,0.3-3.1,0.9
			s-1.3,1.5-1.3,2.7c0,0.7,0.1,1.3,0.4,1.8c0.3,0.5,0.6,0.9,1,1.3c0.4,0.4,1,0.7,1.5,1c0.6,0.3,1.2,0.6,1.9,0.9
			c1,0.4,1.9,0.9,2.8,1.3c0.8,0.4,1.6,0.9,2.2,1.5c0.6,0.6,1.1,1.3,1.4,2.1c0.3,0.8,0.5,1.8,0.5,2.9c0,2.2-0.7,3.8-2.2,5
			c-1.5,1.2-3.5,1.7-6.3,1.7c-0.9,0-1.7-0.1-2.5-0.2s-1.5-0.3-2.1-0.5c-0.6-0.2-1.1-0.4-1.6-0.6c-0.5-0.2-0.8-0.4-1-0.5l1-2.7
			c0.5,0.3,1.3,0.6,2.4,1C246.2,70.2,247.5,70.4,249,70.4z"/>
		<path class="st3" d="M269.5,73.2c-0.7,0-1.3-0.2-1.9-0.7c-0.5-0.5-0.8-1.2-0.8-2c0-0.8,0.3-1.5,0.8-2c0.5-0.5,1.2-0.7,1.9-0.7
			c0.7,0,1.4,0.2,1.9,0.7c0.5,0.5,0.8,1.2,0.8,2c0,0.8-0.3,1.5-0.8,2C270.9,72.9,270.3,73.2,269.5,73.2z M271.3,54.7
			c0,1,0,1.9,0,2.7c0,0.8-0.1,1.6-0.1,2.4c-0.1,0.7-0.1,1.5-0.2,2.2c-0.1,0.7-0.2,1.5-0.2,2.3h-2.3c-0.1-0.8-0.2-1.6-0.2-2.3
			c-0.1-0.7-0.2-1.5-0.2-2.2c-0.1-0.7-0.1-1.5-0.1-2.4c0-0.8,0-1.7,0-2.7V48h3.6V54.7z"/>
	</g>
</g>
<g id="Capa_2_1_">
	<g>
		<path class="st2" d="M127.7,41.8c0,0.6-0.6,1-1.2,0.7c-3.1-1.2-6.2-2.1-9.5-1.6c-4.1,0.6-7.2,2.8-9.7,5.9
			c-1.1,1.4-1.9,2.9-2.7,4.4c-0.2,0.5-0.5,1-1.1,0.7c-0.7-0.3-0.6-1-0.3-1.6c1-2.1,2.3-4.1,3.9-5.9c4.3-4.7,9.7-6.2,15.9-4.9
			c1.4,0.3,2.8,0.9,4.1,1.4C127.4,41.2,127.6,41.5,127.7,41.8z"/>
		<path class="st2" d="M111.6,26.3c1.3,0.5,2.5,1,3.8,1.5c0.6,0.2,1.2,0.5,1.5-0.6c0.3-1.2,0.9-2.3,1.3-3.4c0.2-0.5,0.6-1,1.2-0.7
			c0.5,0.2,0.6,0.7,0.3,1.3c-0.5,1.1-0.9,2.3-1.4,3.4c-0.3,0.6-0.3,0.9,0.4,1.1c1.2,0.4,2.4,0.9,3.5,1.3c0.6,0.2,1.2,0.5,0.9,1.3
			c-0.2,0.7-0.7,0.6-1.4,0.3c-1.3-0.5-2.6-0.9-3.9-1.5c-0.4-0.2-0.7,0-0.8,0.4c-0.4,1.1-0.9,2.2-1.3,3.3c-0.2,0.5-0.4,1.4-1.3,1.1
			c-0.8-0.3-0.5-1-0.3-1.6c0.4-1,0.8-2.1,1.2-3.1c0.3-0.6,0.1-0.9-0.5-1.1c-1.3-0.4-2.5-0.9-3.8-1.4c-0.5-0.2-0.8-0.5-0.7-1.1
			C110.7,26.4,111.1,26.2,111.6,26.3z"/>
		<path class="st2" d="M96.5,41.9c0.4-1.1,0.7-2.4,1.2-3.7c0.4-0.8,0-0.9-0.5-1c-1.3-0.4-2.6-0.8-3.8-1.2c-0.5-0.2-0.9-0.4-0.8-1
			s0.6-0.7,1.1-0.5c1.3,0.3,2.5,0.7,3.8,1.1c0.8,0.3,1.1,0.2,1.3-0.7c0.3-1.2,0.8-2.4,1.2-3.6c0.2-0.6,0.5-0.8,1.1-0.6
			c0.5,0.2,0.6,0.6,0.4,1.1c-0.4,1.2-0.8,2.4-1.2,3.6c-0.3,0.8-0.1,1.1,0.7,1.2c1.2,0.2,2.2,0.7,3.3,0.9c0.6,0.1,1.4,0.3,1.2,1.2
			c-0.3,0.9-1,0.7-1.7,0.5c-1.2-0.4-2.4-0.7-3.6-1.1c-0.5-0.2-0.7,0-0.8,0.5c-0.4,1.3-0.9,2.6-1.3,3.8c-0.2,0.5-0.5,0.7-1,0.6
			C96.6,42.8,96.5,42.5,96.5,41.9z"/>
	</g>
	<g>
		<path class="st2" d="M49.5,30.5c0,0.5,0,0.8-0.4,0.9c-0.5,0.1-0.9,0.1-1.3-0.4c-1.3-1.7-2.7-3.4-4.1-5c-0.9-1.1-1.8-2.2-2.6-3.3
			c-0.4-0.5-0.8-1.1-0.1-1.7s1.1,0.1,1.5,0.5c2.2,2.7,4.4,5.5,6.6,8.3C49.4,30.1,49.6,30.3,49.5,30.5z"/>
		<path class="st2" d="M37.3,40.8c-1-0.4-1.9-0.7-2.9-1.1c-2-0.8-3.9-1.7-5.9-2.5c-0.6-0.2-1.2-0.5-0.9-1.2s1-0.4,1.4-0.3
			c1.9,0.8,3.8,1.6,5.7,2.4c0.9,0.4,1.9,0.8,2.8,1.2c0.4,0.2,0.6,0.5,0.5,0.9C38.1,40.6,37.8,40.8,37.3,40.8z"/>
		<path class="st2" d="M62.5,24.5c0,0.3,0,0.6,0,1c0.1,0.7-0.2,1.2-0.9,1.3c-0.7,0.1-1-0.5-1.1-1.1c-0.3-1.2-0.1-2.5-0.3-3.7
			c-0.3-2.2-0.4-4.4-0.6-6.5c-0.1-0.7,0.2-1.2,0.9-1.3c0.8-0.1,1.2,0.5,1.2,1.2C61.8,18.4,62.3,21.5,62.5,24.5z"/>
	</g>
	<g>
		<g>
			<path class="st4" d="M52.4,50.4c2.2,0,5.9,0.1,9.6,0.9c0.8,0.2,1.2,0.5,1.7,1.1c3,4.6,6,9.2,9,13.8c5.5,8.3,10.9,16.6,16.4,24.9
				c4.8,7.4,9.6,14.7,14.4,22.1c0.2,0.3,0.7,0.7,0.4,1.1c-0.3,0.5-0.8,0.2-1.2,0.2c-3.9-0.2-7.8-0.2-11.6,0.3
				c-7,1-13.9,2.7-20.5,5.3c-6,2.3-11.9,5.1-17.4,8.5c-0.7,0.4-0.9,0.1-1.2-0.3c-2.7-4.2-5.4-8.3-8.2-12.5
				c-4.2-6.4-8.4-12.9-12.7-19.3c-3.4-5.2-6.9-10.5-10.3-15.7c-3.2-5-6.4-9.9-9.7-14.8c-0.4-0.6-0.4-0.9,0.1-1.3
				c4-3.3,8.3-6.1,13-8.3c4.1-1.9,8.4-3.4,12.9-4.4C41.6,50.8,46.2,50.4,52.4,50.4z"/>
			<path class="st4" d="M102.1,77.6c0.5-2.8,0.9-5.4,1.5-7.9c0.1-0.7,0.1-1.2-0.6-1.6c-1-0.6-1.8-1.4-2.8-1.9
				c-0.8-0.4-1.1-1.1-1.4-1.8c-1.7-4.6-3.4-9.3-5.1-13.9c-0.3-0.8-0.9-0.8-1.5-0.7c-0.8,0.2-1.6,0.3-2.5,0.5
				c-0.7,0.2-0.9-0.1-0.6-0.7c0.6-1.5,1.2-3.1,1.8-4.7c0.4-1.1,0.1-1.5-1.1-1.5c-3.1,0-6.2-0.1-9.2-0.1c-1,0-1.3-0.2-1.1-1.3
				c0.3-1.6,0.4-3.2,0.5-4.9c0-0.3,0.1-0.8-0.3-1s-0.8-0.1-1.2,0.1c-2.2,1.3-2.2,1.3-2.9-1.1c-0.5-1.5-1-3-1.5-4.5
				c-0.3-0.7-0.6-1.4-1.7-0.8c-1.3,0.7-1.4,0.6-1.8-0.9c-0.7-2.2-1.4-4.4-2.1-6.6c-0.3-0.7-0.1-1.1,0.7-1.6
				c4.1-2.3,8.2-4.6,12.4-6.7c3.7-1.9,7.5-3.7,11.3-5.4c3.4-1.5,6.9-2.8,10.4-4c3.6-1.2,7.3-2.2,11.1-2.7c0.7-0.1,1.3-0.2,2-0.4
				c0.8-0.2,1.3,0.2,1.7,0.8c4.9,8.2,9.7,16.4,14.6,24.5c6.1,10.2,12.2,20.4,18.3,30.5c0.8,1.4,1.6,2.8,2.5,4.2
				c0.4,0.6,0.2,0.8-0.4,0.9c-2.2,0.5-4.3,1-6.5,1.4c-2.9,0.6-5.6,1.6-8.4,2.5c-3.1,1-6.1,2-9.1,3.2c-3.9,1.6-7.8,3.2-11.4,5.5
				c-2.7,1.7-5.5,3.2-8.2,4.9c-0.1,0.1-0.2,0.2-0.3,0.2c-0.9,0.1-1.9,0.8-2.5,0.3c-0.5-0.4,0.2-1.4,0.4-2.2c0.2-0.6,0.3-1.1,0.5-1.7
				c0.1-0.4,0.2-0.8-0.2-1.1c-0.4-0.4-0.8-0.2-1.2,0C104.9,76.1,103.7,76.7,102.1,77.6z M127.7,41.8c-0.2-0.3-0.3-0.7-0.6-0.8
				c-1.4-0.5-2.7-1.1-4.1-1.4c-6.2-1.3-11.5,0.2-15.9,4.9c-1.6,1.8-2.9,3.8-3.9,5.9c-0.3,0.5-0.4,1.2,0.3,1.6
				c0.6,0.3,0.9-0.3,1.1-0.7c0.8-1.5,1.6-3.1,2.7-4.4c2.5-3.2,5.6-5.4,9.7-5.9c3.3-0.5,6.5,0.4,9.5,1.6
				C127.1,42.8,127.8,42.4,127.7,41.8z M111.6,26.3c-0.5,0-0.9,0.1-1,0.5c-0.2,0.5,0.2,0.9,0.7,1.1c1.3,0.5,2.5,1,3.8,1.4
				c0.6,0.2,0.7,0.5,0.5,1.1c-0.5,1-0.8,2.1-1.2,3.1c-0.3,0.6-0.6,1.3,0.3,1.6s1-0.5,1.3-1.1c0.5-1.1,0.9-2.2,1.3-3.3
				c0.2-0.4,0.4-0.6,0.8-0.4c1.2,0.6,2.6,1,3.9,1.5c0.6,0.2,1.1,0.4,1.4-0.3c0.3-0.7-0.3-1-0.9-1.3c-1.2-0.4-2.3-1-3.5-1.3
				c-0.7-0.2-0.7-0.5-0.4-1.1c0.5-1.1,0.8-2.3,1.4-3.4c0.3-0.6,0.2-1-0.3-1.3c-0.6-0.3-1,0.2-1.2,0.7c-0.5,1.1-1,2.2-1.3,3.4
				c-0.3,1.1-0.8,0.8-1.5,0.6C114.1,27.2,112.8,26.7,111.6,26.3z M96.5,41.9c0,0.6,0,1,0.6,1.1c0.5,0.1,0.8-0.1,1-0.6
				c0.4-1.3,0.9-2.5,1.3-3.8c0.2-0.5,0.3-0.6,0.8-0.5c1.2,0.4,2.4,0.8,3.6,1.1c0.6,0.2,1.4,0.5,1.7-0.5c0.2-0.9-0.6-1.1-1.2-1.2
				c-1.2-0.2-2.2-0.7-3.3-0.9c-0.7-0.1-1-0.4-0.7-1.2c0.5-1.2,0.8-2.4,1.2-3.6c0.1-0.4,0.1-0.9-0.4-1.1s-0.9,0-1.1,0.6
				c-0.4,1.2-0.9,2.4-1.2,3.6c-0.2,0.9-0.6,0.9-1.3,0.7c-1.2-0.4-2.5-0.7-3.8-1.1c-0.5-0.1-1-0.1-1.1,0.5s0.3,0.8,0.8,1
				c1.3,0.4,2.6,0.8,3.8,1.2c0.5,0.2,0.9,0.2,0.5,1C97.2,39.4,96.9,40.7,96.5,41.9z"/>
			<path class="st4" d="M106.8,112.5c-0.5-1.7-0.4-3.4,0.2-4.8c1.1-2.8,1.9-5.8,3.6-8.3c0.2-0.3,0.6-0.7,0.2-1.2
				c-0.4-0.4-0.8-0.2-1.2-0.2c-0.7,0.2-1.4,0.4-2.1,0.6c-0.5,0.2-0.9,0.1-0.6-0.6c0.4-1.2,0.7-2.4,1-3.6c0.1-0.4,0.2-0.9-0.2-1.2
				c-0.4-0.4-0.8,0-1.2,0.2c-1.1,0.5-2.1,1.1-3.1,1.6c-0.2,0.1-0.5,0.3-0.7,0.1c-0.2-0.1-0.1-0.4-0.1-0.7c0.4-2.3,0.7-4.6,1.1-6.9
				c0.2-0.8,0.1-1.3-0.7-1.8c-1.1-0.6-2-1.4-3.1-2c-0.9-0.5-1-1.4-1.3-2.2c-1.3-3.3-2.5-6.6-3.7-10c-0.4-1.1-0.9-2.1-1.2-3.2
				c-0.3-1-0.9-1.2-1.8-1s-1.7,0.3-2.6,0.5c-0.6,0.1-0.8,0-0.5-0.7c0.7-1.6,1.2-3.4,1.8-5c0.4-1,0.1-1.3-0.9-1.3c-2.5,0-5,0-7.4,0
				c-0.9,0-1.8-0.3-2.7-0.1c-0.6,0.1-0.5-0.4-0.5-0.8c0.1-1.5,0.3-2.9,0.4-4.4c0-0.4,0.1-0.9,0.1-1.3c0-0.7-0.3-0.9-1-0.7
				c-0.2,0.1-0.4,0.1-0.6,0.2c-2.1,1.1-2.1,1.1-2.9-1.1c-0.5-1.5-1.1-3-1.5-4.5c-0.3-1.1-1-1.3-1.9-0.9c-0.4,0.2-1,0.8-1.2,0.2
				c-0.2-0.8-1.1-1.5-0.5-2.4c1.3-2.1,2.9-4,4.7-5.7c0.1-0.1,0.4-0.4,0.5-0.3c1,0.7,1.5-0.3,2.2-0.5c0.3-0.1,0.5-0.4,0.8-0.2
				s0.1,0.5,0.1,0.8c-0.1,1.5-0.2,2.9-0.4,4.4c-0.1,0.7,0.1,1,0.8,1c3.2,0.2,6.4,0.2,9.6,0.2c1,0,1.1,0.3,0.7,1.1
				c-0.7,1.5-1.3,3.1-1.9,4.7c-0.6,1.5-0.4,1.6,1.2,1.4c1-0.1,2-0.2,3-0.4c0.9-0.2,1.3,0.1,1.6,1c1.5,4.1,3.1,8.2,4.5,12.3
				c0.5,1.6,1.4,2.7,2.8,3.5c1.9,1.1,1.9,1.2,1.5,3.3c-0.4,2.3-0.8,4.6-1.2,6.9c-0.1,0.5-0.2,1,0.3,1.3c0.4,0.3,0.8-0.1,1.2-0.3
				c0.9-0.4,1.7-0.9,2.5-1.3c0.3-0.1,0.6-0.4,0.9-0.2c0.3,0.3,0,0.6-0.1,0.9c-0.2,0.9-0.5,1.8-0.8,2.8c-0.3,1.1-0.1,1.2,1,1.1
				c3.6-0.4,6.5-2.3,9.4-4.1c4.4-2.7,9-5,13.8-7c4.3-1.8,8.8-3.2,13.2-4.8c0.6-0.2,0.9-0.1,1.2,0.5c4.3,6.1,8.7,12.2,13.1,18.2
				c0.6,0.8,0.2,1-0.5,1.1c-3.1,0.4-6.1,1.1-9.1,1.8c-5.8,1.5-11.4,3.3-16.8,5.8c-5.2,2.4-10.1,5.2-14.5,8.9c-3,2.5-5.7,5.3-7.9,8.6
				C107.3,111.9,107.1,112.1,106.8,112.5z"/>
			<path class="st4" d="M108.4,100.2c-2,3.8-3.2,7.9-3.4,12.5c-1.3-2-2.5-3.7-3.6-5.4c-4.9-7.5-9.8-15.1-14.7-22.6
				c-2.8-4.3-5.6-8.5-8.3-12.8c-4.4-6.8-8.8-13.5-13.2-20.3c-1-1.6-0.8-3.3-0.6-5c0.2-2,0.8-3.8,1.6-5.6c0.1-0.2,0.1-0.6,0.5-0.6
				s0.2,0.4,0.3,0.6c0.8,2.3,1.6,4.7,2.3,7c0.5,1.5,0.6,1.6,2.1,1c0.9-0.3,1.2-0.1,1.5,0.8c0.6,1.9,1.3,3.6,1.9,5.5
				c0.5,1.4,0.9,1.6,2.1,1c0.4-0.2,0.7-0.8,1.1-0.5s0.1,0.8,0,1.3c-0.1,1.2-0.2,2.5-0.4,3.7c-0.1,1.1,0.3,1.4,1.3,1.4
				c3.1,0,6.2,0.1,9.3,0.1c0.7,0,1,0.1,0.6,0.9c-0.8,1.7-1.3,3.5-2,5.2c-0.3,0.9,0,1.3,0.8,1.2c1.3-0.1,2.7-0.3,4-0.6
				c0.6-0.1,0.8,0,1,0.5c1,2.7,2,5.3,3,8c0.8,2,1.5,4.1,2.3,6.1c0.4,1.2,1.6,1.6,2.6,2.2c1.3,0.7,2,1.6,1.6,3.2
				c-0.5,2.3-0.9,4.6-1.3,6.9c-0.1,0.6-0.4,1.2,0.2,1.7s1.2,0,1.7-0.2c0.8-0.4,1.5-0.8,2.3-1.2c0.2-0.1,0.5-0.3,0.8-0.2
				c0.3,0.2,0.1,0.5,0,0.7c-0.2,0.9-0.6,1.8-0.7,2.8c-0.2,1.2,0.1,1.5,1.3,1.2C106.9,100.3,107.6,100,108.4,100.2z"/>
			<path class="st1" d="M7.1,70.7c-0.2,0.7,0,1.2,0.4,1.8c4.7,7.1,9.3,14.3,14,21.4c2.7,4.2,5.4,8.3,8.2,12.5
				c5.6,8.6,11.2,17.1,16.8,25.6c1,1.6,2.1,3.2,3.1,4.8c0.5,0.9,1.2,0.9,2,0.4c6.1-4.1,12.5-7.6,19.2-10.6c4.7-2.1,9.6-3.9,14.6-5.3
				c5.1-1.4,10.3-2.5,15.5-3.1c0.5-0.1,1.1-0.5,1.6,0.2c-1.3,0.6-2.5,1.4-3.8,1.8c-3.8,1.4-7.4,3.1-11.2,4.6
				c-4.4,1.7-8.7,3.7-13.1,5.5c-3.2,1.3-6.4,2.6-9.6,3.9c-5.2,2.1-10.4,4.2-15.5,6.5c-1.2,0.5-1.8,0.2-2.5-0.6
				c-1.4-1.6-2.4-3.5-3.5-5.2c-2.9-4.5-6-8.9-8.8-13.6c-2.4-4.1-5.2-8-7.9-12c-3.8-5.8-7.7-11.6-11.4-17.4c-2-3.1-4-6.2-5.9-9.3
				c-1.8-2.9-3.6-5.7-5.5-8.6c-0.6-0.9-0.5-2,0.4-2.3C5,71.5,5.9,70.7,7.1,70.7z"/>
			<path class="st4" d="M100.8,116.6c-2.6,0-4.9,0.6-7.1,1.1c-5.6,1.1-11.2,2.6-16.6,4.6c-5.1,1.9-10.1,4.2-14.9,6.7
				c-3.6,1.9-7,3.9-10.4,6.1c-0.8,0.5-1.1,0.4-1.6-0.4c-5.8-9-11.7-18-17.6-26.9C24.8,96,17.1,84.2,9.5,72.4
				c-0.2-0.4-0.8-0.8-0.4-1.3c0.5-0.7,1.1-1.5,1.9-1.9c0.3-0.2,0.4,0.2,0.6,0.5c3,4.6,6.1,9.3,9.2,13.9c3.8,5.7,7.5,11.5,11.3,17.2
				c4.4,6.8,8.9,13.6,13.3,20.4c2,3,3.9,6,5.9,9c0.5,0.7,0.9,1,1.8,0.4c5.2-3.3,10.7-6,16.4-8.3c4.1-1.6,8.2-3,12.4-4.1
				c5.7-1.4,11.6-2.3,17.5-2.1C99.7,116.2,100.2,116,100.8,116.6z"/>
			<path class="st4" d="M111.9,114.8c2.2-0.2,4.2-1.2,6.3-1.9c2-0.6,3.9-1.3,5.8-1.9c1.8-0.6,3.6-1.2,5.5-1.8c1.6-0.5,3.3-1,4.9-1.6
				c2.7-0.9,5.4-1.9,8.1-2.8c2.6-0.9,5.2-1.6,7.8-2.5c2.5-0.8,4.9-1.7,7.3-2.6c2.3-0.8,4.6-1.5,7-2.2c2.5-0.7,2.8-1.5,1.2-3.6
				c-2.8-3.9-5.5-7.8-8.3-11.7c-2.5-3.4-5-6.9-7.4-10.3c-1.3-1.9-2.6-3.8-3.9-5.6c-0.2-0.2-0.3-0.5-0.6-0.6c0.7-0.5,1.2-0.3,1.6,0.3
				c4.1,5.7,8.2,11.5,12.3,17.3c2.5,3.6,5.1,7.1,7.6,10.6c0.8,1.1,1,3.8,0.1,4.6c-0.5,0.5-1.3,0.7-2,0.9c-6.5,2.1-12.9,4.2-19.3,6.4
				c-4.7,1.6-9.4,3.1-14.1,4.6c-5.4,1.8-10.7,3.6-16.1,5.4c-1.5,0.5-3.1,0.9-4.6,1.5c-0.9,0.4-1.6,0.2-2-0.7c-0.1-0.3-0.5-0.4-0.4-1
				C109.8,116.5,111.8,114.8,111.9,114.8z"/>
			<path class="st4" d="M135.6,101.5c5-1.9,10.2-3.4,15.4-4.7c2.4-0.6,4.9-1.1,7.3-1.5c0.9-0.2,0.8-0.5,0.4-1.1
				c-0.4-0.6-0.9-1.2-1.3-1.8c-0.4-0.6-0.9-0.7-1.5-0.5c-3.5,0.8-7,1.5-10.5,2.5c-3.9,1.1-7.8,2.4-11.5,3.9
				c-5.4,2.3-10.6,5-15.4,8.5c-2.1,1.5-3.9,2.8-6,4.7c-0.6,0.5-1.1,1-1.7,1.6c1.1-0.1,1.3-0.4,2.2-1c0.4-0.2,0.8-0.4,1.1-0.6
				c2.9-1.7,5.8-3.3,8.9-4.7C127.1,104.8,131.3,103.1,135.6,101.5z"/>
			<path class="st4" d="M117.5,105.5c0.4-0.3,0.8-0.6,1.2-0.9c0.1-0.1,0.3-0.2,0.4-0.3c0.9-0.6,1.8-1.2,2.8-1.8
				c4.5-2.7,9.2-5,14.1-6.8c5.3-2,10.6-3.5,16.1-4.7c1.7-0.4,3.4-0.7,5.3-1.1c-0.3-0.3-0.6-0.5-0.7-0.7c-0.4-1.1-1.2-1.3-2.3-1
				c-3.4,0.9-6.9,1.5-10.4,2.5c-3.4,1-6.8,2-10,3.3c-5.4,2.2-10.6,4.9-15.3,8.4c-3.1,2.3-6.1,4.9-8.4,8.1c-0.9,0.9-1.6,2.1-2.6,2.9
				c1.5-0.5,1.5-0.9,2.4-1.8c0.1-0.1,0.3-0.2,0.4-0.4c0.2-0.3,0.3-0.6,0.4-0.6C113.1,108.8,115.3,107.1,117.5,105.5z"/>
		</g>
		<g>
			<path class="st4" d="M7.1,70.7c-1.2,0-2.1,0.8-3.1,1.1c-0.8,0.2-0.9,1.4-0.4,2.3c1.9,2.8,3.7,5.7,5.5,8.6c2,3.1,4,6.2,5.9,9.3
				c3.7,5.9,7.6,11.6,11.4,17.4c2.6,4,5.4,7.9,7.9,12c2.8,4.6,5.9,9.1,8.8,13.6c1.1,1.8,2.1,3.6,3.5,5.2c0.7,0.8,1.4,1.1,2.5,0.6
				c5.1-2.2,10.3-4.3,15.5-6.5c3.2-1.3,6.4-2.6,9.6-3.9c4.4-1.8,8.7-3.8,13.1-5.5c3.8-1.4,7.4-3.2,11.2-4.6c1.3-0.5,2.5-1.2,3.8-1.8
				c0.1,0.2,0.1,0.5,0.2,0.7c0.2,1.7,0,2-1.6,2.6c-6.6,2.6-13,5.5-19.5,8.2c-4.6,1.9-9.1,3.8-13.7,5.6c-4.3,1.7-8.6,3.6-12.9,5.4
				c-2,0.9-4.1,1.7-6.2,2.5c-1.5,0.6-2.7,0.1-3.6-1.2c-5.4-8.3-10.8-16.5-16.2-24.8c-3.7-5.8-7.4-11.6-11.2-17.3
				c-3.7-5.7-7.4-11.4-11.2-17.1c-1.6-2.5-3.3-5-4.8-7.6c-0.9-1.4-0.5-3.4,1-4.1C4.4,70.6,6.2,70,8,69.2c0.1,0.1,0.2,0.2,0.3,0.4
				C8.1,69.9,7.6,70.3,7.1,70.7z"/>
			<path class="st1" d="M111.9,114.8c2.4-1.8,5.1-3.1,7.8-4.5c3.8-2,7.7-3.8,11.7-5.4c2.7-1.1,5.5-2.1,8.2-3.1
				c4.1-1.4,8.3-2.6,12.5-3.6c2.8-0.6,5.7-1.3,8.5-1.6c0.9-0.1,1.2-0.7,0.6-1.5c-0.5-0.7-1-1.3-1.4-2c-0.4-0.6-1.4-1.1-0.3-2
				c0.4-0.3,0-0.9-0.3-1.3s-0.7-0.8-1-1.2c-0.2-0.3-0.4-0.7,0.1-1c1.1-0.4,0.6-1.1,0.2-1.7c-1.7-2.4-3.4-4.8-5.1-7.1
				c-2.9-4.1-5.9-8.1-8.7-12.3c-0.7-1,0.4-0.7,0.8-0.8c0.3,0.1,0.4,0.4,0.6,0.6c1.3,1.9,2.6,3.8,3.9,5.6c2.5,3.4,5,6.9,7.4,10.3
				c2.8,3.9,5.5,7.8,8.3,11.7c1.5,2.1,1.3,2.9-1.2,3.6c-2.3,0.7-4.7,1.5-7,2.2c-2.5,0.8-4.9,1.7-7.3,2.6c-2.6,0.9-5.2,1.6-7.8,2.5
				c-2.7,0.9-5.4,1.9-8.1,2.8c-1.6,0.6-3.3,1-4.9,1.6c-1.8,0.6-3.6,1.2-5.5,1.8c-1.9,0.6-3.9,1.3-5.8,1.9
				C116.1,113.5,114.1,114.6,111.9,114.8z"/>
		</g>
	</g>
	<path class="st2" d="M69.5,43.3c1.5-2.1,3.1-4,4.9-5.6c0.4-0.3,0.3-0.7,0.2-1.1c-0.5-1.5-1.1-3.1-1.7-4.6c-0.2-0.7-0.5-0.7-1.1-0.5
		c-1.6,0.7-1.6,0.6-2.2-1.1c-0.9-2.6-1.8-5.3-2.7-7.9c-0.6-1.8-0.5-2,1.1-2.9c6.4-3.5,12.8-7.1,19.5-10.2c7.1-3.4,14.4-6.1,22.1-8.1
		c2.4-0.6,4.9-0.9,7.4-1.3c0.5-0.1,0.9-0.1,1.3,0.5c3.4,5.1,6.4,10.4,9.5,15.6c6.9,11.6,14,23.2,21,34.8c2.2,3.6,4.4,7.3,6.6,11
		c0.7,1.2,0.7,1.3-0.7,1.7c-1.8,0.5-3.6,0.5-5.4,1c-0.7,0.2-0.6,0.6-0.3,1c2.9,4.1,5.9,8.2,8.9,12.3c3,4.2,6,8.3,9,12.5
		c0.9,1.2,1.9,2.4,2.5,3.8c0.8,1.8,0.2,3.5-0.5,5.1c-0.5,1.1-2,1.1-3,1.5c-4.1,1.4-8.3,2.8-12.4,4.2c-2.3,0.8-4.7,1.5-7.1,2.3
		c-2.7,0.9-5.3,1.8-7.9,2.7c-2.4,0.8-4.7,1.5-7.1,2.3c-3.4,1.1-6.9,2.3-10.3,3.4c-2.4,0.8-4.8,1.6-7.2,2.3c-1.2,0.3-2.3,0.7-3.5,1.2
		c-0.6,0.3-0.9,0.1-1.3-0.3c-0.6-0.9-1.3-1.7-1.9-2.5c-0.4-0.5-0.5-1.4-1.2-1.2c-0.8,0.3-1.6,1-1.6,2c-0.1,1.2-0.1,2.3,0,3.5
		c0.1,1-0.3,1.4-1.3,1.8c-3.2,1.3-6.3,2.7-9.5,4c-2.8,1.1-5.7,2.2-8.5,3.5c-4.5,2-9.1,3.6-13.6,5.6c-3,1.3-6,2.5-9,3.8
		c-2.4,1.1-4.9,2.1-7.4,3.1c-1.9,0.8-3.9,1.5-5.8,2.4c-1.8,0.9-4.3-0.1-5.4-1.8c-3.9-6-7.7-12.1-11.6-18.1c-3-4.6-6-9.1-9-13.7
		c-3.2-5-6.4-10.1-9.7-15.1c-4.2-6.5-8.4-13-12.7-19.4c-1.4-2-1-5.4,0.5-6.5c1-0.8,2.2-1,3.3-1.5c1.4-0.6,2.9-1.2,4.4-1.7
		c0.9-0.3,0.5-0.8,0.2-1c-0.9-0.9-0.4-1.6,0.3-2.2c3.4-2.8,7.1-5.4,11-7.6c4.2-2.3,8.7-4.2,13.3-5.4c7.4-1.9,15-3,22.7-1.9
		c1.8,0.3,3.6,0.2,5.3,0.8c0.7,0.2,0.9-0.1,0.8-0.8c-0.2-4.1,1.2-7.7,3.2-11.1c0.2-0.3,0.3-0.8,0.8-0.7c0.4,0.1,0.7,0.5,0.8,0.9
		c0.5,1.6,1,3.2,1.5,4.7C69.1,43,69.3,43.1,69.5,43.3z M110.4,110.4c-0.9,0.9-1.6,2.1-2.6,2.9c1.5-0.5,1.5-0.9,2.4-1.8
		c0.5-0.4,1.5-1.4,1.6-1.5c3.4-3,6.2-5.2,10.1-7.6c4.5-2.7,9.2-5,14.1-6.8c5.3-2,10.6-3.5,16.1-4.7c1.7-0.4,3.4-0.7,5.3-1.1
		c-0.3-0.3-0.6-0.5-0.7-0.7c-0.4-1.1-1.2-1.3-2.3-1c-3.4,0.9-6.9,1.5-10.4,2.5c-3.4,1-6.8,2-10,3.3c-5.4,2.2-10.6,4.9-15.3,8.4
		C115.7,104.7,112.8,107.3,110.4,110.4z M112.5,111.5c-0.6,0.5-1.1,1-1.7,1.6c1.1-0.1,1.3-0.4,2.2-1c0.4-0.2,0.8-0.4,1.1-0.6
		c2.9-1.7,5.8-3.3,8.9-4.7c4.1-1.9,8.4-3.7,12.7-5.3c5-1.9,10.2-3.4,15.4-4.7c2.4-0.6,4.9-1.1,7.3-1.5c0.9-0.2,0.8-0.5,0.4-1.1
		c-0.4-0.6-0.9-1.2-1.3-1.8c-0.4-0.6-0.9-0.7-1.5-0.5c-3.5,0.8-7,1.5-10.5,2.5c-3.9,1.1-7.8,2.4-11.5,3.9c-5.4,2.3-10.6,5-15.4,8.5
		C116.4,108.3,114.6,109.6,112.5,111.5z M108.8,115.6c-0.1,0.6,0.3,0.7,0.4,1c0.4,0.9,1.1,1.1,2,0.7c1.5-0.6,3.1-1,4.6-1.5
		c5.4-1.8,10.7-3.6,16.1-5.4c4.7-1.6,9.4-3,14.1-4.6c6.4-2.2,12.9-4.4,19.3-6.4c0.7-0.2,1.5-0.4,2-0.9c0.9-0.9,0.7-3.5-0.1-4.6
		c-2.6-3.5-5.1-7.1-7.6-10.6c-4.1-5.7-8.2-11.5-12.3-17.3c-0.4-0.6-1-0.8-1.6-0.3c-0.4,0.2-1.5-0.2-0.8,0.8
		c2.9,4.1,5.8,8.2,8.7,12.3c1.7,2.4,3.4,4.7,5.1,7.1c0.4,0.6,0.9,1.3-0.2,1.7c-0.6,0.2-0.4,0.6-0.1,1c0.3,0.4,0.6,0.8,1,1.2
		c0.3,0.4,0.6,1,0.3,1.3c-1.1,0.9,0,1.4,0.3,2c0.4,0.7,1,1.3,1.4,2c0.5,0.8,0.3,1.4-0.6,1.5c-2.9,0.4-5.7,1-8.5,1.6
		c-4.2,1-8.4,2.2-12.5,3.6c-2.8,1-5.5,1.9-8.2,3.1c-4,1.7-7.9,3.4-11.7,5.4c-2.6,1.4-5.2,2.8-7.7,4.5
		C111.9,114.8,109.8,116.5,108.8,115.6z M7.1,70.7c0.5-0.4,1-0.8,1.4-1.2c-0.1-0.1-0.2-0.2-0.3-0.4c-1.8,0.7-3.7,1.3-5.4,2.2
		c-1.5,0.7-1.9,2.7-1,4.1C3.4,77.9,5,80.5,6.6,83c3.7,5.7,7.5,11.4,11.2,17.1c3.7,5.8,7.4,11.6,11.2,17.3
		c5.4,8.3,10.8,16.5,16.2,24.8c0.9,1.3,2.1,1.8,3.6,1.2c2.1-0.8,4.1-1.6,6.2-2.5c4.3-1.8,8.5-3.7,12.9-5.4c4.6-1.8,9.1-3.7,13.7-5.6
		c6.5-2.7,13-5.6,19.5-8.2c1.6-0.6,1.8-0.9,1.6-2.6c0-0.2-0.1-0.5-0.2-0.7c-0.4-0.7-1.1-0.3-1.6-0.2c-5.3,0.6-10.4,1.7-15.5,3.1
		c-5,1.4-9.9,3.2-14.6,5.3c-6.7,3-13.1,6.5-19.2,10.6c-0.8,0.5-1.4,0.5-2-0.4c-1-1.6-2-3.2-3.1-4.8c-5.6-8.6-11.2-17.1-16.8-25.6
		c-2.7-4.2-5.4-8.3-8.2-12.5c-4.7-7.1-9.3-14.3-14-21.4C7.1,71.9,6.9,71.3,7.1,70.7z M52.4,50.4c-6.1,0-10.8,0.4-15.3,1.4
		s-8.7,2.5-12.9,4.4c-4.7,2.2-9,5.1-13,8.3c-0.5,0.4-0.6,0.7-0.1,1.3c3.3,4.9,6.5,9.9,9.7,14.8c3.4,5.3,6.9,10.5,10.3,15.7
		c4.2,6.4,8.4,12.9,12.7,19.3c2.7,4.2,5.4,8.3,8.2,12.5c0.3,0.5,0.6,0.7,1.2,0.3c5.5-3.4,11.3-6.2,17.4-8.5
		c6.6-2.6,13.5-4.3,20.5-5.3c3.8-0.5,7.7-0.5,11.6-0.3c0.4,0,0.9,0.3,1.2-0.2c0.3-0.5-0.2-0.8-0.4-1.1c-4.8-7.4-9.6-14.8-14.4-22.1
		C83.6,82.6,78.2,74.3,72.7,66c-3-4.6-6-9.2-9-13.8c-0.4-0.6-0.9-1-1.7-1.1C58.3,50.6,54.6,50.5,52.4,50.4z M102.1,77.6
		c1.6-0.8,2.8-1.5,4.1-2.1c0.4-0.2,0.8-0.4,1.2,0c0.4,0.3,0.3,0.7,0.2,1.1c-0.2,0.6-0.3,1.1-0.5,1.7c-0.2,0.7-0.9,1.8-0.4,2.2
		c0.6,0.5,1.6-0.2,2.5-0.3c0.1,0,0.2-0.1,0.3-0.2c2.7-1.6,5.5-3.2,8.2-4.9c3.6-2.3,7.5-3.9,11.4-5.5c3-1.2,6-2.3,9.1-3.2
		c2.8-0.9,5.6-1.8,8.4-2.5c2.2-0.5,4.3-1,6.5-1.4c0.6-0.1,0.8-0.3,0.4-0.9c-0.9-1.4-1.6-2.8-2.5-4.2c-6.1-10.2-12.2-20.4-18.3-30.5
		c-4.9-8.2-9.8-16.4-14.6-24.5c-0.4-0.6-0.9-1-1.7-0.8c-0.7,0.2-1.3,0.3-2,0.4c-3.8,0.5-7.5,1.6-11.1,2.7c-3.5,1.1-7,2.5-10.4,4
		c-3.8,1.7-7.6,3.5-11.3,5.4c-4.2,2.2-8.2,4.5-12.4,6.7c-0.8,0.4-1,0.8-0.7,1.7c0.7,2.2,1.5,4.4,2.1,6.6c0.4,1.4,0.5,1.6,1.8,0.9
		c1.1-0.6,1.4,0.1,1.7,0.8c0.6,1.5,1.1,3,1.5,4.5c0.7,2.4,0.7,2.4,2.9,1.1c0.4-0.3,0.8-0.3,1.2-0.1c0.4,0.2,0.3,0.6,0.3,1
		c-0.2,1.6-0.2,3.3-0.5,4.9c-0.2,1,0,1.3,1.1,1.3c3.1,0,6.2,0,9.2,0.1c1.2,0,1.5,0.5,1.1,1.5c-0.6,1.6-1.2,3.1-1.8,4.7
		c-0.2,0.6-0.1,0.9,0.6,0.7c0.8-0.2,1.6-0.3,2.5-0.5c0.7-0.1,1.2-0.1,1.5,0.7c1.7,4.7,3.4,9.3,5.1,13.9c0.3,0.7,0.6,1.4,1.4,1.8
		c1,0.5,1.9,1.3,2.8,1.9c0.7,0.4,0.7,0.9,0.6,1.6C103,72.2,102.6,74.7,102.1,77.6z M106.8,112.5c0.3-0.4,0.5-0.6,0.6-0.8
		c2.2-3.3,4.9-6.1,7.9-8.6c4.4-3.7,9.3-6.5,14.5-8.9c5.4-2.5,11.1-4.4,16.8-5.8c3-0.8,6-1.5,9.1-1.8c0.7-0.1,1.1-0.3,0.5-1.1
		c-4.4-6.1-8.7-12.1-13.1-18.2c-0.4-0.5-0.6-0.7-1.2-0.5c-4.4,1.5-8.9,2.9-13.2,4.8c-4.8,2-9.4,4.3-13.8,7c-2.9,1.8-5.9,3.7-9.4,4.1
		c-1.1,0.1-1.3-0.1-1-1.1c0.3-0.9,0.5-1.8,0.8-2.8c0.1-0.3,0.4-0.6,0.1-0.9c-0.3-0.2-0.6,0.1-0.9,0.2c-0.8,0.5-1.7,0.9-2.5,1.3
		c-0.4,0.2-0.8,0.6-1.2,0.3c-0.5-0.3-0.3-0.9-0.3-1.3c0.4-2.3,0.8-4.6,1.2-6.9c0.4-2.1,0.4-2.2-1.5-3.3c-1.4-0.8-2.3-1.9-2.8-3.5
		c-1.4-4.1-3.1-8.2-4.5-12.3c-0.3-0.9-0.7-1.2-1.6-1c-1,0.2-2,0.3-3,0.4c-1.6,0.2-1.7,0.1-1.2-1.4c0.6-1.6,1.2-3.1,1.9-4.7
		c0.3-0.8,0.2-1.1-0.7-1.1c-3.2,0-6.4,0.1-9.6-0.2c-0.8-0.1-0.9-0.3-0.8-1c0.2-1.5,0.3-2.9,0.4-4.4c0-0.3,0.2-0.6-0.1-0.8
		c-0.3-0.2-0.5,0.1-0.8,0.2c-0.7,0.2-1.3,1.2-2.2,0.5c-0.1,0-0.3,0.2-0.5,0.3c-1.8,1.7-3.4,3.6-4.7,5.7c-0.6,0.9,0.3,1.7,0.5,2.4
		c0.2,0.6,0.8,0,1.2-0.2c1-0.4,1.6-0.3,1.9,0.9c0.4,1.5,1,3,1.5,4.5c0.8,2.3,0.8,2.2,2.9,1.1c0.2-0.1,0.4-0.2,0.6-0.2
		c0.7-0.2,1,0,1,0.7c0,0.4-0.1,0.9-0.1,1.3c-0.1,1.5-0.3,2.9-0.4,4.4c0,0.4-0.1,0.9,0.5,0.8c0.9-0.2,1.8,0.1,2.7,0.1
		c2.5,0,5,0,7.4,0c1,0,1.3,0.3,0.9,1.3c-0.6,1.7-1.2,3.4-1.8,5c-0.3,0.7,0,0.8,0.5,0.7c0.9-0.2,1.7-0.3,2.6-0.5s1.5,0,1.8,1
		c0.3,1.1,0.8,2.1,1.2,3.2c1.2,3.3,2.4,6.7,3.7,10c0.3,0.8,0.4,1.7,1.3,2.2c1.1,0.6,2,1.4,3.1,2c0.8,0.4,0.9,0.9,0.7,1.8
		c-0.4,2.3-0.7,4.6-1.1,6.9c0,0.2-0.2,0.5,0.1,0.7c0.2,0.1,0.4,0,0.7-0.1c1-0.6,2.1-1.1,3.1-1.6c0.4-0.2,0.8-0.6,1.2-0.2
		c0.4,0.3,0.3,0.8,0.2,1.2c-0.4,1.2-0.7,2.4-1,3.6c-0.2,0.7,0.1,0.8,0.6,0.6c0.7-0.2,1.4-0.4,2.1-0.6c0.4-0.1,0.9-0.3,1.2,0.2
		c0.4,0.5,0,0.9-0.2,1.2c-1.7,2.6-2.6,5.5-3.6,8.3C106.5,109.1,106.3,110.8,106.8,112.5z M108.4,100.2c-0.8-0.1-1.5,0.2-2.2,0.3
		c-1.2,0.3-1.5,0-1.3-1.2c0.2-0.9,0.5-1.8,0.7-2.8c0.1-0.2,0.3-0.6,0-0.7c-0.2-0.1-0.5,0-0.8,0.2c-0.8,0.4-1.5,0.9-2.3,1.2
		c-0.5,0.2-1.1,0.7-1.7,0.2s-0.3-1.1-0.2-1.7c0.4-2.3,0.8-4.6,1.3-6.9c0.4-1.6-0.3-2.4-1.6-3.2c-1-0.5-2.1-1-2.6-2.2
		c-0.8-2-1.5-4.1-2.3-6.1c-1-2.7-2-5.3-3-8c-0.2-0.4-0.4-0.6-1-0.5c-1.3,0.3-2.7,0.5-4,0.6c-0.9,0.1-1.2-0.3-0.8-1.2
		c0.7-1.7,1.2-3.5,2-5.2c0.4-0.9,0.1-0.9-0.6-0.9c-3.1,0-6.2-0.1-9.3-0.1c-1,0-1.5-0.4-1.3-1.4c0.2-1.2,0.3-2.5,0.4-3.7
		c0-0.4,0.3-1,0-1.3c-0.4-0.3-0.7,0.3-1.1,0.5c-1.3,0.6-1.6,0.4-2.1-1c-0.6-1.8-1.4-3.6-1.9-5.5c-0.3-0.9-0.6-1.1-1.5-0.8
		c-1.5,0.6-1.6,0.5-2.1-1c-0.8-2.3-1.6-4.7-2.3-7c-0.1-0.2,0.1-0.5-0.3-0.6c-0.4,0-0.4,0.3-0.5,0.6c-0.9,1.8-1.5,3.6-1.6,5.6
		c-0.1,1.7-0.4,3.4,0.6,5c4.4,6.7,8.8,13.5,13.2,20.3c2.8,4.3,5.6,8.5,8.3,12.8c4.9,7.5,9.8,15.1,14.7,22.6c1.1,1.7,2.3,3.4,3.6,5.4
		C105.2,108.1,106.4,104,108.4,100.2z M100.8,116.6c-0.6-0.6-1-0.4-1.4-0.4c-5.9-0.2-11.8,0.7-17.5,2.1c-4.2,1-8.3,2.4-12.4,4.1
		c-5.7,2.3-11.2,5-16.4,8.3c-0.9,0.6-1.4,0.3-1.8-0.4c-2-3-3.9-6-5.9-9c-4.4-6.8-8.9-13.6-13.3-20.4c-3.8-5.7-7.5-11.5-11.3-17.2
		c-3-4.6-6.1-9.3-9.2-13.9c-0.2-0.2-0.3-0.6-0.6-0.5c-0.8,0.5-1.4,1.2-1.9,1.9c-0.3,0.5,0.2,0.9,0.4,1.3
		c7.7,11.8,15.4,23.6,23.1,35.3c5.9,9,11.8,17.9,17.6,26.9c0.5,0.8,0.8,0.9,1.6,0.4c3.3-2.2,6.8-4.2,10.4-6.1
		c4.8-2.5,9.8-4.8,14.9-6.7c5.4-2,10.9-3.4,16.6-4.6C95.9,117.2,98.2,116.6,100.8,116.6z"/>
</g>
</svg>
