<!-- Generated by IcoMoon.io -->
<svg version="1.1" xmlns="http://www.w3.org/2000/svg" width="20" height="20" viewBox="0 0 20 20">
<title>500px-with-circle</title>
<path d="M8.349 9.257c-0.159-0.119-0.325-0.217-0.497-0.293-0.174-0.078-0.346-0.117-0.519-0.117-0.319 0-0.571 0.121-0.757 0.361-0.188 0.242-0.281 0.513-0.281 0.812 0 0.327 0.096 0.596 0.287 0.805s0.455 0.314 0.791 0.314c0.173 0 0.345-0.035 0.519-0.104s0.337-0.154 0.491-0.259c0.155-0.104 0.301-0.222 0.437-0.354 0.137-0.131 0.259-0.262 0.368-0.389-0.109-0.116-0.237-0.246-0.382-0.387s-0.298-0.271-0.457-0.389zM12.627 8.847c-0.182 0-0.358 0.039-0.525 0.117-0.168 0.076-0.327 0.174-0.478 0.293-0.15 0.118-0.293 0.248-0.43 0.389s-0.261 0.271-0.368 0.389c0.118 0.137 0.245 0.272 0.382 0.402 0.137 0.133 0.281 0.25 0.438 0.355 0.153 0.104 0.314 0.188 0.483 0.252s0.349 0.096 0.539 0.096c0.337 0 0.595-0.109 0.777-0.328 0.183-0.219 0.272-0.486 0.272-0.805s-0.099-0.592-0.293-0.818c-0.195-0.228-0.461-0.342-0.797-0.342zM10 0.4c-5.302 0-9.6 4.298-9.6 9.6s4.298 9.6 9.6 9.6 9.6-4.298 9.6-9.6-4.298-9.6-9.6-9.6zM14.835 10.962c-0.108 0.309-0.263 0.58-0.463 0.811-0.2 0.233-0.448 0.414-0.743 0.546s-0.625 0.197-0.989 0.197c-0.282 0-0.546-0.043-0.791-0.129s-0.476-0.2-0.689-0.342c-0.214-0.141-0.416-0.304-0.608-0.49-0.19-0.188-0.372-0.38-0.546-0.58-0.19 0.2-0.377 0.393-0.559 0.58s-0.375 0.35-0.581 0.49c-0.204 0.142-0.427 0.255-0.668 0.342-0.24 0.086-0.511 0.129-0.812 0.129-0.373 0-0.704-0.065-0.996-0.197s-0.542-0.309-0.75-0.532c-0.209-0.224-0.368-0.489-0.478-0.798-0.107-0.309-0.162-0.641-0.162-0.995s0.052-0.684 0.157-0.989 0.258-0.568 0.457-0.792c0.2-0.224 0.445-0.399 0.737-0.532 0.29-0.131 0.617-0.197 0.982-0.197 0.3 0 0.575 0.045 0.825 0.137 0.25 0.090 0.481 0.211 0.695 0.361s0.415 0.322 0.602 0.518 0.37 0.402 0.552 0.621c0.174-0.209 0.354-0.414 0.539-0.613 0.188-0.201 0.387-0.376 0.602-0.525 0.213-0.15 0.445-0.271 0.695-0.361 0.25-0.092 0.521-0.137 0.81-0.137 0.365 0 0.692 0.062 0.984 0.191 0.291 0.127 0.536 0.301 0.736 0.524s0.354 0.483 0.463 0.784c0.11 0.301 0.164 0.627 0.164 0.982s-0.054 0.688-0.165 0.996z"></path>
</svg>
