<!-- Generated by IcoMoon.io -->
<svg version="1.1" xmlns="http://www.w3.org/2000/svg" width="20" height="20" viewBox="0 0 20 20">
<title>500px</title>
<path d="M6.398 14.775c0.481-0.174 0.928-0.4 1.337-0.683 0.41-0.282 0.797-0.608 1.16-0.982s0.736-0.759 1.118-1.159c0.346 0.4 0.71 0.786 1.092 1.159s0.787 0.7 1.214 0.982c0.428 0.282 0.887 0.509 1.379 0.683 0.49 0.173 1.017 0.259 1.582 0.259 0.727 0 1.387-0.132 1.977-0.396s1.087-0.627 1.487-1.092c0.399-0.464 0.71-1.005 0.928-1.623 0.219-0.617 0.328-1.281 0.328-1.991s-0.109-1.364-0.328-1.964c-0.218-0.602-0.528-1.123-0.928-1.569s-0.892-0.795-1.473-1.050c-0.583-0.256-1.238-0.383-1.966-0.383-0.581 0-1.123 0.092-1.623 0.273s-0.964 0.423-1.391 0.723c-0.428 0.3-0.828 0.65-1.201 1.051-0.372 0.399-0.732 0.81-1.078 1.228-0.364-0.437-0.732-0.85-1.104-1.242s-0.773-0.737-1.201-1.037-0.891-0.541-1.391-0.723c-0.5-0.182-1.051-0.273-1.65-0.273-0.728 0-1.385 0.133-1.965 0.396-0.584 0.264-1.073 0.617-1.474 1.064-0.4 0.446-0.706 0.974-0.914 1.583s-0.313 1.268-0.313 1.976c0 0.71 0.108 1.374 0.326 1.992 0.219 0.619 0.537 1.15 0.955 1.597s0.919 0.801 1.5 1.064c0.584 0.264 1.246 0.396 1.993 0.396 0.6 0 1.142-0.086 1.624-0.259zM3.164 11.65c-0.383-0.418-0.573-0.955-0.573-1.609 0-0.6 0.186-1.142 0.561-1.624 0.372-0.48 0.876-0.723 1.515-0.723 0.345 0 0.689 0.078 1.035 0.232s0.678 0.35 0.997 0.587c0.317 0.237 0.622 0.496 0.912 0.777 0.291 0.283 0.546 0.542 0.765 0.778-0.219 0.255-0.464 0.515-0.737 0.776-0.273 0.266-0.562 0.502-0.872 0.71-0.311 0.21-0.637 0.382-0.983 0.519-0.345 0.137-0.691 0.205-1.036 0.205-0.675 0-1.202-0.209-1.584-0.628zM14.256 12.088c-0.336-0.127-0.66-0.296-0.968-0.505-0.311-0.209-0.603-0.445-0.874-0.709-0.273-0.264-0.528-0.532-0.764-0.806 0.218-0.236 0.463-0.495 0.736-0.778 0.273-0.281 0.56-0.54 0.859-0.776s0.619-0.433 0.955-0.587c0.337-0.154 0.688-0.232 1.051-0.232 0.673 0 1.204 0.227 1.596 0.683 0.392 0.454 0.587 1 0.587 1.638 0 0.637-0.183 1.172-0.546 1.608-0.364 0.438-0.882 0.655-1.555 0.655-0.381-0.001-0.741-0.064-1.077-0.191z"></path>
</svg>
