<!-- Generated by IcoMoon.io -->
<svg version="1.1" xmlns="http://www.w3.org/2000/svg" width="20" height="20" viewBox="0 0 20 20">
<title>copy</title>
<path d="M11 0h-8c-0.553 0-1 0.447-1 1v12c0 0.552 0.447 1 1 1h5v2h2v-2h-1.999v-2h1.999v-2h-2v2h-4v-10h6v4h2v-5c0-0.552-0.447-1-1-1zM8 7v1h2v-2h-1c-0.553 0-1 0.447-1 1zM12 20h2v-2h-2v2zM12 8h2v-2h-2v2zM8 19c0 0.552 0.447 1 1 1h1v-2h-2v1zM17 6h-1v2h2v-1c0-0.552-0.447-1-1-1zM16 20h1c0.553 0 1-0.448 1-1v-1h-2v2zM16 12h2v-2h-2v2zM16 16h2v-2h-2v2z"></path>
</svg>
