<!-- Generated by IcoMoon.io -->
<svg version="1.1" xmlns="http://www.w3.org/2000/svg" width="20" height="20" viewBox="0 0 20 20">
<title>database</title>
<path d="M16.726 12.641c-0.843 1.363-3.535 2.361-6.726 2.361s-5.883-0.998-6.727-2.361c-0.178-0.29-0.273-0.135-0.273 0.007 0 0.144 0 2.002 0 2.002 0 1.94 3.134 3.95 7 3.95s7-2.010 7-3.949c0 0 0-1.858 0-2.002s-0.096-0.298-0.274-0.008zM16.737 7.525c-0.83 1.205-3.532 2.090-6.737 2.090s-5.908-0.885-6.738-2.090c-0.171-0.248-0.262-0.113-0.262-0.002 0 0.113 0 2.357 0 2.357 0 1.762 3.134 3.189 7 3.189s7-1.428 7-3.189c0 0 0-2.244 0-2.357 0-0.111-0.092-0.246-0.263 0.002zM10 1c-3.866 0-7 1.18-7 2.633v1.26c0 1.541 3.134 2.791 7 2.791s7-1.25 7-2.791v-1.26c0-1.453-3.134-2.633-7-2.633z"></path>
</svg>
