<!-- Generated by IcoMoon.io -->
<svg version="1.1" xmlns="http://www.w3.org/2000/svg" width="20" height="20" viewBox="0 0 20 20">
<title>drop</title>
<path d="M10.203 0.561c-0.027-0.215-0.38-0.215-0.406 0-0.883 7.107-5.398 8.572-5.398 13.512 0 3.053 2.564 5.527 5.601 5.527s5.6-2.475 5.6-5.527c0-4.94-4.514-6.405-5.397-13.512zM9.35 8.418c-0.059 0.219-0.123 0.444-0.189 0.678-0.401 1.424-0.856 3.039-0.856 4.906 0 1.012-0.598 1.371-1.156 1.371-0.639 0-1.156-0.523-1.156-1.166 0-2.207 1.062-3.649 2-4.92 0.295-0.398 0.572-0.775 0.797-1.15 0.103-0.172 0.38-0.164 0.506 0.006 0.059 0.080 0.079 0.182 0.054 0.275z"></path>
</svg>
