<!-- Generated by IcoMoon.io -->
<svg version="1.1" xmlns="http://www.w3.org/2000/svg" width="20" height="20" viewBox="0 0 20 20">
<title>flat-brush</title>
<path d="M1.844 14.889c0.498 0.376 1.594-1.178 1.942-0.915s-0.82 1.762-0.528 1.982c0.292 0.22 1.513-1.239 1.852-0.984s-0.803 1.774-0.437 2.051c0.367 0.277 1.562-1.202 1.852-0.983s-0.773 1.797-0.437 2.050c0.336 0.254 1.481-1.263 1.76-1.052s-0.844 1.743-0.346 2.119c0.498 0.375 5.37-8.964 5.37-8.964l-3.876-2.939c0 0-7.65 7.26-7.152 7.635zM13.023 0.831l-3.362 5.156 4.121 3.109 4.396-4.246c-0.527-1.503-3.44-3.843-5.155-4.019z"></path>
</svg>
