<!-- Generated by IcoMoon.io -->
<svg version="1.1" xmlns="http://www.w3.org/2000/svg" width="20" height="20" viewBox="0 0 20 20">
<title>flattr</title>
<path d="M5.598 8.541c0-1.637 0.434-2.678 1.889-2.912 0.508-0.1 1.566-0.064 2.239-0.064v2.5c0 0.024 0.003 0.064 0.009 0.084 0.027 0.101 0.119 0.175 0.228 0.175 0.061 0 0.118-0.031 0.178-0.090l6.236-6.234h-8.829c-3.674 0-5.548 2.115-5.548 6.066v8.287l3.598-3.602v-4.21zM14.4 7.248v4.209c0 1.637-0.434 2.68-1.889 2.912-0.508 0.1-1.566 0.065-2.238 0.065v-2.5c0-0.022-0.004-0.062-0.009-0.084-0.028-0.1-0.12-0.174-0.228-0.176-0.062 0-0.118 0.033-0.179 0.092l-6.235 6.232 8.83 0.002c3.673 0 5.548-2.115 5.548-6.066v-8.287l-3.6 3.601z"></path>
</svg>
