<!-- Generated by IcoMoon.io -->
<svg version="1.1" xmlns="http://www.w3.org/2000/svg" width="20" height="20" viewBox="0 0 20 20">
<title>grooveshark</title>
<path d="M10 1.199c-4.861 0-8.8 3.94-8.8 8.801 0 4.859 3.939 8.801 8.801 8.801 4.86 0 8.8-3.941 8.8-8.801s-3.94-8.801-8.801-8.801zM13.538 10.338c-0.476-0.666-0.963-1.32-1.497-1.939-0.501-0.584-1.034-1.141-1.614-1.645-0.578-0.504-1.208-0.982-1.9-1.316-0.465-0.225-0.944-0.393-1.439-0.536-0.056-0.015-0.208-0.084-0.252-0.015-0.028 0.043-0.006 0.123-0.002 0.17 0.014 0.103 0.026 0.205 0.039 0.308 0.148 1.228 0.204 2.525-0.178 3.719-0.204 0.643-0.578 1.23-1.075 1.686-0.413 0.379-1.002 0.76-1.587 0.732-0.108-0.004-0.218-0.023-0.324-0.059-0.626-0.211-0.663-0.886-0.667-1.443-0.004-0.598 0.068-1.195 0.216-1.775 0.045-0.178 0.101-0.353 0.16-0.527 0.685-1.986 2.27-3.602 4.259-4.307 0.744-0.264 1.532-0.397 2.323-0.397 2.326 0 4.539 1.195 5.817 3.137 0.32 0.488 0.577 1.016 0.766 1.566h-0.003c0.061 0.174 0.117 0.35 0.163 0.527 0.146 0.58 0.22 1.178 0.216 1.775-0.008 1.125-0.37 2.367-1.783 1.771-0.667-0.282-1.224-0.852-1.638-1.432z"></path>
</svg>
