<!-- Generated by IcoMoon.io -->
<svg version="1.1" xmlns="http://www.w3.org/2000/svg" width="20" height="20" viewBox="0 0 20 20">
<title>inbox</title>
<path d="M19.253 9.542c-0.388-0.416-2.265-2.271-3.122-3.118-0.263-0.259-0.639-0.424-1.033-0.424h-10.196c-0.394 0-0.77 0.165-1.033 0.424-0.858 0.847-2.734 2.701-3.122 3.118-0.485 0.521-0.723 0.902-0.624 1.449s0.466 2.654 0.556 3.074c0.088 0.419 0.684 0.935 1.24 0.935h16.162c0.556 0 1.152-0.516 1.241-0.935s0.457-2.527 0.556-3.074-0.139-0.929-0.625-1.449zM14.014 10.003c-0.101 0-0.193 0.052-0.238 0.133l-0.81 1.864h-5.932l-0.809-1.864c-0.045-0.081-0.137-0.133-0.238-0.133h-3.514l2.022-2.003h11.010l2.023 2.003h-3.514z"></path>
</svg>
