<!-- Generated by IcoMoon.io -->
<svg version="1.1" xmlns="http://www.w3.org/2000/svg" width="20" height="20" viewBox="0 0 20 20">
<title>lastfm-with-circle</title>
<path d="M10 0.4c-5.302 0-9.6 4.298-9.6 9.6s4.298 9.6 9.6 9.6 9.6-4.298 9.6-9.6-4.298-9.6-9.6-9.6zM12.644 12.83c-2.002 0-2.697-0.91-3.066-2.043l-0.371-1.166c-0.277-0.851-0.501-1.467-1.519-1.467-0.706 0-1.626 0.463-1.626 1.898 0 1.119 0.77 1.82 1.568 1.82 0.677 0 1.084-0.381 1.296-0.572l0.354 1.012c-0.241 0.174-0.734 0.517-1.707 0.517-1.346 0-2.625-0.957-2.625-2.73 0-1.844 1.333-2.93 2.705-2.93 1.54 0 2.113 0.56 2.6 2.078l0.382 1.166c0.278 0.852 0.865 1.471 2.034 1.471 0.787 0 1.204-0.176 1.204-0.607 0-0.338-0.197-0.584-0.787-0.723l-0.787-0.188c-0.961-0.232-1.343-0.734-1.343-1.529 0-1.271 1.018-1.668 2.061-1.668 1.181 0 1.898 0.432 1.99 1.482l-1.157 0.139c-0.046-0.5-0.347-0.711-0.903-0.711-0.509 0-0.821 0.234-0.821 0.631 0 0.35 0.15 0.559 0.66 0.676l0.74 0.164c0.995 0.233 1.528 0.723 1.528 1.668-0.001 1.169-0.974 1.612-2.41 1.612z"></path>
</svg>
