<!-- Generated by IcoMoon.io -->
<svg version="1.1" xmlns="http://www.w3.org/2000/svg" width="20" height="20" viewBox="0 0 20 20">
<title>light-down</title>
<path d="M10 6.797c-1.775 0-3.2 1.426-3.2 3.201 0 1.773 1.425 3.199 3.2 3.199s3.199-1.426 3.199-3.199c0-1.775-1.425-3.201-3.199-3.201zM10 12.047c-1.133 0-2.051-0.916-2.051-2.049s0.918-2.051 2.051-2.051c1.132 0 2.050 0.918 2.050 2.051s-0.919 2.049-2.050 2.049zM15 5c-0.312-0.312-0.883-0.248-1.273 0.142s-0.453 0.959-0.141 1.272 0.882 0.25 1.273-0.141c0.39-0.39 0.453-0.961 0.141-1.273zM5.142 13.729c-0.391 0.39-0.454 0.959-0.142 1.271s0.882 0.25 1.273-0.141c0.391-0.391 0.454-0.961 0.142-1.273s-0.883-0.248-1.273 0.143zM5 5c-0.312 0.312-0.249 0.883 0.141 1.273s0.961 0.453 1.273 0.141 0.249-0.883-0.142-1.273c-0.389-0.389-0.96-0.453-1.272-0.141zM13.727 14.857c0.39 0.391 0.96 0.455 1.273 0.143s0.249-0.883-0.142-1.274c-0.391-0.391-0.96-0.453-1.273-0.141s-0.248 0.882 0.142 1.272zM10 4.998c0.441 0 0.8-0.447 0.8-1s-0.359-0.998-0.8-0.998c-0.442 0-0.801 0.445-0.801 0.998s0.358 1 0.801 1zM10 17c0.441 0 0.8-0.447 0.8-1s-0.358-0.998-0.799-0.998c-0.442 0-0.801 0.445-0.801 0.998s0.357 1 0.8 1zM5 10c0-0.441-0.45-0.8-1.003-0.8s-0.997 0.359-0.997 0.8c0 0.442 0.444 0.8 0.997 0.8s1.003-0.358 1.003-0.8zM17 10c0-0.441-0.448-0.8-1.001-0.8s-0.999 0.359-0.999 0.8c0 0.442 0.446 0.8 0.999 0.8s1.001-0.358 1.001-0.8z"></path>
</svg>
