<!-- Generated by IcoMoon.io -->
<svg version="1.1" xmlns="http://www.w3.org/2000/svg" width="20" height="20" viewBox="0 0 20 20">
<title>magnet</title>
<path d="M12.165 17.86c-0.028 0.309 0.217 0.584 0.545 0.611l3.985 0.326c0.329 0.027 0.621-0.203 0.65-0.512l0.311-3.287-5.18-0.426-0.311 3.288zM2.344 14.999l0.312 3.287c0.028 0.309 0.321 0.539 0.65 0.512l3.985-0.326c0.328-0.027 0.573-0.303 0.546-0.611l-0.312-3.287-5.181 0.425zM1.831 9.583l0.321 3.391 5.181-0.426-0.322-3.387c-0.007-0.082-0.011-0.166-0.011-0.25 0-1.555 1.346-2.82 3-2.82s3 1.266 3 2.82c0 0.084-0.004 0.168-0.012 0.25l-0.321 3.387 5.181 0.426 0.321-3.391c0.021-0.225 0.030-0.449 0.030-0.672 0.001-4.252-3.677-7.711-8.199-7.711s-8.2 3.459-8.2 7.711c0 0.223 0.011 0.447 0.031 0.672z"></path>
</svg>
