<!-- Generated by IcoMoon.io -->
<svg version="1.1" xmlns="http://www.w3.org/2000/svg" width="20" height="20" viewBox="0 0 20 20">
<title>mixi</title>
<path d="M9.546 17.258h0.955v2.143c6.51-0.684 9.982-7.143 9.421-11.691-0.564-4.55-5.451-7.692-10.944-7.020-5.492 0.674-9.468 4.908-8.906 9.459 0.513 4.138 4.602 7.113 9.474 7.109zM15.694 12.86h-1.831v-4.953c0-0.199-0.018-0.387-0.053-0.557-0.029-0.148-0.084-0.273-0.164-0.381-0.076-0.1-0.187-0.182-0.33-0.244-0.152-0.066-0.363-0.1-0.623-0.1-0.537 0-0.957 0.141-1.251 0.416-0.291 0.273-0.433 0.633-0.433 1.1v4.719h-1.83v-4.953c0-0.205-0.019-0.395-0.059-0.564-0.034-0.15-0.091-0.277-0.173-0.387-0.077-0.102-0.179-0.178-0.314-0.237-0.144-0.062-0.34-0.094-0.58-0.094-0.312 0-0.58 0.059-0.795 0.174-0.223 0.117-0.405 0.26-0.541 0.422-0.138 0.164-0.239 0.334-0.299 0.506-0.062 0.172-0.092 0.31-0.092 0.414v4.719h-1.832v-7.696h1.758v0.6c0.574-0.508 1.306-0.766 2.181-0.766 0.51 0 0.981 0.103 1.399 0.305 0.306 0.147 0.554 0.365 0.738 0.652 0.231-0.248 0.504-0.451 0.814-0.609 0.454-0.231 0.958-0.348 1.499-0.348 0.402 0 0.773 0.043 1.102 0.127 0.343 0.086 0.644 0.225 0.895 0.412 0.258 0.193 0.46 0.445 0.602 0.75 0.141 0.301 0.212 0.66 0.212 1.070v5.503z"></path>
</svg>
