<!-- Generated by IcoMoon.io -->
<svg version="1.1" xmlns="http://www.w3.org/2000/svg" width="20" height="20" viewBox="0 0 20 20">
<title>picasa</title>
<path d="M5.808 1.823c-3.089 1.588-5.008 4.721-5.008 8.198 0 0.633 0.080 1.275 0.221 1.918l7.949-7.239c-0.848-0.771-3.076-2.799-3.162-2.877zM13.793 1.626c-1.2-0.545-2.476-0.826-3.794-0.826-0.934 0-1.855 0.156-2.749 0.441l6.543 5.951v-5.566zM15.192 2.438v10.617h3.485c0.343-0.982 0.522-2.004 0.522-3.035 0.001-3.033-1.522-5.872-4.007-7.582zM1.463 13.429c0.674 1.693 1.857 3.15 3.368 4.184v-7.25l-2.045 1.861c-0.698 0.634-1.28 1.166-1.323 1.205zM6.23 18.425c0.935 0.422 1.913 0.682 2.92 0.775h1.689c3.019-0.281 5.727-2.068 7.199-4.744h-11.808v3.969z"></path>
</svg>
