<!-- Generated by IcoMoon.io -->
<svg version="1.1" xmlns="http://www.w3.org/2000/svg" width="20" height="20" viewBox="0 0 20 20">
<title>signal</title>
<path d="M10 14c-1.094 0-1.981 0.894-1.981 2 0 1.104 0.887 2 1.981 2s1.98-0.896 1.98-2c0-1.105-0.886-2-1.98-2zM5.8 11.758l1.4 1.414c1.546-1.562 4.054-1.562 5.601 0l1.399-1.414c-2.319-2.343-6.081-2.343-8.4 0zM3 8.928l1.4 1.414c3.092-3.123 8.106-3.123 11.199 0l1.401-1.414c-3.865-3.904-10.135-3.904-14 0zM0.199 6.1l1.4 1.414c4.639-4.686 12.161-4.686 16.801 0l1.4-1.414c-5.412-5.467-14.188-5.467-19.601 0z"></path>
</svg>
