<!-- Generated by IcoMoon.io -->
<svg version="1.1" xmlns="http://www.w3.org/2000/svg" width="20" height="20" viewBox="0 0 20 20">
<title>smashing</title>
<path d="M10.023 16.032c-2.508 0-4.253-1.555-4.253-1.555l-1.483 3.363c1.023 0.547 2.092 0.936 2.709 1.141l-1.592 0.381c-0.746 0.178-1.496-0.283-1.675-1.029l-3.090-12.928c-0.179-0.746 0.281-1.496 1.028-1.676l3.716-0.889c-0.91 1.029-1.263 2.252-1.174 3.65 0.139 2.193 2.237 3.879 4.734 4.822 4.701 1.776 3.586 4.72 1.080 4.72zM19.361 14.594l-3.091-12.928c-0.178-0.746-0.928-1.207-1.675-1.027l-2.663 0.637c0.679 0.105 2.024 0.4 3.505 1.178l-1.159 3.213c0 0-0.965-1.078-3.553-1.209-2.46-0.125-3.828 2.537 0.969 4.105 3.674 1.201 4.848 3.516 4.787 5.658-0.031 1.113-0.421 2.018-0.872 2.701l2.725-0.652c0.746-0.178 1.206-0.928 1.027-1.676z"></path>
</svg>
