<!-- Generated by IcoMoon.io -->
<svg version="1.1" xmlns="http://www.w3.org/2000/svg" width="20" height="20" viewBox="0 0 20 20">
<title>stumbleupon</title>
<path d="M11.051 8.059l1.365 0.66 2.059-0.66v-1.194c0-2.463-2.008-4.465-4.475-4.465s-4.475 2.002-4.475 4.465v6.27c0 0.578-0.472 1.049-1.051 1.049s-1.051-0.471-1.051-1.049v-2.625h-3.423v2.625c0 2.461 2.007 4.465 4.475 4.465 2.467 0 4.474-2.004 4.474-4.465v-6.27c0-0.578 0.472-1.049 1.052-1.049s1.051 0.471 1.051 1.049v1.194zM16.576 10.51v2.625c0 0.578-0.471 1.049-1.051 1.049s-1.051-0.471-1.051-1.049v-2.678l-2.059 0.658-1.365-0.658v2.678c0 2.461 2.008 4.465 4.475 4.465s4.475-2.004 4.475-4.465v-2.625h-3.424z"></path>
</svg>
