<!-- Generated by IcoMoon.io -->
<svg version="1.1" xmlns="http://www.w3.org/2000/svg" width="20" height="20" viewBox="0 0 20 20">
<title>thermometer</title>
<path d="M13 10.123v-9.123c0-0.553-0.447-1-1-1h-4.201c-0.552 0-0.799 0.447-0.799 1v9.123c-1.444 0.969-2.4 2.608-2.4 4.477 0 2.982 2.418 5.4 5.4 5.4s5.4-2.418 5.4-5.4c0-1.869-0.956-3.508-2.4-4.477zM10 17.9c-1.823 0-3.3-1.477-3.3-3.3 0-1.472 0.97-2.703 2.3-3.129v-7.471h2v7.471c1.33 0.426 2.3 1.657 2.3 3.129 0 1.822-1.477 3.3-3.3 3.3z"></path>
</svg>
