<!-- Generated by IcoMoon.io -->
<svg version="1.1" xmlns="http://www.w3.org/2000/svg" width="20" height="20" viewBox="0 0 20 20">
<title>thunder-cloud</title>
<path d="M15.213 6.641c-0.276 0-0.546 0.023-0.809 0.066-0.656-2.145-2.689-3.707-5.095-3.707-2.939 0-5.32 2.328-5.32 5.199 0 0.258 0.020 0.51 0.057 0.756-0.142-0.016-0.284-0.027-0.429-0.027-1.998 0-3.617 1.584-3.617 3.535 0 1.953 1.619 3.537 3.617 3.537h11.596c2.643 0 4.787-2.096 4.787-4.68 0-2.586-2.144-4.679-4.787-4.679zM11.371 10.951c-0.494 0.703-2.614 2.889-2.704 2.98-0.104 0.129-0.391 0.344-0.663 0.166-0.079-0.051-0.172-0.152-0.172-0.354 0-0.193 0.088-0.391 0.098-0.412l1.033-2.287c-0.193-0.078-0.527-0.211-0.785-0.324l-0.068-0.029c-0.262-0.111-0.588-0.25-0.588-0.607 0-0.172 0.081-0.373 0.249-0.609 0.495-0.705 2.614-2.889 2.705-2.982 0.103-0.127 0.39-0.342 0.663-0.166 0.078 0.051 0.171 0.154 0.171 0.354 0 0.193-0.088 0.391-0.098 0.414l-1.034 2.285c0.195 0.078 0.528 0.213 0.787 0.324l0.068 0.029c0.262 0.111 0.588 0.25 0.588 0.609 0 0.172-0.082 0.371-0.25 0.609z"></path>
</svg>
