<!-- Generated by IcoMoon.io -->
<svg version="1.1" xmlns="http://www.w3.org/2000/svg" width="20" height="20" viewBox="0 0 20 20">
<title>vk-with-circle</title>
<path d="M10 0.4c-5.302 0-9.6 4.298-9.6 9.6s4.298 9.6 9.6 9.6 9.6-4.298 9.6-9.6-4.298-9.6-9.6-9.6zM13.692 11.231c0 0 0.849 0.838 1.058 1.227 0.006 0.008 0.009 0.016 0.011 0.020 0.085 0.143 0.105 0.254 0.063 0.337-0.070 0.138-0.31 0.206-0.392 0.212 0 0-1.458 0-1.5 0-0.104 0-0.322-0.027-0.586-0.209-0.203-0.142-0.403-0.375-0.598-0.602-0.291-0.338-0.543-0.63-0.797-0.63-0.032 0-0.065 0.005-0.095 0.015-0.192 0.062-0.438 0.336-0.438 1.066 0 0.228-0.18 0.359-0.307 0.359 0 0-0.655 0-0.687 0-0.234 0-1.453-0.082-2.533-1.221-1.322-1.395-2.512-4.193-2.522-4.219-0.075-0.181 0.080-0.278 0.249-0.278h1.515c0.202 0 0.268 0.123 0.314 0.232 0.054 0.127 0.252 0.632 0.577 1.2 0.527 0.926 0.85 1.302 1.109 1.302 0.049 0 0.094-0.013 0.139-0.036 0.338-0.188 0.275-1.393 0.26-1.643 0-0.047-0.001-0.539-0.174-0.775-0.124-0.171-0.335-0.236-0.463-0.26 0.033-0.049 0.107-0.124 0.199-0.169 0.232-0.116 0.65-0.133 1.065-0.133h0.231c0.45 0.006 0.566 0.035 0.729 0.076 0.33 0.079 0.337 0.292 0.308 1.021-0.009 0.207-0.018 0.441-0.018 0.717 0 0.060-0.003 0.124-0.003 0.192-0.010 0.371-0.022 0.792 0.24 0.965 0.034 0.021 0.073 0.033 0.114 0.033 0.091 0 0.365 0 1.107-1.273 0.325-0.562 0.577-1.225 0.595-1.274 0.015-0.026 0.059-0.106 0.111-0.137 0.041-0.024 0.096-0.029 0.124-0.029h1.781c0.194 0 0.327 0.029 0.352 0.104 0.044 0.119-0.008 0.482-0.821 1.583-0.137 0.182-0.258 0.341-0.363 0.479-0.737 0.966-0.737 1.015 0.046 1.748z"></path>
</svg>
