<!-- Generated by IcoMoon.io -->
<svg version="1.1" xmlns="http://www.w3.org/2000/svg" width="20" height="20" viewBox="0 0 20 20">
<title>xing</title>
<path d="M17.703 1h-2.828c-0.223 0-0.553 0.105-0.69 0.381s-0.31 0.619-0.31 0.619l-5 10 3 6c0 0 0.172 0.344 0.31 0.619s0.467 0.381 0.69 0.381h2.828c0.5 0 0.48-0.381 0.355-0.631s-0.183-0.369-0.183-0.369l-3-6 5-10c0 0 0.059-0.119 0.184-0.369s0.144-0.631-0.356-0.631zM6.815 5.381c-0.137-0.276-0.467-0.381-0.69-0.381h-2.828c-0.5 0-0.48 0.381-0.355 0.631s0.183 0.369 0.183 0.369l1.25 2.5-2.25 4.5c0 0-0.059 0.119-0.184 0.369s-0.144 0.631 0.356 0.631h2.828c0.223 0 0.553-0.106 0.691-0.381s0.309-0.619 0.309-0.619l2.25-4.5-1.25-2.5c0 0-0.172-0.344-0.31-0.619z"></path>
</svg>
