<svg xmlns="http://www.w3.org/2000/svg" width="48" height="48"><path fill="none" d="M0 0h48v48H0z"/><circle fill="#FDD835" cx="24" cy="24" r="20"/><path fill="#FFF" fill-opacity=".1" d="M24 4.25c11 0 19.93 8.89 20 19.88v-.12c0-11.05-8.95-20-20-20S4 12.95 4 24v.12c.07-10.98 9-19.87 20-19.87z"/><path fill="#BF360C" fill-opacity=".1" d="M44 23.88c-.07 10.98-9 19.87-20 19.87S4.07 34.86 4 23.88V24c0 11.05 8.95 20 20 20s20-8.95 20-20v-.12z"/><radialGradient id="a" cx="9.9725" cy="10.1156" r="39.7943" gradientUnits="userSpaceOnUse"><stop offset="0" stop-color="#fff" stop-opacity=".1"/><stop offset="1" stop-color="#fff" stop-opacity="0"/></radialGradient><circle fill="url(#a)" cx="24" cy="24" r="20"/></svg>