<svg xmlns="http://www.w3.org/2000/svg" xmlns:xlink="http://www.w3.org/1999/xlink" width="48" height="48"><path fill="none" d="M0 0h48v48H0z"/><defs><path id="a" d="M20 15c0-4 1.25-7.75 3.25-11C12.5 4.5 4 13.25 4 24c0 11 9 20 20 20 7 0 13-3.5 16.75-9C29 35 20 26.25 20 15z"/></defs><clipPath id="b"><use xlink:href="#a" overflow="visible"/></clipPath><path clip-path="url(#b)" fill="#C6DAFC" d="M20 15c0-4 1.25-7.75 3.25-11C12.5 4.5 4 13.25 4 24c0 11 9 20 20 20 7 0 13-3.5 16.75-9C29 35 20 26.25 20 15z"/><path clip-path="url(#b)" fill="#1A237E" fill-opacity=".1" d="M23.25 4l-.31.27C21.12 7.4 20 10.96 20 14.75v.11c.03-3.95 1.27-7.65 3.25-10.86zM40.4 35.25c-3.77 5.21-9.61 8.5-16.4 8.5-10.96 0-19.93-8.93-20-19.88V24c0 11 9 20 20 20 7 0 13-3.5 16.75-9l-.35.25z"/><path clip-path="url(#b)" fill="#FFF" fill-opacity=".2" d="M20 15.11v.14c0 11.14 8.82 19.82 20.4 19.99l.35-.24C29.04 35 20.06 26.31 20 15.11zM23.25 4C12.5 4.5 4 13.25 4 24v.12c.07-10.59 8.38-19.2 18.94-19.85l.31-.27z"/><radialGradient id="c" cx="9.8953" cy="9.9493" r="39.9321" gradientUnits="userSpaceOnUse"><stop offset="0" stop-color="#fff" stop-opacity=".1"/><stop offset="1" stop-color="#fff" stop-opacity="0"/></radialGradient><path fill="url(#c)" d="M20 15c0-4 1.25-7.75 3.25-11C12.5 4.5 4 13.25 4 24c0 11 9 20 20 20 7 0 13-3.5 16.75-9C29 35 20 26.25 20 15z"/></svg>