<svg xmlns="http://www.w3.org/2000/svg" xmlns:xlink="http://www.w3.org/1999/xlink" width="48" height="48"><path fill="none" d="M0 0h48v48H0z"/><defs><path id="a" d="M33.01 33c-2.45 0-3.96.76-5.29 1.44-1.17.59-2.1 1.06-3.71 1.06s-2.54-.47-3.71-1.06c-1.33-.68-2.84-1.44-5.29-1.44s-3.96.76-5.29 1.44c-1.17.59-2.1 1.06-3.71 1.06V39c2.45 0 3.96-.76 5.29-1.44 1.17-.59 2.1-1.06 3.71-1.06s2.54.47 3.71 1.06c1.33.67 2.84 1.44 5.29 1.44s3.96-.76 5.29-1.44c1.17-.59 2.1-1.06 3.71-1.06 1.61 0 2.54.47 3.71 1.06 1.33.67 2.84 1.44 5.29 1.44v-3.5c-1.61 0-2.54-.47-3.71-1.06-1.33-.68-2.84-1.44-5.29-1.44zm0-8c-2.45 0-3.96.76-5.29 1.44-1.17.59-2.1 1.06-3.71 1.06s-2.54-.47-3.71-1.06c-1.33-.68-2.84-1.44-5.29-1.44s-3.96.76-5.29 1.44c-1.17.59-2.1 1.06-3.71 1.06V31c2.45 0 3.96-.76 5.29-1.44 1.17-.59 2.1-1.06 3.71-1.06s2.54.47 3.71 1.06c1.33.67 2.84 1.44 5.29 1.44s3.96-.76 5.29-1.44c1.17-.59 2.1-1.06 3.71-1.06 1.61 0 2.54.47 3.71 1.06 1.33.67 2.84 1.44 5.29 1.44v-3.5c-1.61 0-2.54-.47-3.71-1.06-1.33-.68-2.84-1.44-5.29-1.44zm5.29-14.56C36.97 9.76 35.46 9 33.01 9s-3.96.76-5.29 1.44c-1.17.59-2.1 1.06-3.71 1.06s-2.54-.47-3.71-1.06C18.97 9.76 17.46 9 15.01 9s-3.96.76-5.29 1.44c-1.17.59-2.1 1.06-3.71 1.06V15c2.45 0 3.96-.76 5.29-1.44 1.17-.59 2.1-1.06 3.71-1.06s2.54.47 3.71 1.06c1.33.67 2.84 1.44 5.29 1.44s3.96-.76 5.29-1.44c1.17-.59 2.1-1.06 3.71-1.06 1.61 0 2.54.47 3.71 1.06 1.33.67 2.84 1.44 5.29 1.44v-3.5c-1.61 0-2.54-.47-3.71-1.06zM33.01 17c-2.45 0-3.96.76-5.29 1.44-1.17.59-2.1 1.06-3.71 1.06s-2.54-.47-3.71-1.06c-1.33-.68-2.84-1.44-5.29-1.44s-3.96.76-5.29 1.44c-1.17.59-2.1 1.06-3.71 1.06V23c2.45 0 3.96-.76 5.29-1.44 1.17-.59 2.1-1.06 3.71-1.06s2.54.47 3.71 1.06c1.33.67 2.84 1.44 5.29 1.44s3.96-.76 5.29-1.44c1.17-.59 2.1-1.06 3.71-1.06 1.61 0 2.54.47 3.71 1.06 1.33.67 2.84 1.44 5.29 1.44v-3.5c-1.61 0-2.54-.47-3.71-1.06-1.33-.68-2.84-1.44-5.29-1.44z"/></defs><clipPath id="b"><use xlink:href="#a" overflow="visible"/></clipPath><path clip-path="url(#b)" fill="#BDBDBD" d="M38.3 10.44C36.97 9.76 35.46 9 33.01 9s-3.96.76-5.29 1.44c-1.17.59-2.1 1.06-3.71 1.06s-2.54-.47-3.71-1.06C18.97 9.76 17.46 9 15.01 9s-3.96.76-5.29 1.44c-1.17.59-2.1 1.06-3.71 1.06V15c2.45 0 3.96-.76 5.29-1.44 1.17-.59 2.1-1.06 3.71-1.06s2.54.47 3.71 1.06c1.33.67 2.84 1.44 5.29 1.44s3.96-.76 5.29-1.44c1.17-.59 2.1-1.06 3.71-1.06 1.61 0 2.54.47 3.71 1.06 1.33.67 2.84 1.44 5.29 1.44v-3.5c-1.61 0-2.54-.47-3.71-1.06zM33.01 33c-2.45 0-3.96.76-5.29 1.44-1.17.59-2.1 1.06-3.71 1.06s-2.54-.47-3.71-1.06c-1.33-.68-2.84-1.44-5.29-1.44s-3.96.76-5.29 1.44c-1.17.59-2.1 1.06-3.71 1.06V39c2.45 0 3.96-.76 5.29-1.44 1.17-.59 2.1-1.06 3.71-1.06s2.54.47 3.71 1.06c1.33.67 2.84 1.44 5.29 1.44s3.96-.76 5.29-1.44c1.17-.59 2.1-1.06 3.71-1.06 1.61 0 2.54.47 3.71 1.06 1.33.67 2.84 1.44 5.29 1.44v-3.5c-1.61 0-2.54-.47-3.71-1.06-1.33-.68-2.84-1.44-5.29-1.44zm0-8c-2.45 0-3.96.76-5.29 1.44-1.17.59-2.1 1.06-3.71 1.06s-2.54-.47-3.71-1.06c-1.33-.68-2.84-1.44-5.29-1.44s-3.96.76-5.29 1.44c-1.17.59-2.1 1.06-3.71 1.06V31c2.45 0 3.96-.76 5.29-1.44 1.17-.59 2.1-1.06 3.71-1.06s2.54.47 3.71 1.06c1.33.67 2.84 1.44 5.29 1.44s3.96-.76 5.29-1.44c1.17-.59 2.1-1.06 3.71-1.06 1.61 0 2.54.47 3.71 1.06 1.33.67 2.84 1.44 5.29 1.44v-3.5c-1.61 0-2.54-.47-3.71-1.06-1.33-.68-2.84-1.44-5.29-1.44zm0-8c-2.45 0-3.96.76-5.29 1.44-1.17.59-2.1 1.06-3.71 1.06s-2.54-.47-3.71-1.06c-1.33-.68-2.84-1.44-5.29-1.44s-3.96.76-5.29 1.44c-1.17.59-2.1 1.06-3.71 1.06V23c2.45 0 3.96-.76 5.29-1.44 1.17-.59 2.1-1.06 3.71-1.06s2.54.47 3.71 1.06c1.33.67 2.84 1.44 5.29 1.44s3.96-.76 5.29-1.44c1.17-.59 2.1-1.06 3.71-1.06 1.61 0 2.54.47 3.71 1.06 1.33.67 2.84 1.44 5.29 1.44v-3.5c-1.61 0-2.54-.47-3.71-1.06-1.33-.68-2.84-1.44-5.29-1.44z"/><path clip-path="url(#b)" fill="#FFF" fill-opacity=".2" d="M33.01 25c-2.45 0-3.96.76-5.29 1.44-1.17.59-2.1 1.06-3.71 1.06s-2.54-.47-3.71-1.06c-1.33-.68-2.84-1.44-5.29-1.44s-3.96.76-5.29 1.44c-1.17.59-2.1 1.06-3.71 1.06v.25c1.61 0 2.54-.47 3.71-1.06 1.33-.67 2.84-1.44 5.29-1.44s3.96.76 5.29 1.44c1.17.59 2.1 1.06 3.71 1.06s2.54-.47 3.71-1.06c1.33-.67 2.84-1.44 5.29-1.44s3.96.76 5.29 1.44c1.17.59 2.1 1.06 3.71 1.06v-.25c-1.61 0-2.54-.47-3.71-1.06-1.33-.68-2.84-1.44-5.29-1.44zm0 8c-2.45 0-3.96.76-5.29 1.44-1.17.59-2.1 1.06-3.71 1.06s-2.54-.47-3.71-1.06c-1.33-.68-2.84-1.44-5.29-1.44s-3.96.76-5.29 1.44c-1.17.59-2.1 1.06-3.71 1.06v.25c1.61 0 2.54-.47 3.71-1.06 1.33-.67 2.84-1.44 5.29-1.44s3.96.76 5.29 1.44c1.17.59 2.1 1.06 3.71 1.06s2.54-.47 3.71-1.06c1.33-.67 2.84-1.44 5.29-1.44s3.96.76 5.29 1.44c1.17.59 2.1 1.06 3.71 1.06v-.25c-1.61 0-2.54-.47-3.71-1.06-1.33-.68-2.84-1.44-5.29-1.44zm5.29-22.56C36.97 9.76 35.46 9 33.01 9s-3.96.76-5.29 1.44c-1.17.59-2.1 1.06-3.71 1.06s-2.54-.47-3.71-1.06C18.97 9.76 17.46 9 15.01 9s-3.96.76-5.29 1.44c-1.17.59-2.1 1.06-3.71 1.06v.25c1.61 0 2.54-.47 3.71-1.06 1.33-.67 2.84-1.44 5.29-1.44s3.96.76 5.29 1.44c1.17.59 2.1 1.06 3.71 1.06s2.54-.47 3.71-1.06c1.33-.67 2.84-1.44 5.29-1.44s3.96.76 5.29 1.44c1.17.59 2.1 1.06 3.71 1.06v-.25c-1.61 0-2.54-.47-3.71-1.06zM33.01 17c-2.45 0-3.96.76-5.29 1.44-1.17.59-2.1 1.06-3.71 1.06s-2.54-.47-3.71-1.06c-1.33-.68-2.84-1.44-5.29-1.44s-3.96.76-5.29 1.44c-1.17.59-2.1 1.06-3.71 1.06v.25c1.61 0 2.54-.47 3.71-1.06 1.33-.67 2.84-1.44 5.29-1.44s3.96.76 5.29 1.44c1.17.59 2.1 1.06 3.71 1.06s2.54-.47 3.71-1.06c1.33-.67 2.84-1.44 5.29-1.44s3.96.76 5.29 1.44c1.17.59 2.1 1.06 3.71 1.06v-.25c-1.61 0-2.54-.47-3.71-1.06-1.33-.68-2.84-1.44-5.29-1.44z"/><path clip-path="url(#b)" fill="#212121" fill-opacity=".1" d="M33.01 28.25c-1.61 0-2.54.47-3.71 1.06-1.33.67-2.84 1.44-5.29 1.44s-3.96-.76-5.29-1.44c-1.17-.59-2.1-1.06-3.71-1.06s-2.54.47-3.71 1.06c-1.33.67-2.84 1.44-5.29 1.44V31c2.45 0 3.96-.76 5.29-1.44 1.17-.59 2.1-1.06 3.71-1.06s2.54.47 3.71 1.06c1.33.67 2.84 1.44 5.29 1.44s3.96-.76 5.29-1.44c1.17-.59 2.1-1.06 3.71-1.06 1.61 0 2.54.47 3.71 1.06 1.33.67 2.84 1.44 5.29 1.44v-.25c-2.45 0-3.96-.76-5.29-1.44-1.17-.59-2.09-1.06-3.71-1.06zm0 8c-1.61 0-2.54.47-3.71 1.06-1.33.67-2.84 1.44-5.29 1.44s-3.96-.76-5.29-1.44c-1.17-.59-2.1-1.06-3.71-1.06s-2.54.47-3.71 1.06c-1.33.67-2.84 1.44-5.29 1.44V39c2.45 0 3.96-.76 5.29-1.44 1.17-.59 2.1-1.06 3.71-1.06s2.54.47 3.71 1.06c1.33.67 2.84 1.44 5.29 1.44s3.96-.76 5.29-1.44c1.17-.59 2.1-1.06 3.71-1.06 1.61 0 2.54.47 3.71 1.06 1.33.67 2.84 1.44 5.29 1.44v-.25c-2.45 0-3.96-.76-5.29-1.44-1.17-.59-2.09-1.06-3.71-1.06zm3.71-22.94c-1.17-.59-2.1-1.06-3.71-1.06-1.61 0-2.54.47-3.71 1.06-1.33.67-2.84 1.44-5.29 1.44s-3.96-.76-5.29-1.44c-1.17-.59-2.1-1.06-3.71-1.06s-2.54.47-3.71 1.06c-1.33.67-2.84 1.44-5.29 1.44V15c2.45 0 3.96-.76 5.29-1.44 1.17-.59 2.1-1.06 3.71-1.06s2.54.47 3.71 1.06c1.33.67 2.84 1.44 5.29 1.44s3.96-.76 5.29-1.44c1.17-.59 2.1-1.06 3.71-1.06 1.61 0 2.54.47 3.71 1.06 1.33.67 2.84 1.44 5.29 1.44v-.25c-2.45 0-3.96-.76-5.29-1.44zm-3.71 6.94c-1.61 0-2.54.47-3.71 1.06-1.33.67-2.84 1.44-5.29 1.44s-3.96-.76-5.29-1.44c-1.17-.59-2.1-1.06-3.71-1.06s-2.54.47-3.71 1.06c-1.33.67-2.84 1.44-5.29 1.44V23c2.45 0 3.96-.76 5.29-1.44 1.17-.59 2.1-1.06 3.71-1.06s2.54.47 3.71 1.06c1.33.67 2.84 1.44 5.29 1.44s3.96-.76 5.29-1.44c1.17-.59 2.1-1.06 3.71-1.06 1.61 0 2.54.47 3.71 1.06 1.33.67 2.84 1.44 5.29 1.44v-.25c-2.45 0-3.96-.76-5.29-1.44-1.17-.59-2.09-1.06-3.71-1.06z"/><radialGradient id="c" cx="6.1564" cy="11.5964" r="44.9817" gradientUnits="userSpaceOnUse"><stop offset="0" stop-color="#fff" stop-opacity=".1"/><stop offset="1" stop-color="#fff" stop-opacity="0"/></radialGradient><path fill="url(#c)" d="M38.3 10.44C36.97 9.76 35.46 9 33.01 9s-3.96.76-5.29 1.44c-1.17.59-2.1 1.06-3.71 1.06s-2.54-.47-3.71-1.06C18.97 9.76 17.46 9 15.01 9s-3.96.76-5.29 1.44c-1.17.59-2.1 1.06-3.71 1.06V15c2.45 0 3.96-.76 5.29-1.44 1.17-.59 2.1-1.06 3.71-1.06s2.54.47 3.71 1.06c1.33.67 2.84 1.44 5.29 1.44s3.96-.76 5.29-1.44c1.17-.59 2.1-1.06 3.71-1.06 1.61 0 2.54.47 3.71 1.06 1.33.67 2.84 1.44 5.29 1.44v-3.5c-1.61 0-2.54-.47-3.71-1.06zM33.01 33c-2.45 0-3.96.76-5.29 1.44-1.17.59-2.1 1.06-3.71 1.06s-2.54-.47-3.71-1.06c-1.33-.68-2.84-1.44-5.29-1.44s-3.96.76-5.29 1.44c-1.17.59-2.1 1.06-3.71 1.06V39c2.45 0 3.96-.76 5.29-1.44 1.17-.59 2.1-1.06 3.71-1.06s2.54.47 3.71 1.06c1.33.67 2.84 1.44 5.29 1.44s3.96-.76 5.29-1.44c1.17-.59 2.1-1.06 3.71-1.06 1.61 0 2.54.47 3.71 1.06 1.33.67 2.84 1.44 5.29 1.44v-3.5c-1.61 0-2.54-.47-3.71-1.06-1.33-.68-2.84-1.44-5.29-1.44zm0-8c-2.45 0-3.96.76-5.29 1.44-1.17.59-2.1 1.06-3.71 1.06s-2.54-.47-3.71-1.06c-1.33-.68-2.84-1.44-5.29-1.44s-3.96.76-5.29 1.44c-1.17.59-2.1 1.06-3.71 1.06V31c2.45 0 3.96-.76 5.29-1.44 1.17-.59 2.1-1.06 3.71-1.06s2.54.47 3.71 1.06c1.33.67 2.84 1.44 5.29 1.44s3.96-.76 5.29-1.44c1.17-.59 2.1-1.06 3.71-1.06 1.61 0 2.54.47 3.71 1.06 1.33.67 2.84 1.44 5.29 1.44v-3.5c-1.61 0-2.54-.47-3.71-1.06-1.33-.68-2.84-1.44-5.29-1.44zm0-8c-2.45 0-3.96.76-5.29 1.44-1.17.59-2.1 1.06-3.71 1.06s-2.54-.47-3.71-1.06c-1.33-.68-2.84-1.44-5.29-1.44s-3.96.76-5.29 1.44c-1.17.59-2.1 1.06-3.71 1.06V23c2.45 0 3.96-.76 5.29-1.44 1.17-.59 2.1-1.06 3.71-1.06s2.54.47 3.71 1.06c1.33.67 2.84 1.44 5.29 1.44s3.96-.76 5.29-1.44c1.17-.59 2.1-1.06 3.71-1.06 1.61 0 2.54.47 3.71 1.06 1.33.67 2.84 1.44 5.29 1.44v-3.5c-1.61 0-2.54-.47-3.71-1.06-1.33-.68-2.84-1.44-5.29-1.44z"/></svg>