<svg xmlns="http://www.w3.org/2000/svg" xmlns:xlink="http://www.w3.org/1999/xlink" width="48" height="48"><path fill="none" d="M0 0h48v48H0z"/><defs><path id="a" d="M19.01 42h5.49c0-1.47.43-2.84 1.16-4H17c0 1.64.79 3.09 2.01 4zM42 6H5v4h33l4-4zM19 34h13l4-4H19v4zm-2.1-8H38c.87-1.16 1.5-2.52 1.8-4H12.9l4 4zM6.67 14c.62 1.43 1.41 2.77 2.33 4h30.8c-.3-1.48-.93-2.84-1.8-4H6.67z"/></defs><clipPath id="b"><use xlink:href="#a" overflow="visible"/></clipPath><path clip-path="url(#b)" fill="#BDBDBD" d="M19 34h13l4-4H19v4zm.01 8h5.49c0-1.47.43-2.84 1.16-4H17c0 1.64.79 3.09 2.01 4zM42 6H5v4h33l4-4zM6.67 14c.62 1.43 1.41 2.77 2.33 4h30.8c-.3-1.48-.93-2.84-1.8-4H6.67zM16.9 26H38c.87-1.16 1.5-2.52 1.8-4H12.9l4 4z"/><g opacity=".2" clip-path="url(#b)" fill="#FFF"><path d="M19 30.25h16.51L36 30H19zM39.68 22.25H13.4l-.5-.25h26.9zM17 38l.03.25h8.34l.29-.25zM6.67 14H38c.87 1.16 1.5 2.52 1.8 4l-.12-.25c-.33-1.29-.9-2.47-1.68-3.5H6.9L6.67 14zM5 6v.25h36.5L42 6z"/></g><path clip-path="url(#b)" fill="#212121" fill-opacity=".1" d="M24.5 41.75h-5.49c-1.09-.82-1.84-2.07-1.98-3.5L17 38c0 1.64.79 3.09 2.01 4h5.49c0-1.47.43-2.84 1.16-4l-.28.25c-.56 1.05-.88 2.23-.88 3.5zM42 6l-.5.25-3.5 3.5H5V10h33l4-4zM32 33.75H19V34h13l4-4-.51.26L32 33.75zm7.68-11.5c-.33 1.28-.91 2.47-1.68 3.5H16.9l-3.5-3.5-.5-.25 4 4H38c.87-1.16 1.5-2.52 1.8-4l-.12.25zM6.67 14c.62 1.43 1.41 2.77 2.33 4h30.8l-.12-.25H9c-.82-1.09-1.52-2.26-2.1-3.5L6.67 14z"/><radialGradient id="c" cx="4.894" cy="5.907" r="38.8348" gradientUnits="userSpaceOnUse"><stop offset="0" stop-color="#fff" stop-opacity=".1"/><stop offset="1" stop-color="#fff" stop-opacity="0"/></radialGradient><path fill="url(#c)" d="M19.01 42h5.49c0-1.47.43-2.84 1.16-4H17c0 1.64.79 3.09 2.01 4zM42 6H5v4h33l4-4zM19 34h13l4-4H19v4zm-2.1-8H38c.87-1.16 1.5-2.52 1.8-4H12.9l4 4zM6.67 14c.62 1.43 1.41 2.77 2.33 4h30.8c-.3-1.48-.93-2.84-1.8-4H6.67z"/></svg>