<svg xmlns="http://www.w3.org/2000/svg" xmlns:xlink="http://www.w3.org/1999/xlink" width="48" height="48"><path fill="none" d="M0 0h48v48H0z"/><defs><path id="a" d="M32 14c0-3.31-2.69-6-6-6h-2v4h2c1.1 0 2 .9 2 2s-.9 2-2 2H5v4h21c3.31 0 6-2.69 6-6zm5 8H5v4h32c1.1 0 2 .9 2 2s-.9 2-2 2h-2v4h2c3.31 0 6-2.69 6-6s-2.69-6-6-6zm-19 6H5v4h13c1.1 0 2 .9 2 2s-.9 2-2 2h-2v4h2c3.31 0 6-2.69 6-6s-2.69-6-6-6z"/></defs><clipPath id="b"><use xlink:href="#a" overflow="visible"/></clipPath><path clip-path="url(#b)" fill="#BDBDBD" d="M32 14c0-3.31-2.69-6-6-6h-2v4h2c1.1 0 2 .9 2 2s-.9 2-2 2H5v4h21c3.31 0 6-2.69 6-6zM18 28H5v4h13c1.1 0 2 .9 2 2s-.9 2-2 2h-2v4h2c3.31 0 6-2.69 6-6s-2.69-6-6-6zm19-6H5v4h32c1.1 0 2 .9 2 2s-.9 2-2 2h-2v4h2c3.31 0 6-2.69 6-6s-2.69-6-6-6z"/><path clip-path="url(#b)" fill="#FFF" fill-opacity=".2" d="M28 14.25c0-.04 0-.08-.01-.12C27.93 15.17 27.06 16 26 16H5v.25h21c1.1 0 2-.9 2-2zm4-.13V14c0-3.31-2.69-6-6-6h-2v.25h2c3.27 0 5.93 2.62 6 5.87zM18 36h-2v.25h2c1.1 0 2-.9 2-2 0-.04 0-.08-.01-.12C19.93 35.17 19.06 36 18 36zm19-6h-2v.25h2c1.1 0 2-.9 2-2 0-.04 0-.08-.01-.12C38.93 29.17 38.06 30 37 30zm0-8H5v.25h32c3.27 0 5.93 2.62 6 5.88v-.12c0-3.32-2.69-6.01-6-6.01zm-19 6H5v.25h13c3.27 0 5.93 2.62 6 5.88v-.12c0-3.32-2.69-6.01-6-6.01z"/><path clip-path="url(#b)" fill="#212121" fill-opacity=".1" d="M32 14v-.12c-.07 3.26-2.72 5.88-6 5.88H5V20h21c3.31 0 6-2.69 6-6zm-4.01-.12c0-.04.01-.08.01-.12 0-1.1-.9-2-2-2h-2V12h2c1.06 0 1.93.83 1.99 1.88zm11 14c0-.04.01-.08.01-.12 0-1.1-.9-2-2-2H5V26h32c1.06 0 1.93.83 1.99 1.88zm4.01 0c-.07 3.26-2.72 5.88-6 5.88h-2V34h2c3.31 0 6-2.69 6-6v-.12zM18 39.75h-2V40h2c3.31 0 6-2.69 6-6v-.12c-.07 3.25-2.73 5.87-6 5.87zm1.99-5.87c0-.04.01-.08.01-.12 0-1.1-.9-2-2-2H5V32h13c1.06 0 1.93.83 1.99 1.88z"/><radialGradient id="c" cx="5.0136" cy="15.9249" r="40.2258" gradientUnits="userSpaceOnUse"><stop offset="0" stop-color="#fff" stop-opacity=".1"/><stop offset="1" stop-color="#fff" stop-opacity="0"/></radialGradient><path fill="url(#c)" d="M32 14c0-3.31-2.69-6-6-6h-2v4h2c1.1 0 2 .9 2 2s-.9 2-2 2H5v4h21c3.31 0 6-2.69 6-6zm5 8H5v4h32c1.1 0 2 .9 2 2s-.9 2-2 2h-2v4h2c3.31 0 6-2.69 6-6s-2.69-6-6-6zm-19 6H5v4h13c1.1 0 2 .9 2 2s-.9 2-2 2h-2v4h2c3.31 0 6-2.69 6-6s-2.69-6-6-6z"/></svg>