<?xml version="1.0" encoding="utf-8"?>
<!-- Generator: Adobe Illustrator 24.0.1, SVG Export Plug-In . SVG Version: 6.00 Build 0)  -->
<svg version="1.1" id="Layer_1" xmlns="http://www.w3.org/2000/svg" xmlns:xlink="http://www.w3.org/1999/xlink" x="0px" y="0px"
	 viewBox="0 0 1008 301.1" style="enable-background:new 0 0 1008 301.1;" xml:space="preserve">
<style type="text/css">
	.st0{fill:#11B0C8;}
	.st1{fill:none;stroke:#87C95E;stroke-width:6;stroke-miterlimit:10;}
	.st2{fill:none;stroke:#000000;stroke-miterlimit:10;}
</style>
<g>
	<g>
		<polyline class="st0" points="871.4,266.6 871.4,267.2 869.7,267.2 869.7,271.7 869,271.7 869,267.2 867.3,267.2 867.3,266.6 		
			"/>
		<polyline class="st0" points="871.9,266.6 872.9,266.6 874.4,270.9 875.8,266.6 876.8,266.6 876.8,271.7 876.2,271.7 876.2,268.7 
			876.2,268.2 876.2,267.4 874.7,271.7 874,271.7 872.5,267.4 872.5,267.6 872.5,268.2 872.5,271.7 871.9,271.7 		"/>
	</g>
	<g>
		<g>
			<g>
				<path class="st1" d="M687.5,256.3c0.4-5.3-1.1-9.9-3.9-14.2c-2.9-4.4-4.4-9.2-2.2-14.5l0.3-1.2c1.3-4.8,0.7-9.2-2.8-12.8
					c-2.6-2.8-3.4-5.9-2.6-9.5c1-4.8,0.7-9.2-2.2-13.5c-2.5-3.7-2.9-7.8-0.9-12.2c1.7-3.7,2.8-7.7,3.8-11.6c0.8-3.1,0.8-6.3-0.3-9.3
					c-0.9-2.4-0.7-4.6-0.1-7c0.6-2.5,1-5.1,1.3-7.7c0.3-2-0.4-3.7-1.9-5.1c-1.9-1.8-2.6-4-2.3-6.5c0.4-2.9,0.9-5.8-0.6-8.6
					c-0.3-0.5-0.1-1.2-0.1-1.9c0.4-5-0.9-9.7-2.9-14.3c-1.1-2.6-1.6-5.4-1.3-8.3c0.6-5.6,0.2-11.1-0.7-16.6
					c-1-5.9-2.7-11.6-3.9-17.4c-0.4-2-0.7-4.1-0.6-6.2c0.3-4.2,0.8-8.3,1.3-12.5c0.7-5,1.9-9.8,4.1-14.4c2.1-4.5,4-9,5.9-13.5
					c0.7-1.6,1.3-3.3,1.7-5.1c0.5-2.1,0.5-4.2-0.8-6.1c-1.7-2.5-3.9-3-6.1-0.9c-1.8,1.7-3.5,3.7-4.7,5.9c-2.3,4.2-5,8.2-8.3,11.8
					c-2.3,2.5-3.2,5.5-3.4,8.9c-0.3,6.6-1.8,12.8-6.6,17.8c-1.4,1.4-2.6,3-3.7,4.7c-1.1,1.6-2.3,3.3-2.9,5.2
					c-1.5,4.3-3.1,8.7-3.9,13.2c-1,6-2.6,11.8-4.2,17.7c-1.3,4.9-3.6,8.9-7,12.4c-2.2,2.2-3.7,4.9-4.6,7.8c-1.1,3.5-2.1,7-3.1,10.5
					c-0.4,1.6-0.7,3.3-0.9,4.9c-0.7,7.9-1.3,15.8-2.1,23.7c-0.2,1.9,0,4-1.3,5.7l-0.6-0.5c-2.1-2.9-2.3-6.2-2.6-9.5
					c-0.7-7.9-1.5-15.8-1.2-23.8c0.1-2.4,0-4.8,0.1-7.2c0.1-2-0.8-3.4-2.2-4.6c-0.6-0.4-1.2-0.9-1.8-1.3c0.1-1.5,0.2-2.9,0.4-4.4
					c0.3-3.5-0.2-6.8-2.5-9.8c-0.8-1-1.2-2.7-1.2-4.1c0-3.5,0.4-7.1,0.6-10.6c0.2-2.9-0.8-5.3-2.9-7.3c-0.5-0.5-1.2-0.9-1.6-1.5
					c-0.6-0.9-1.4-2-1.4-3c0.2-3.4,0.5-6.9,1.1-10.2c0.5-2.6,1.7-5.2,2.5-7.8c1.4-4.7,2.8-9.4,3.9-14.2c0.5-2.4-0.7-4.2-2.7-5.1
					c-2-0.9-3.6-0.7-5.2,1.5c-2.7,3.7-5.3,7.5-7.6,11.5c-1,1.8-1.4,3.9-1.9,5.9c-0.8,3.4-1.6,6.8-4.1,9.3c-2.7,2.8-4.2,6.2-5.2,9.9
					c-0.2,0.6-0.5,1.2-0.8,2.1c-1.7-4.4-2.4-4.8-6.1-4c-0.1-0.6-0.2-1.2-0.4-1.8c-1-2.5-3-2.9-4.8-0.9c-0.8,0.8-1.6,1.8-1.9,2.8
					c-1.4,3.9-2.9,7.9-4,11.9c-1.1,4-1.7,8.2-2.8,12.2c-2.4,8.9-4.1,17.9-8,26.4c-0.5,1-0.6,2.2-0.9,3.3c-1.1,6.1-0.9,12.1,0.3,18.1
					c1.5,7.2,1.4,14.3,0.3,21.5c-0.7,4.7-3.4,8.2-6.4,11.7c-4.7,5.4-6.7,11.7-6.1,18.9c0.3,3.5,1,6.8,2.4,10
					c2.4,5.5,3.3,11.2,1.1,17.1c-0.4,1-0.6,2-0.8,3c-0.3,2.6-0.4,5.1,0.7,7.7c0.7,1.5,1,3.2,1,4.8c0,6.4-0.1,12.8-0.1,19.2
					c0,1.1,0.2,2.3,0.5,3.4c0.4,1.6,1.4,2.9,3,3.3c1.8,0.4,3-0.8,3.9-2.1c1.7-2.3,2.9-4.9,3.2-7.8c0.5-5.2,2.2-10,4.2-14.7
					c0.9-2.2,1.3-4.6,1.4-7c0.3-4.6-0.7-9.2-1.7-13.7c-0.2-1.1-0.4-2.3-0.2-3.4c1-5.4,3-10.4,7.1-14c3.4-3,4.8-6.5,4.2-10.9
					c-0.1-1-0.1-2.1-0.3-3.1c-0.7-3.2-0.3-6.2,0.4-9.3c1-4.3,2-8.6,2.4-12.9c0.6-7.2,1.8-14.3,3.5-21.3c1.2-4.9,1.2-9.7-0.5-14.5
					c-1.7-4.7-1.5-9.4,0.1-14.2c0.8-2.4,1.3-4.9,2-7.2c0.9-2.6,1.5-5.4,3.9-8.1c0.2,1.5,0.5,2.5,0.4,3.5c-0.2,3.1-0.4,6.3-0.7,9.4
					c-0.4,4,0.5,7.5,4.1,9.9c1.6,1,2.4,2.5,2.7,4.4c0.3,1.9,1.2,3.6,2.8,4.3c3.8,1.7,4.4,5,4.8,8.5l0.1,0.9c0.7,6.3,1.8,12.4,5,18
					c1.3,2.3,1.4,5.2,2,7.8c0.4,1.7,0.2,3.6,0.9,5.2c1.3,3.2,1.1,6.3,0.8,9.6c-0.7,6.9,1.2,10.9,7.3,12.2c1.5,0.3,2.4,1.2,2.5,2.8
					c0.2,1.6,0.4,3.1,0.6,4.7c0.5,4.1,1.2,8.1,3.7,11.5c1.5,2,3.4,3.1,6,2.5c2.1-0.5,3.9-2.7,4.1-5.3c0.2-2.4,0.4-4.8,0.3-7.2
					c-0.4-6.5,1.5-12.4,4.6-18c0.9-1.6,1.6-3.5,1.8-5.3c0.5-3.3,0.6-6.7,0.7-10c0.2-6,1.3-11.7,6.1-15.9l0.6-0.7
					c4.4-6,6.8-12.4,5.3-20c-1.2-5.8-0.2-11.4,1.4-17c0.3-1.1,0.7-2.1,1.1-3.2c0.5,1.3,0.5,2.4,0.5,3.6c0,3.5,1.1,6.6,4.1,8.7
					c0.8,0.5,1.4,1.3,2,2c1.5,1.8,2.3,3.7,1.7,6.1c-0.6,2.2-1.2,4.4-1.9,6.6c-1.3,4.3-3.2,8.5-3.9,12.9c-0.9,6.2-0.6,12.5,1.8,18.6
					c0.5,1.2,1,2.6,1.1,3.9c0.2,3,0.2,6.1,0.1,9.1c-0.7,10.2,2.1,19.2,8.7,27.1c1.7,2,1.9,4.2,1.2,6.7c-0.9,3.5-1.4,7.1-1.7,10.8
					c-0.3,3.9,1.3,6.9,5.2,8.4l0.5,0.6c0,2,0,4.1,0,6.1c0,2.8,0.9,5.2,3,7c1.6,1.4,3.3,2.9,5.2,4c1.9,1.2,2.5,2.6,2.2,4.7
					c-0.3,2-0.4,4-0.5,5.9c-0.1,1.7,0.3,3.1,1.9,4c1.5,0.8,2.6-0.1,3.7-0.9l0.6,0l0.4,0.4c1.8,1.8,3,2.2,4.6,1.2
					c1.6-0.9,1.9-2.3,1.4-4.6C687.8,259.1,687.4,257.7,687.5,256.3"/>
				<path class="st0" d="M687.5,256.3c0.4-5.3-1.1-9.9-3.9-14.2c-2.9-4.4-4.4-9.2-2.2-14.5l0.3-1.2c1.3-4.8,0.7-9.2-2.8-12.8
					c-2.6-2.8-3.4-5.9-2.6-9.5c1-4.8,0.7-9.2-2.2-13.5c-2.5-3.7-2.9-7.8-0.9-12.2c1.7-3.7,2.8-7.7,3.8-11.6c0.8-3.1,0.8-6.3-0.3-9.3
					c-0.9-2.4-0.7-4.6-0.1-7c0.6-2.5,1-5.1,1.3-7.7c0.3-2-0.4-3.7-1.9-5.1c-1.9-1.8-2.6-4-2.3-6.5c0.4-2.9,0.9-5.8-0.6-8.6
					c-0.3-0.5-0.1-1.2-0.1-1.9c0.4-5-0.9-9.7-2.9-14.3c-1.1-2.6-1.6-5.4-1.3-8.3c0.6-5.6,0.2-11.1-0.7-16.6
					c-1-5.9-2.7-11.6-3.9-17.4c-0.4-2-0.7-4.1-0.6-6.2c0.3-4.2,0.8-8.3,1.3-12.5c0.7-5,1.9-9.8,4.1-14.4c2.1-4.5,4-9,5.9-13.5
					c0.7-1.6,1.3-3.3,1.7-5.1c0.5-2.1,0.5-4.2-0.8-6.1c-1.7-2.5-3.9-3-6.1-0.9c-1.8,1.7-3.5,3.7-4.7,5.9c-2.3,4.2-5,8.2-8.3,11.8
					c-2.3,2.5-3.2,5.5-3.4,8.9c-0.3,6.6-1.8,12.8-6.6,17.8c-1.4,1.4-2.6,3-3.7,4.7c-1.1,1.6-2.3,3.3-2.9,5.2
					c-1.5,4.3-3.1,8.7-3.9,13.2c-1,6-2.6,11.8-4.2,17.7c-1.3,4.9-3.6,8.9-7,12.4c-2.2,2.2-3.7,4.9-4.6,7.8c-1.1,3.5-2.1,7-3.1,10.5
					c-0.4,1.6-0.7,3.3-0.9,4.9c-0.7,7.9-1.3,15.8-2.1,23.7c-0.2,1.9,0,4-1.3,5.7l-0.6-0.5c-2.1-2.9-2.3-6.2-2.6-9.5
					c-0.7-7.9-1.5-15.8-1.2-23.8c0.1-2.4,0-4.8,0.1-7.2c0.1-2-0.8-3.4-2.2-4.6c-0.6-0.4-1.2-0.9-1.8-1.3c0.1-1.5,0.2-2.9,0.4-4.4
					c0.3-3.5-0.2-6.8-2.5-9.8c-0.8-1-1.2-2.7-1.2-4.1c0-3.5,0.4-7.1,0.6-10.6c0.2-2.9-0.8-5.3-2.9-7.3c-0.5-0.5-1.2-0.9-1.6-1.5
					c-0.6-0.9-1.4-2-1.4-3c0.2-3.4,0.5-6.9,1.1-10.2c0.5-2.6,1.7-5.2,2.5-7.8c1.4-4.7,2.8-9.4,3.9-14.2c0.5-2.4-0.7-4.2-2.7-5.1
					c-2-0.9-3.6-0.7-5.2,1.5c-2.7,3.7-5.3,7.5-7.6,11.5c-1,1.8-1.4,3.9-1.9,5.9c-0.8,3.4-1.6,6.8-4.1,9.3c-2.7,2.8-4.2,6.2-5.2,9.9
					c-0.2,0.6-0.5,1.2-0.8,2.1c-1.7-4.4-2.4-4.8-6.1-4c-0.1-0.6-0.2-1.2-0.4-1.8c-1-2.5-3-2.9-4.8-0.9c-0.8,0.8-1.6,1.8-1.9,2.8
					c-1.4,3.9-2.9,7.9-4,11.9c-1.1,4-1.7,8.2-2.8,12.2c-2.4,8.9-4.1,17.9-8,26.4c-0.5,1-0.6,2.2-0.9,3.3c-1.1,6.1-0.9,12.1,0.3,18.1
					c1.5,7.2,1.4,14.3,0.3,21.5c-0.7,4.7-3.4,8.2-6.4,11.7c-4.7,5.4-6.7,11.7-6.1,18.9c0.3,3.5,1,6.8,2.4,10
					c2.4,5.5,3.3,11.2,1.1,17.1c-0.4,1-0.6,2-0.8,3c-0.3,2.6-0.4,5.1,0.7,7.7c0.7,1.5,1,3.2,1,4.8c0,6.4-0.1,12.8-0.1,19.2
					c0,1.1,0.2,2.3,0.5,3.4c0.4,1.6,1.4,2.9,3,3.3c1.8,0.4,3-0.8,3.9-2.1c1.7-2.3,2.9-4.9,3.2-7.8c0.5-5.2,2.2-10,4.2-14.7
					c0.9-2.2,1.3-4.6,1.4-7c0.3-4.6-0.7-9.2-1.7-13.7c-0.2-1.1-0.4-2.3-0.2-3.4c1-5.4,3-10.4,7.1-14c3.4-3,4.8-6.5,4.2-10.9
					c-0.1-1-0.1-2.1-0.3-3.1c-0.7-3.2-0.3-6.2,0.4-9.3c1-4.3,2-8.6,2.4-12.9c0.6-7.2,1.8-14.3,3.5-21.3c1.2-4.9,1.2-9.7-0.5-14.5
					c-1.7-4.7-1.5-9.4,0.1-14.2c0.8-2.4,1.3-4.9,2-7.2c0.9-2.6,1.5-5.4,3.9-8.1c0.2,1.5,0.5,2.5,0.4,3.5c-0.2,3.1-0.4,6.3-0.7,9.4
					c-0.4,4,0.5,7.5,4.1,9.9c1.6,1,2.4,2.5,2.7,4.4c0.3,1.9,1.2,3.6,2.8,4.3c3.8,1.7,4.4,5,4.8,8.5l0.1,0.9c0.7,6.3,1.8,12.4,5,18
					c1.3,2.3,1.4,5.2,2,7.8c0.4,1.7,0.2,3.6,0.9,5.2c1.3,3.2,1.1,6.3,0.8,9.6c-0.7,6.9,1.2,10.9,7.3,12.2c1.5,0.3,2.4,1.2,2.5,2.8
					c0.2,1.6,0.4,3.1,0.6,4.7c0.5,4.1,1.2,8.1,3.7,11.5c1.5,2,3.4,3.1,6,2.5c2.1-0.5,3.9-2.7,4.1-5.3c0.2-2.4,0.4-4.8,0.3-7.2
					c-0.4-6.5,1.5-12.4,4.6-18c0.9-1.6,1.6-3.5,1.8-5.3c0.5-3.3,0.6-6.7,0.7-10c0.2-6,1.3-11.7,6.1-15.9l0.6-0.7
					c4.4-6,6.8-12.4,5.3-20c-1.2-5.8-0.2-11.4,1.4-17c0.3-1.1,0.7-2.1,1.1-3.2c0.5,1.3,0.5,2.4,0.5,3.6c0,3.5,1.1,6.6,4.1,8.7
					c0.8,0.5,1.4,1.3,2,2c1.5,1.8,2.3,3.7,1.7,6.1c-0.6,2.2-1.2,4.4-1.9,6.6c-1.3,4.3-3.2,8.5-3.9,12.9c-0.9,6.2-0.6,12.5,1.8,18.6
					c0.5,1.2,1,2.6,1.1,3.9c0.2,3,0.2,6.1,0.1,9.1c-0.7,10.2,2.1,19.2,8.7,27.1c1.7,2,1.9,4.2,1.2,6.7c-0.9,3.5-1.4,7.1-1.7,10.8
					c-0.3,3.9,1.3,6.9,5.2,8.4l0.5,0.6c0,2,0,4.1,0,6.1c0,2.8,0.9,5.2,3,7c1.6,1.4,3.3,2.9,5.2,4c1.9,1.2,2.5,2.6,2.2,4.7
					c-0.3,2-0.4,4-0.5,5.9c-0.1,1.7,0.3,3.1,1.9,4c1.5,0.8,2.6-0.1,3.7-0.9l0.6,0l0.4,0.4c1.8,1.8,3,2.2,4.6,1.2
					c1.6-0.9,1.9-2.3,1.4-4.6C687.8,259.1,687.4,257.7,687.5,256.3"/>
				<path class="st2" d="M687.5,256.3c0.4-5.3-1.1-9.9-3.9-14.2c-2.9-4.4-4.4-9.2-2.2-14.5l0.3-1.2c1.3-4.8,0.7-9.2-2.8-12.8
					c-2.6-2.8-3.4-5.9-2.6-9.5c1-4.8,0.7-9.2-2.2-13.5c-2.5-3.7-2.9-7.8-0.9-12.2c1.7-3.7,2.8-7.7,3.8-11.6c0.8-3.1,0.8-6.3-0.3-9.3
					c-0.9-2.4-0.7-4.6-0.1-7c0.6-2.5,1-5.1,1.3-7.7c0.3-2-0.4-3.7-1.9-5.1c-1.9-1.8-2.6-4-2.3-6.5c0.4-2.9,0.9-5.8-0.6-8.6
					c-0.3-0.5-0.1-1.2-0.1-1.9c0.4-5-0.9-9.7-2.9-14.3c-1.1-2.6-1.6-5.4-1.3-8.3c0.6-5.6,0.2-11.1-0.7-16.6
					c-1-5.9-2.7-11.6-3.9-17.4c-0.4-2-0.7-4.1-0.6-6.2c0.3-4.2,0.8-8.3,1.3-12.5c0.7-5,1.9-9.8,4.1-14.4c2.1-4.5,4-9,5.9-13.5
					c0.7-1.6,1.3-3.3,1.7-5.1c0.5-2.1,0.5-4.2-0.8-6.1c-1.7-2.5-3.9-3-6.1-0.9c-1.8,1.7-3.5,3.7-4.7,5.9c-2.3,4.2-5,8.2-8.3,11.8
					c-2.3,2.5-3.2,5.5-3.4,8.9c-0.3,6.6-1.8,12.8-6.6,17.8c-1.4,1.4-2.6,3-3.7,4.7c-1.1,1.6-2.3,3.3-2.9,5.2
					c-1.5,4.3-3.1,8.7-3.9,13.2c-1,6-2.6,11.8-4.2,17.7c-1.3,4.9-3.6,8.9-7,12.4c-2.2,2.2-3.7,4.9-4.6,7.8c-1.1,3.5-2.1,7-3.1,10.5
					c-0.4,1.6-0.7,3.3-0.9,4.9c-0.7,7.9-1.3,15.8-2.1,23.7c-0.2,1.9,0,4-1.3,5.7l-0.6-0.5c-2.1-2.9-2.3-6.2-2.6-9.5
					c-0.7-7.9-1.5-15.8-1.2-23.8c0.1-2.4,0-4.8,0.1-7.2c0.1-2-0.8-3.4-2.2-4.6c-0.6-0.4-1.2-0.9-1.8-1.3c0.1-1.5,0.2-2.9,0.4-4.4
					c0.3-3.5-0.2-6.8-2.5-9.8c-0.8-1-1.2-2.7-1.2-4.1c0-3.5,0.4-7.1,0.6-10.6c0.2-2.9-0.8-5.3-2.9-7.3c-0.5-0.5-1.2-0.9-1.6-1.5
					c-0.6-0.9-1.4-2-1.4-3c0.2-3.4,0.5-6.9,1.1-10.2c0.5-2.6,1.7-5.2,2.5-7.8c1.4-4.7,2.8-9.4,3.9-14.2c0.5-2.4-0.7-4.2-2.7-5.1
					c-2-0.9-3.6-0.7-5.2,1.5c-2.7,3.7-5.3,7.5-7.6,11.5c-1,1.8-1.4,3.9-1.9,5.9c-0.8,3.4-1.6,6.8-4.1,9.3c-2.7,2.8-4.2,6.2-5.2,9.9
					c-0.2,0.6-0.5,1.2-0.8,2.1c-1.7-4.4-2.4-4.8-6.1-4c-0.1-0.6-0.2-1.2-0.4-1.8c-1-2.5-3-2.9-4.8-0.9c-0.8,0.8-1.6,1.8-1.9,2.8
					c-1.4,3.9-2.9,7.9-4,11.9c-1.1,4-1.7,8.2-2.8,12.2c-2.4,8.9-4.1,17.9-8,26.4c-0.5,1-0.6,2.2-0.9,3.3c-1.1,6.1-0.9,12.1,0.3,18.1
					c1.5,7.2,1.4,14.3,0.3,21.5c-0.7,4.7-3.4,8.2-6.4,11.7c-4.7,5.4-6.7,11.7-6.1,18.9c0.3,3.5,1,6.8,2.4,10
					c2.4,5.5,3.3,11.2,1.1,17.1c-0.4,1-0.6,2-0.8,3c-0.3,2.6-0.4,5.1,0.7,7.7c0.7,1.5,1,3.2,1,4.8c0,6.4-0.1,12.8-0.1,19.2
					c0,1.1,0.2,2.3,0.5,3.4c0.4,1.6,1.4,2.9,3,3.3c1.8,0.4,3-0.8,3.9-2.1c1.7-2.3,2.9-4.9,3.2-7.8c0.5-5.2,2.2-10,4.2-14.7
					c0.9-2.2,1.3-4.6,1.4-7c0.3-4.6-0.7-9.2-1.7-13.7c-0.2-1.1-0.4-2.3-0.2-3.4c1-5.4,3-10.4,7.1-14c3.4-3,4.8-6.5,4.2-10.9
					c-0.1-1-0.1-2.1-0.3-3.1c-0.7-3.2-0.3-6.2,0.4-9.3c1-4.3,2-8.6,2.4-12.9c0.6-7.2,1.8-14.3,3.5-21.3c1.2-4.9,1.2-9.7-0.5-14.5
					c-1.7-4.7-1.5-9.4,0.1-14.2c0.8-2.4,1.3-4.9,2-7.2c0.9-2.6,1.5-5.4,3.9-8.1c0.2,1.5,0.5,2.5,0.4,3.5c-0.2,3.1-0.4,6.3-0.7,9.4
					c-0.4,4,0.5,7.5,4.1,9.9c1.6,1,2.4,2.5,2.7,4.4c0.3,1.9,1.2,3.6,2.8,4.3c3.8,1.7,4.4,5,4.8,8.5l0.1,0.9c0.7,6.3,1.8,12.4,5,18
					c1.3,2.3,1.4,5.2,2,7.8c0.4,1.7,0.2,3.6,0.9,5.2c1.3,3.2,1.1,6.3,0.8,9.6c-0.7,6.9,1.2,10.9,7.3,12.2c1.5,0.3,2.4,1.2,2.5,2.8
					c0.2,1.6,0.4,3.1,0.6,4.7c0.5,4.1,1.2,8.1,3.7,11.5c1.5,2,3.4,3.1,6,2.5c2.1-0.5,3.9-2.7,4.1-5.3c0.2-2.4,0.4-4.8,0.3-7.2
					c-0.4-6.5,1.5-12.4,4.6-18c0.9-1.6,1.6-3.5,1.8-5.3c0.5-3.3,0.6-6.7,0.7-10c0.2-6,1.3-11.7,6.1-15.9l0.6-0.7
					c4.4-6,6.8-12.4,5.3-20c-1.2-5.8-0.2-11.4,1.4-17c0.3-1.1,0.7-2.1,1.1-3.2c0.5,1.3,0.5,2.4,0.5,3.6c0,3.5,1.1,6.6,4.1,8.7
					c0.8,0.5,1.4,1.3,2,2c1.5,1.8,2.3,3.7,1.7,6.1c-0.6,2.2-1.2,4.4-1.9,6.6c-1.3,4.3-3.2,8.5-3.9,12.9c-0.9,6.2-0.6,12.5,1.8,18.6
					c0.5,1.2,1,2.6,1.1,3.9c0.2,3,0.2,6.1,0.1,9.1c-0.7,10.2,2.1,19.2,8.7,27.1c1.7,2,1.9,4.2,1.2,6.7c-0.9,3.5-1.4,7.1-1.7,10.8
					c-0.3,3.9,1.3,6.9,5.2,8.4l0.5,0.6c0,2,0,4.1,0,6.1c0,2.8,0.9,5.2,3,7c1.6,1.4,3.3,2.9,5.2,4c1.9,1.2,2.5,2.6,2.2,4.7
					c-0.3,2-0.4,4-0.5,5.9c-0.1,1.7,0.3,3.1,1.9,4c1.5,0.8,2.6-0.1,3.7-0.9l0.6,0l0.4,0.4c1.8,1.8,3,2.2,4.6,1.2
					c1.6-0.9,1.9-2.3,1.4-4.6C687.8,259.1,687.4,257.7,687.5,256.3"/>
			</g>
			<g>
				<path class="st1" d="M1001.9,133.1c-1.5-0.7-2.9-0.4-4.2,0.2c-3.5,1.5-7.1,3-10.6,4.7c-2.2,1.1-4.6,2.3-6.2,4.1
					c-5.2,5.5-12.8,7.5-18.4,12.4l-0.6,0.3c-5,2-10,4.4-15.1,6c-4.5,1.4-9.1,2.3-12.2,6.6c-0.1-1.1,0-2,0.3-2.9
					c0.9-2.5,0.5-4.7-0.8-6.9c-1-1.6-2.1-3.1-3.1-4.7c-0.5-0.8-1.1-1.7-1-2.5c0.1-2.1-0.9-3.5-2-5.1c-0.7-1-1.3-2.4-1.4-3.7
					c-0.2-6.5-0.2-13-0.3-19.4c-0.1-3.3-1.5-5.8-4.3-7.5c-0.8-0.5-1.8-1.4-2-2.3c-1.7-6.3-5.5-12-5.8-18.8c0-0.7-0.2-1.5-0.5-2.1
					c-2.1-5.4-4-10.8-6.3-16.1c-0.9-2.2-2.4-4.2-3.8-6.1c-0.5-0.7-1.9-1.6-2.5-1.4c-0.9,0.3-1.9,1.5-2.1,2.4
					c-0.3,1.7-0.1,3.5-0.1,5.3c0.2,5.4,0.4,10.8,0.6,16.3c-3.4,0.8-4.2,3-4,5.8c0.3,3.6,0.7,7.3,1.1,10.9c0.2,2.1,0.8,4.1,0.8,6.2
					c0.1,4.1,0,8.2,0,12.2c-0.1,4.6,0.7,9,2.6,13.1c1.6,3.5,2.7,7,2.8,10.8c0.1,2,0.2,4,0.1,6c-0.1,2,0.7,3.5,2.2,4.6
					c1,0.8,2.2,1.4,4,2.4c-1.4,4.9-2.6,10-4.2,15c-1.5,4.8-3.5,9.4-2.1,14.6c0.6,2.4-0.3,3.4-2.7,4.2c-1.5,0.5-3,0.8-4.5,1.4
					c-3.8,1.5-7.7,2.8-11.3,4.6c-3.1,1.6-3.3,3.5-1.1,6.3l0.5,0.7l-0.4,0.6c-0.7,0.4-1.4,0.9-2.2,1.2c-4.7,2.5-8.6,6-11.9,10
					c-2.3,2.7-2.3,4.6-0.5,7.4c2.2,3.3,2.1,4.3-0.7,6.9c-3.5,3.2-7.1,6.2-10.6,9.3c-1.6,1.4-3,2.9-3.7,4.9c-0.2,0.7-0.9,1.5-1.5,1.8
					c-3.8,1.4-6.2,4.2-8,7.6c-1.6,3-3.8,5.5-6.9,7.1c-1.7,0.9-3.5,1.4-5.1,2.3c-7.3,4.1-13.3,9.8-19.2,15.5c-1.4,1.3-2.2,3.3-3,5.1
					c-0.8,1.9-1.2,3.8,0.7,5.4c1.6,1.3,3.5,1.3,5.8,0l1.3-0.9c4.2-3.6,8.4-7.2,12.7-10.7c1.6-1.3,3.4-2.6,5.3-3.2
					c3.7-1.2,7.6-2.1,11.5-3c4.2-0.9,7.8-2.7,10.9-5.8c4-4.2,8.3-8.3,12.5-12.4c0.7-0.6,1.4-1.3,2.2-1.8c2.7-1.6,4.7-4,5.8-6.8
					c2-5.1,5.4-9.2,8.8-13.3c1.6-1.8,3.3-3.5,4.7-5.5c0.9-1.2,1.8-2.6,2.1-4.1c1.1-4.5,3.7-7.8,7.6-10.4c5.3-3.5,10.6-7.1,15.9-10.7
					c2.3-1.5,4-3.6,5.3-6.1c0.8-1.6,1.8-3.1,2.9-4.4c3.2-3.9,7.4-6.3,12.3-7.8c7.8-2.3,13.4-7.5,16.9-14.8c0.9-1.9,2.3-3.2,4-4.2
					c1.1-0.7,2.4-1.3,3.7-1.8c3.7-1.4,6.8-3.6,9.8-6.2c1.7-1.5,3.5-3,5.6-4.1c6.1-3.2,11.4-7.4,16.4-12.1c2.9-2.7,5.7-5.6,8.3-8.5
					C1004.7,136,1004.2,134.2,1001.9,133.1"/>
				<path class="st0" d="M1001.9,133.1c-1.5-0.7-2.9-0.4-4.2,0.2c-3.5,1.5-7.1,3-10.6,4.7c-2.2,1.1-4.6,2.3-6.2,4.1
					c-5.2,5.5-12.8,7.5-18.4,12.4l-0.6,0.3c-5,2-10,4.4-15.1,6c-4.5,1.4-9.1,2.3-12.2,6.6c-0.1-1.1,0-2,0.3-2.9
					c0.9-2.5,0.5-4.7-0.8-6.9c-1-1.6-2.1-3.1-3.1-4.7c-0.5-0.8-1.1-1.7-1-2.5c0.1-2.1-0.9-3.5-2-5.1c-0.7-1-1.3-2.4-1.4-3.7
					c-0.2-6.5-0.2-13-0.3-19.4c-0.1-3.3-1.5-5.8-4.3-7.5c-0.8-0.5-1.8-1.4-2-2.3c-1.7-6.3-5.5-12-5.8-18.8c0-0.7-0.2-1.5-0.5-2.1
					c-2.1-5.4-4-10.8-6.3-16.1c-0.9-2.2-2.4-4.2-3.8-6.1c-0.5-0.7-1.9-1.6-2.5-1.4c-0.9,0.3-1.9,1.5-2.1,2.4
					c-0.3,1.7-0.1,3.5-0.1,5.3c0.2,5.4,0.4,10.8,0.6,16.3c-3.4,0.8-4.2,3-4,5.8c0.3,3.6,0.7,7.3,1.1,10.9c0.2,2.1,0.8,4.1,0.8,6.2
					c0.1,4.1,0,8.2,0,12.2c-0.1,4.6,0.7,9,2.6,13.1c1.6,3.5,2.7,7,2.8,10.8c0.1,2,0.2,4,0.1,6c-0.1,2,0.7,3.5,2.2,4.6
					c1,0.8,2.2,1.4,4,2.4c-1.4,4.9-2.6,10-4.2,15c-1.5,4.8-3.5,9.4-2.1,14.6c0.6,2.4-0.3,3.4-2.7,4.2c-1.5,0.5-3,0.8-4.5,1.4
					c-3.8,1.5-7.7,2.8-11.3,4.6c-3.1,1.6-3.3,3.5-1.1,6.3l0.5,0.7l-0.4,0.6c-0.7,0.4-1.4,0.9-2.2,1.2c-4.7,2.5-8.6,6-11.9,10
					c-2.3,2.7-2.3,4.6-0.5,7.4c2.2,3.3,2.1,4.3-0.7,6.9c-3.5,3.2-7.1,6.2-10.6,9.3c-1.6,1.4-3,2.9-3.7,4.9c-0.2,0.7-0.9,1.5-1.5,1.8
					c-3.8,1.4-6.2,4.2-8,7.6c-1.6,3-3.8,5.5-6.9,7.1c-1.7,0.9-3.5,1.4-5.1,2.3c-7.3,4.1-13.3,9.8-19.2,15.5c-1.4,1.3-2.2,3.3-3,5.1
					c-0.8,1.9-1.2,3.8,0.7,5.4c1.6,1.3,3.5,1.3,5.8,0l1.3-0.9c4.2-3.6,8.4-7.2,12.7-10.7c1.6-1.3,3.4-2.6,5.3-3.2
					c3.7-1.2,7.6-2.1,11.5-3c4.2-0.9,7.8-2.7,10.9-5.8c4-4.2,8.3-8.3,12.5-12.4c0.7-0.6,1.4-1.3,2.2-1.8c2.7-1.6,4.7-4,5.8-6.8
					c2-5.1,5.4-9.2,8.8-13.3c1.6-1.8,3.3-3.5,4.7-5.5c0.9-1.2,1.8-2.6,2.1-4.1c1.1-4.5,3.7-7.8,7.6-10.4c5.3-3.5,10.6-7.1,15.9-10.7
					c2.3-1.5,4-3.6,5.3-6.1c0.8-1.6,1.8-3.1,2.9-4.4c3.2-3.9,7.4-6.3,12.3-7.8c7.8-2.3,13.4-7.5,16.9-14.8c0.9-1.9,2.3-3.2,4-4.2
					c1.1-0.7,2.4-1.3,3.7-1.8c3.7-1.4,6.8-3.6,9.8-6.2c1.7-1.5,3.5-3,5.6-4.1c6.1-3.2,11.4-7.4,16.4-12.1c2.9-2.7,5.7-5.6,8.3-8.5
					C1004.7,136,1004.2,134.2,1001.9,133.1"/>
				<path class="st2" d="M1001.9,133.1c-1.5-0.7-2.9-0.4-4.2,0.2c-3.5,1.5-7.1,3-10.6,4.7c-2.2,1.1-4.6,2.3-6.2,4.1
					c-5.2,5.5-12.8,7.5-18.4,12.4l-0.6,0.3c-5,2-10,4.4-15.1,6c-4.5,1.4-9.1,2.3-12.2,6.6c-0.1-1.1,0-2,0.3-2.9
					c0.9-2.5,0.5-4.7-0.8-6.9c-1-1.6-2.1-3.1-3.1-4.7c-0.5-0.8-1.1-1.7-1-2.5c0.1-2.1-0.9-3.5-2-5.1c-0.7-1-1.3-2.4-1.4-3.7
					c-0.2-6.5-0.2-13-0.3-19.4c-0.1-3.3-1.5-5.8-4.3-7.5c-0.8-0.5-1.8-1.4-2-2.3c-1.7-6.3-5.5-12-5.8-18.8c0-0.7-0.2-1.5-0.5-2.1
					c-2.1-5.4-4-10.8-6.3-16.1c-0.9-2.2-2.4-4.2-3.8-6.1c-0.5-0.7-1.9-1.6-2.5-1.4c-0.9,0.3-1.9,1.5-2.1,2.4
					c-0.3,1.7-0.1,3.5-0.1,5.3c0.2,5.4,0.4,10.8,0.6,16.3c-3.4,0.8-4.2,3-4,5.8c0.3,3.6,0.7,7.3,1.1,10.9c0.2,2.1,0.8,4.1,0.8,6.2
					c0.1,4.1,0,8.2,0,12.2c-0.1,4.6,0.7,9,2.6,13.1c1.6,3.5,2.7,7,2.8,10.8c0.1,2,0.2,4,0.1,6c-0.1,2,0.7,3.5,2.2,4.6
					c1,0.8,2.2,1.4,4,2.4c-1.4,4.9-2.6,10-4.2,15c-1.5,4.8-3.5,9.4-2.1,14.6c0.6,2.4-0.3,3.4-2.7,4.2c-1.5,0.5-3,0.8-4.5,1.4
					c-3.8,1.5-7.7,2.8-11.3,4.6c-3.1,1.6-3.3,3.5-1.1,6.3l0.5,0.7l-0.4,0.6c-0.7,0.4-1.4,0.9-2.2,1.2c-4.7,2.5-8.6,6-11.9,10
					c-2.3,2.7-2.3,4.6-0.5,7.4c2.2,3.3,2.1,4.3-0.7,6.9c-3.5,3.2-7.1,6.2-10.6,9.3c-1.6,1.4-3,2.9-3.7,4.9c-0.2,0.7-0.9,1.5-1.5,1.8
					c-3.8,1.4-6.2,4.2-8,7.6c-1.6,3-3.8,5.5-6.9,7.1c-1.7,0.9-3.5,1.4-5.1,2.3c-7.3,4.1-13.3,9.8-19.2,15.5c-1.4,1.3-2.2,3.3-3,5.1
					c-0.8,1.9-1.2,3.8,0.7,5.4c1.6,1.3,3.5,1.3,5.8,0l1.3-0.9c4.2-3.6,8.4-7.2,12.7-10.7c1.6-1.3,3.4-2.6,5.3-3.2
					c3.7-1.2,7.6-2.1,11.5-3c4.2-0.9,7.8-2.7,10.9-5.8c4-4.2,8.3-8.3,12.5-12.4c0.7-0.6,1.4-1.3,2.2-1.8c2.7-1.6,4.7-4,5.8-6.8
					c2-5.1,5.4-9.2,8.8-13.3c1.6-1.8,3.3-3.5,4.7-5.5c0.9-1.2,1.8-2.6,2.1-4.1c1.1-4.5,3.7-7.8,7.6-10.4c5.3-3.5,10.6-7.1,15.9-10.7
					c2.3-1.5,4-3.6,5.3-6.1c0.8-1.6,1.8-3.1,2.9-4.4c3.2-3.9,7.4-6.3,12.3-7.8c7.8-2.3,13.4-7.5,16.9-14.8c0.9-1.9,2.3-3.2,4-4.2
					c1.1-0.7,2.4-1.3,3.7-1.8c3.7-1.4,6.8-3.6,9.8-6.2c1.7-1.5,3.5-3,5.6-4.1c6.1-3.2,11.4-7.4,16.4-12.1c2.9-2.7,5.7-5.6,8.3-8.5
					C1004.7,136,1004.2,134.2,1001.9,133.1"/>
			</g>
			<g>
				<g>
					<path class="st1" d="M811.9,228.9c1-1.4,1.4-3.1,0.9-4.8c-0.8-2.7-1.7-5.4-2.8-7.9c-1.8-4.2-2.8-8.4-2.1-13.1
						c1.2-7.4-0.5-14.5-5-20.5c-1.9-2.6-2.6-5-2.2-8.1c0.3-1.9,0.3-4-0.9-5.8c-2.6-4.2-5.1-8.4-9.7-10.9c-1.6-0.9-1.5-2.8,0-3.8
						c1-0.6,2.1-1,3.1-1.5c1.8-1,3.7-1.9,5.4-3.2c2-1.6,4.2-2.7,6.7-3.2c1-0.2,1.9-0.7,2.8-1.2c3.1-1.6,5.1-4.3,6.8-7.2
						c1-1.7,1.4-3.5,1.2-5.4c-0.1-1.2-0.2-2.5-0.5-3.7c-0.5-1.7-0.8-3.6-1.9-4.8c-2.1-2.3-3.4-5-5.1-7.5c-1-1.5-1.4-2.7-0.3-4.5
						c1.6-2.6,1-4.9-1.3-7c-2.5-2.3-5.3-3.3-8.6-2.6c-2.8,0.6-5.4,0-7.9-1.3c-3.9-2-6.4-1.8-9.2,1.4c-2.9,3.3-5.5,6.9-8.2,10.3
						c-0.4,0.5-0.8,1.1-1.3,1.8c-1.6-1.5-1.5-3.3-1.7-5c-0.5-3.8-0.9-7.7-1.6-11.5c-0.5-2.2-2-3.2-3.7-3.2c-1.9,0-3.7,1.3-4.3,3.5
						c-0.2,0.9-0.1,1.8-0.2,2.7c-0.1,2.7,0,5.4-0.3,8.1c-0.5,5.2-1.7,10.3-1.8,15.5c-0.1,5.7-1,11.2-2.2,16.8
						c-0.4,1.9-0.2,3.9-0.1,5.9c0.2,2.5,1.7,4.2,3.8,5.4c2.7,1.5,3.3,3.3,2.2,6.2c-0.6,1.7-1.5,3.2-2.2,4.9
						c-1.1,2.8-1.3,5.8,0.2,8.5c1.7,3,1.7,5.8,0.8,9c-0.7,2.5-1,5.4-0.7,8c0.4,3.4,0.5,6.7,0.1,10c-0.2,1.3-0.3,2.7-0.2,4.1
						c0.1,1.1,0.6,2.3,1.3,3c2.7,2.9,6.9,2.2,8.5-1.5c0.9-2.2,1.2-4.7,1.3-7c0.1-3.6,0.8-7,2.3-10.3c1.1-2.4,1.5-5.2,2-7.8
						c0.3-1.6,0.2-3.3,0.3-4.4c0.7,0.6,1.7,1.2,2.6,1.9c4.2,3.2,7.3,7.4,9.9,12c1,1.7,2.1,3.4,3.5,4.8c3,2.9,4.1,6.4,3.9,10.5
						c-0.1,2-0.1,4.1,0.6,5.9c1.3,3.5,2.2,7,2.9,10.6c0.7,3.3,1.9,6.4,4.5,8.8C806.1,232.2,809.8,231.8,811.9,228.9 M787.6,138
						c-0.8,1.5-2.1,2.7-3.3,4.2c-0.7-0.5-1.4-0.7-1.7-1.2c-1.2-2.1-2.7-3.9-4.5-5.5c-0.7-0.6-0.7-1.9-1.1-3.2
						c3.3-0.8,5.1-2.5,6.2-5.2c1.9-4.6,2.9-5.1,9.2-4.5c-4.6,3.1-4.6,6.8-3.6,11C789,135,788.3,136.7,787.6,138"/>
				</g>
				<g>
					<path class="st0" d="M811.9,228.9c1-1.4,1.4-3.1,0.9-4.8c-0.8-2.7-1.7-5.4-2.8-7.9c-1.8-4.2-2.8-8.4-2.1-13.1
						c1.2-7.4-0.5-14.5-5-20.5c-1.9-2.6-2.6-5-2.2-8.1c0.3-1.9,0.3-4-0.9-5.8c-2.6-4.2-5.1-8.4-9.7-10.9c-1.6-0.9-1.5-2.8,0-3.8
						c1-0.6,2.1-1,3.1-1.5c1.8-1,3.7-1.9,5.4-3.2c2-1.6,4.2-2.7,6.7-3.2c1-0.2,1.9-0.7,2.8-1.2c3.1-1.6,5.1-4.3,6.8-7.2
						c1-1.7,1.4-3.5,1.2-5.4c-0.1-1.2-0.2-2.5-0.5-3.7c-0.5-1.7-0.8-3.6-1.9-4.8c-2.1-2.3-3.4-5-5.1-7.5c-1-1.5-1.4-2.7-0.3-4.5
						c1.6-2.6,1-4.9-1.3-7c-2.5-2.3-5.3-3.3-8.6-2.6c-2.8,0.6-5.4,0-7.9-1.3c-3.9-2-6.4-1.8-9.2,1.4c-2.9,3.3-5.5,6.9-8.2,10.3
						c-0.4,0.5-0.8,1.1-1.3,1.8c-1.6-1.5-1.5-3.3-1.7-5c-0.5-3.8-0.9-7.7-1.6-11.5c-0.5-2.2-2-3.2-3.7-3.2c-1.9,0-3.7,1.3-4.3,3.5
						c-0.2,0.9-0.1,1.8-0.2,2.7c-0.1,2.7,0,5.4-0.3,8.1c-0.5,5.2-1.7,10.3-1.8,15.5c-0.1,5.7-1,11.2-2.2,16.8
						c-0.4,1.9-0.2,3.9-0.1,5.9c0.2,2.5,1.7,4.2,3.8,5.4c2.7,1.5,3.3,3.3,2.2,6.2c-0.6,1.7-1.5,3.2-2.2,4.9
						c-1.1,2.8-1.3,5.8,0.2,8.5c1.7,3,1.7,5.8,0.8,9c-0.7,2.5-1,5.4-0.7,8c0.4,3.4,0.5,6.7,0.1,10c-0.2,1.3-0.3,2.7-0.2,4.1
						c0.1,1.1,0.6,2.3,1.3,3c2.7,2.9,6.9,2.2,8.5-1.5c0.9-2.2,1.2-4.7,1.3-7c0.1-3.6,0.8-7,2.3-10.3c1.1-2.4,1.5-5.2,2-7.8
						c0.3-1.6,0.2-3.3,0.3-4.4c0.7,0.6,1.7,1.2,2.6,1.9c4.2,3.2,7.3,7.4,9.9,12c1,1.7,2.1,3.4,3.5,4.8c3,2.9,4.1,6.4,3.9,10.5
						c-0.1,2-0.1,4.1,0.6,5.9c1.3,3.5,2.2,7,2.9,10.6c0.7,3.3,1.9,6.4,4.5,8.8C806.1,232.2,809.8,231.8,811.9,228.9 M787.6,138
						c-0.8,1.5-2.1,2.7-3.3,4.2c-0.7-0.5-1.4-0.7-1.7-1.2c-1.2-2.1-2.7-3.9-4.5-5.5c-0.7-0.6-0.7-1.9-1.1-3.2
						c3.3-0.8,5.1-2.5,6.2-5.2c1.9-4.6,2.9-5.1,9.2-4.5c-4.6,3.1-4.6,6.8-3.6,11C789,135,788.3,136.7,787.6,138"/>
				</g>
				<path class="st2" d="M811.9,228.9c1-1.4,1.4-3.1,0.9-4.8c-0.8-2.7-1.7-5.4-2.8-7.9c-1.8-4.2-2.8-8.4-2.1-13.1
					c1.2-7.4-0.5-14.5-5-20.5c-1.9-2.6-2.6-5-2.2-8.1c0.3-1.9,0.3-4-0.9-5.8c-2.6-4.2-5.1-8.4-9.7-10.9c-1.6-0.9-1.5-2.8,0-3.8
					c1-0.6,2.1-1,3.1-1.5c1.8-1,3.7-1.9,5.4-3.2c2-1.6,4.2-2.7,6.7-3.2c1-0.2,1.9-0.7,2.8-1.2c3.1-1.6,5.1-4.3,6.8-7.2
					c1-1.7,1.4-3.5,1.2-5.4c-0.1-1.2-0.2-2.5-0.5-3.7c-0.5-1.7-0.8-3.6-1.9-4.8c-2.1-2.3-3.4-5-5.1-7.5c-1-1.5-1.4-2.7-0.3-4.5
					c1.6-2.6,1-4.9-1.3-7c-2.5-2.3-5.3-3.3-8.6-2.6c-2.8,0.6-5.4,0-7.9-1.3c-3.9-2-6.4-1.8-9.2,1.4c-2.9,3.3-5.5,6.9-8.2,10.3
					c-0.4,0.5-0.8,1.1-1.3,1.8c-1.6-1.5-1.5-3.3-1.7-5c-0.5-3.8-0.9-7.7-1.6-11.5c-0.5-2.2-2-3.2-3.7-3.2c-1.9,0-3.7,1.3-4.3,3.5
					c-0.2,0.9-0.1,1.8-0.2,2.7c-0.1,2.7,0,5.4-0.3,8.1c-0.5,5.2-1.7,10.3-1.8,15.5c-0.1,5.7-1,11.2-2.2,16.8
					c-0.4,1.9-0.2,3.9-0.1,5.9c0.2,2.5,1.7,4.2,3.8,5.4c2.7,1.5,3.3,3.3,2.2,6.2c-0.6,1.7-1.5,3.2-2.2,4.9c-1.1,2.8-1.3,5.8,0.2,8.5
					c1.7,3,1.7,5.8,0.8,9c-0.7,2.5-1,5.4-0.7,8c0.4,3.4,0.5,6.7,0.1,10c-0.2,1.3-0.3,2.7-0.2,4.1c0.1,1.1,0.6,2.3,1.3,3
					c2.7,2.9,6.9,2.2,8.5-1.5c0.9-2.2,1.2-4.7,1.3-7c0.1-3.6,0.8-7,2.3-10.3c1.1-2.4,1.5-5.2,2-7.8c0.3-1.6,0.2-3.3,0.3-4.4
					c0.7,0.6,1.7,1.2,2.6,1.9c4.2,3.2,7.3,7.4,9.9,12c1,1.7,2.1,3.4,3.5,4.8c3,2.9,4.1,6.4,3.9,10.5c-0.1,2-0.1,4.1,0.6,5.9
					c1.3,3.5,2.2,7,2.9,10.6c0.7,3.3,1.9,6.4,4.5,8.8C806.1,232.2,809.8,231.8,811.9,228.9 M787.6,138c-0.8,1.5-2.1,2.7-3.3,4.2
					c-0.7-0.5-1.4-0.7-1.7-1.2c-1.2-2.1-2.7-3.9-4.5-5.5c-0.7-0.6-0.7-1.9-1.1-3.2c3.3-0.8,5.1-2.5,6.2-5.2c1.9-4.6,2.9-5.1,9.2-4.5
					c-4.6,3.1-4.6,6.8-3.6,11C789,135,788.3,136.7,787.6,138"/>
			</g>
			<g>
				<path class="st1" d="M812.8,153.7c-2.4,0.6-3.4,2.3-2.9,4.7c0.5,2.8,2.2,4.3,5,4.1c2.4-0.2,4.4,0.7,6.6,1.5
					c3.3,1.2,5.7,4.3,9.8,3.8c-0.3,0.8-0.3,1.3-0.6,1.8c-1.6,2.8-2.2,5.8-2.3,9c0,1.5-0.8,3-1.5,4.3c-1,1.8-1.4,3.5-0.8,5.4
					c0.4,1.5,0.9,3,1.7,4.4c0.9,1.6,1,2.9,0.2,4.7c-1.7,3.7-2.1,7.6,0,11.5c0.3,0.6,0.6,1.4,0.6,2.1c-0.2,4.5,0.1,9.1-1,13.4
					c-1.6,5.9-1.7,11.8-1.6,17.7c0.1,2.7,0.6,5.4,2.3,7.7c1.6,2.1,3.7,2,5-0.4c0.3-0.5,0.5-1.2,0.7-1.8c0.9-3,1.8-6,2.7-9
					c0.5-1.6,1.1-3.2,1.3-4.8c0.8-7,1.6-14.1,2.3-21.2c0.4-3.9,1-7.7,3.3-11c0.5-0.7,1-1.7,1.1-2.6c0.2-3,0.6-6.1-0.5-9
					c-0.5-1.3-0.5-2.6,0.3-3.9c2.1-3.8,2.4-7.9,1.8-12.2c-0.2-1.9-0.2-3.9-0.3-5.9l0.8-0.6c1.1,0.5,2.4,0.8,3.2,1.6
					c3.6,3.3,8,3.6,12.3,3c2.4-0.4,4.2,0,6.1,1.4c2.4,1.8,5.2,2.8,8.2,2.9c4.2,0.1,5.9-1.3,6-5.4c0.9-0.6,1.8-1.2,2.5-1.8
					c2.2-1.9,2.4-4.2,0.3-6.3c-1-1-2.3-1.9-3.6-2.4c-1.7-0.7-3.6-1-5.5-1.3c-1.3-0.2-2.3-0.6-3.2-1.7c-1.7-2-4-3-6.6-3c-2,0-4,0-6,0
					c-2.7-3.7-3.5-3.9-8.4-3.3c-2.1,0.3-4.3,0.8-6.8-0.3c0.5-1.6,0.8-3.3,1.5-4.7c2.1-4.4,3.5-9,4.3-13.7c0.9-5.2,1.9-10.3,4.4-15
					l0.2-0.6c0.5-3.6,0.7-7.1-2.5-9.8c-2.5-2.2-2.5-2.7-0.9-5.6c1.7-2.9,3.5-5.7,5-8.7c0.9-1.7,1.7-3.7,1.9-5.6
					c0.4-3.8-2.2-6-6.1-5.4c-3.4,0.5-5.5,2.8-6.9,5.8c-1,2.2-2,4.3-3.1,6.5c-2.7,5.5-5.5,11-6.3,17.3c-0.3,2.2-1.1,4.4-1.9,6.6
					c-1.2,3.4-2.1,6.8-2.1,10.4c0,2.5-0.5,4.7-1.6,7c-1.5,3-1.9,6.1-1.2,9.5c0.7,3.7-0.4,5.1-4.2,5.1c-2,0-4,0.2-5.6,1.6
					c-1.4,1.2-3.1,1.7-4.9,1.8C814.5,153.3,813.6,153.4,812.8,153.7"/>
				<path class="st0" d="M812.8,153.7c-2.4,0.6-3.4,2.3-2.9,4.7c0.5,2.8,2.2,4.3,5,4.1c2.4-0.2,4.4,0.7,6.6,1.5
					c3.3,1.2,5.7,4.3,9.8,3.8c-0.3,0.8-0.3,1.3-0.6,1.8c-1.6,2.8-2.2,5.8-2.3,9c0,1.5-0.8,3-1.5,4.3c-1,1.8-1.4,3.5-0.8,5.4
					c0.4,1.5,0.9,3,1.7,4.4c0.9,1.6,1,2.9,0.2,4.7c-1.7,3.7-2.1,7.6,0,11.5c0.3,0.6,0.6,1.4,0.6,2.1c-0.2,4.5,0.1,9.1-1,13.4
					c-1.6,5.9-1.7,11.8-1.6,17.7c0.1,2.7,0.6,5.4,2.3,7.7c1.6,2.1,3.7,2,5-0.4c0.3-0.5,0.5-1.2,0.7-1.8c0.9-3,1.8-6,2.7-9
					c0.5-1.6,1.1-3.2,1.3-4.8c0.8-7,1.6-14.1,2.3-21.2c0.4-3.9,1-7.7,3.3-11c0.5-0.7,1-1.7,1.1-2.6c0.2-3,0.6-6.1-0.5-9
					c-0.5-1.3-0.5-2.6,0.3-3.9c2.1-3.8,2.4-7.9,1.8-12.2c-0.2-1.9-0.2-3.9-0.3-5.9l0.8-0.6c1.1,0.5,2.4,0.8,3.2,1.6
					c3.6,3.3,8,3.6,12.3,3c2.4-0.4,4.2,0,6.1,1.4c2.4,1.8,5.2,2.8,8.2,2.9c4.2,0.1,5.9-1.3,6-5.4c0.9-0.6,1.8-1.2,2.5-1.8
					c2.2-1.9,2.4-4.2,0.3-6.3c-1-1-2.3-1.9-3.6-2.4c-1.7-0.7-3.6-1-5.5-1.3c-1.3-0.2-2.3-0.6-3.2-1.7c-1.7-2-4-3-6.6-3c-2,0-4,0-6,0
					c-2.7-3.7-3.5-3.9-8.4-3.3c-2.1,0.3-4.3,0.8-6.8-0.3c0.5-1.6,0.8-3.3,1.5-4.7c2.1-4.4,3.5-9,4.3-13.7c0.9-5.2,1.9-10.3,4.4-15
					l0.2-0.6c0.5-3.6,0.7-7.1-2.5-9.8c-2.5-2.2-2.5-2.7-0.9-5.6c1.7-2.9,3.5-5.7,5-8.7c0.9-1.7,1.7-3.7,1.9-5.6
					c0.4-3.8-2.2-6-6.1-5.4c-3.4,0.5-5.5,2.8-6.9,5.8c-1,2.2-2,4.3-3.1,6.5c-2.7,5.5-5.5,11-6.3,17.3c-0.3,2.2-1.1,4.4-1.9,6.6
					c-1.2,3.4-2.1,6.8-2.1,10.4c0,2.5-0.5,4.7-1.6,7c-1.5,3-1.9,6.1-1.2,9.5c0.7,3.7-0.4,5.1-4.2,5.1c-2,0-4,0.2-5.6,1.6
					c-1.4,1.2-3.1,1.7-4.9,1.8C814.5,153.3,813.6,153.4,812.8,153.7"/>
				<path class="st2" d="M812.8,153.7c-2.4,0.6-3.4,2.3-2.9,4.7c0.5,2.8,2.2,4.3,5,4.1c2.4-0.2,4.4,0.7,6.6,1.5
					c3.3,1.2,5.7,4.3,9.8,3.8c-0.3,0.8-0.3,1.3-0.6,1.8c-1.6,2.8-2.2,5.8-2.3,9c0,1.5-0.8,3-1.5,4.3c-1,1.8-1.4,3.5-0.8,5.4
					c0.4,1.5,0.9,3,1.7,4.4c0.9,1.6,1,2.9,0.2,4.7c-1.7,3.7-2.1,7.6,0,11.5c0.3,0.6,0.6,1.4,0.6,2.1c-0.2,4.5,0.1,9.1-1,13.4
					c-1.6,5.9-1.7,11.8-1.6,17.7c0.1,2.7,0.6,5.4,2.3,7.7c1.6,2.1,3.7,2,5-0.4c0.3-0.5,0.5-1.2,0.7-1.8c0.9-3,1.8-6,2.7-9
					c0.5-1.6,1.1-3.2,1.3-4.8c0.8-7,1.6-14.1,2.3-21.2c0.4-3.9,1-7.7,3.3-11c0.5-0.7,1-1.7,1.1-2.6c0.2-3,0.6-6.1-0.5-9
					c-0.5-1.3-0.5-2.6,0.3-3.9c2.1-3.8,2.4-7.9,1.8-12.2c-0.2-1.9-0.2-3.9-0.3-5.9l0.8-0.6c1.1,0.5,2.4,0.8,3.2,1.6
					c3.6,3.3,8,3.6,12.3,3c2.4-0.4,4.2,0,6.1,1.4c2.4,1.8,5.2,2.8,8.2,2.9c4.2,0.1,5.9-1.3,6-5.4c0.9-0.6,1.8-1.2,2.5-1.8
					c2.2-1.9,2.4-4.2,0.3-6.3c-1-1-2.3-1.9-3.6-2.4c-1.7-0.7-3.6-1-5.5-1.3c-1.3-0.2-2.3-0.6-3.2-1.7c-1.7-2-4-3-6.6-3c-2,0-4,0-6,0
					c-2.7-3.7-3.5-3.9-8.4-3.3c-2.1,0.3-4.3,0.8-6.8-0.3c0.5-1.6,0.8-3.3,1.5-4.7c2.1-4.4,3.5-9,4.3-13.7c0.9-5.2,1.9-10.3,4.4-15
					l0.2-0.6c0.5-3.6,0.7-7.1-2.5-9.8c-2.5-2.2-2.5-2.7-0.9-5.6c1.7-2.9,3.5-5.7,5-8.7c0.9-1.7,1.7-3.7,1.9-5.6
					c0.4-3.8-2.2-6-6.1-5.4c-3.4,0.5-5.5,2.8-6.9,5.8c-1,2.2-2,4.3-3.1,6.5c-2.7,5.5-5.5,11-6.3,17.3c-0.3,2.2-1.1,4.4-1.9,6.6
					c-1.2,3.4-2.1,6.8-2.1,10.4c0,2.5-0.5,4.7-1.6,7c-1.5,3-1.9,6.1-1.2,9.5c0.7,3.7-0.4,5.1-4.2,5.1c-2,0-4,0.2-5.6,1.6
					c-1.4,1.2-3.1,1.7-4.9,1.8C814.5,153.3,813.6,153.4,812.8,153.7"/>
			</g>
			<g>
				<g>
					<path class="st1" d="M745,162.8c-2.3-2.8-2.9-5.4-1.3-8.6c1-2.1,2-4.2,2.6-6.4c1.5-5.4,1.4-10.7-1.3-15.8
						c-0.6-1.1-0.8-2.4-1-3.6c-0.3-2.6-1.2-4.7-3.1-6.6c-3.4-3.3-7.1-6.1-11.6-7.7c-6.3-2.2-12.1-1.5-17,3c-3.1,2.9-5.5,6.5-8.3,9.8
						c-0.9,1-1.8,2-2.9,2.7c-4.9,3.1-8.7,7-9.6,12.9c-0.6,3.5-1.8,6.5-4.1,9.3c-3,3.6-3.3,8.9-0.7,12.3c3.4,4.4,4,9.3,3.3,14.5
						c-0.3,2.1-0.4,4.2-0.6,6.7c0.3,1.9,0.3,4.2,1,6.4c0.7,2.5,2.7,3.8,5,3.3c2.6-0.7,4.4,0.5,6.4,1.8c1.6,1,3.2,1.9,4.9,2.6
						c1,0.4,1.7,0.9,2.2,1.9c1.7,3.3,3.7,4.4,7.4,3.7c2.8-0.6,5.6-1.6,8.6-1.1c0.7,0.1,1.5-0.1,2.1-0.5c3-1.8,6.5-3.2,9-5.7
						c4.3-4.4,8.3-9.2,11.9-14.2c2.1-3,3.7-6.5,2.7-10.6C749.5,169,747.4,165.8,745,162.8 M722.1,173.5c1.5,3.2,1.4,3.3,1.1,6.4
						c-1.9,0.2-4,0.4-5.8,0.5c-1.5-2.3-2.8-4.4-4.2-6.5c-1.1-1.7-2.6-3.1-4.8-3c-1.6,0.1-2.2-0.9-2.5-2.2c-0.3-1.4-0.5-2.9-0.8-4.3
						c-0.8-4,0.1-7.5,3.2-10.3c3-2.7,4.2-5.7,3.5-9.8c-0.5-3.2,1.7-5.1,4.4-6.4c-0.5,2-1,4-1.4,6c-0.8,4.1,0.9,7.1,4.2,9.4
						c0.8,0.5,1.6,0.9,2.4,1.5c2,1.4,2.4,2.5,1.6,4.8c-0.4,1.1-0.9,2.1-1.3,3.2C720.4,166.4,720.4,169.9,722.1,173.5"/>
				</g>
				<g>
					<path class="st0" d="M745,162.8c-2.3-2.8-2.9-5.4-1.3-8.6c1-2.1,2-4.2,2.6-6.4c1.5-5.4,1.4-10.7-1.3-15.8
						c-0.6-1.1-0.8-2.4-1-3.6c-0.3-2.6-1.2-4.7-3.1-6.6c-3.4-3.3-7.1-6.1-11.6-7.7c-6.3-2.2-12.1-1.5-17,3c-3.1,2.9-5.5,6.5-8.3,9.8
						c-0.9,1-1.8,2-2.9,2.7c-4.9,3.1-8.7,7-9.6,12.9c-0.6,3.5-1.8,6.5-4.1,9.3c-3,3.6-3.3,8.9-0.7,12.3c3.4,4.4,4,9.3,3.3,14.5
						c-0.3,2.1-0.4,4.2-0.6,6.7c0.3,1.9,0.3,4.2,1,6.4c0.7,2.5,2.7,3.8,5,3.3c2.6-0.7,4.4,0.5,6.4,1.8c1.6,1,3.2,1.9,4.9,2.6
						c1,0.4,1.7,0.9,2.2,1.9c1.7,3.3,3.7,4.4,7.4,3.7c2.8-0.6,5.6-1.6,8.6-1.1c0.7,0.1,1.5-0.1,2.1-0.5c3-1.8,6.5-3.2,9-5.7
						c4.3-4.4,8.3-9.2,11.9-14.2c2.1-3,3.7-6.5,2.7-10.6C749.5,169,747.4,165.8,745,162.8 M722.1,173.5c1.5,3.2,1.4,3.3,1.1,6.4
						c-1.9,0.2-4,0.4-5.8,0.5c-1.5-2.3-2.8-4.4-4.2-6.5c-1.1-1.7-2.6-3.1-4.8-3c-1.6,0.1-2.2-0.9-2.5-2.2c-0.3-1.4-0.5-2.9-0.8-4.3
						c-0.8-4,0.1-7.5,3.2-10.3c3-2.7,4.2-5.7,3.5-9.8c-0.5-3.2,1.7-5.1,4.4-6.4c-0.5,2-1,4-1.4,6c-0.8,4.1,0.9,7.1,4.2,9.4
						c0.8,0.5,1.6,0.9,2.4,1.5c2,1.4,2.4,2.5,1.6,4.8c-0.4,1.1-0.9,2.1-1.3,3.2C720.4,166.4,720.4,169.9,722.1,173.5"/>
				</g>
				<path class="st2" d="M745,162.8c-2.3-2.8-2.9-5.4-1.3-8.6c1-2.1,2-4.2,2.6-6.4c1.5-5.4,1.4-10.7-1.3-15.8
					c-0.6-1.1-0.8-2.4-1-3.6c-0.3-2.6-1.2-4.7-3.1-6.6c-3.4-3.3-7.1-6.1-11.6-7.7c-6.3-2.2-12.1-1.5-17,3c-3.1,2.9-5.5,6.5-8.3,9.8
					c-0.9,1-1.8,2-2.9,2.7c-4.9,3.1-8.7,7-9.6,12.9c-0.6,3.5-1.8,6.5-4.1,9.3c-3,3.6-3.3,8.9-0.7,12.3c3.4,4.4,4,9.3,3.3,14.5
					c-0.3,2.1-0.4,4.2-0.6,6.7c0.3,1.9,0.3,4.2,1,6.4c0.7,2.5,2.7,3.8,5,3.3c2.6-0.7,4.4,0.5,6.4,1.8c1.6,1,3.2,1.9,4.9,2.6
					c1,0.4,1.7,0.9,2.2,1.9c1.7,3.3,3.7,4.4,7.4,3.7c2.8-0.6,5.6-1.6,8.6-1.1c0.7,0.1,1.5-0.1,2.1-0.5c3-1.8,6.5-3.2,9-5.7
					c4.3-4.4,8.3-9.2,11.9-14.2c2.1-3,3.7-6.5,2.7-10.6C749.5,169,747.4,165.8,745,162.8 M722.1,173.5c1.5,3.2,1.4,3.3,1.1,6.4
					c-1.9,0.2-4,0.4-5.8,0.5c-1.5-2.3-2.8-4.4-4.2-6.5c-1.1-1.7-2.6-3.1-4.8-3c-1.6,0.1-2.2-0.9-2.5-2.2c-0.3-1.4-0.5-2.9-0.8-4.3
					c-0.8-4,0.1-7.5,3.2-10.3c3-2.7,4.2-5.7,3.5-9.8c-0.5-3.2,1.7-5.1,4.4-6.4c-0.5,2-1,4-1.4,6c-0.8,4.1,0.9,7.1,4.2,9.4
					c0.8,0.5,1.6,0.9,2.4,1.5c2,1.4,2.4,2.5,1.6,4.8c-0.4,1.1-0.9,2.1-1.3,3.2C720.4,166.4,720.4,169.9,722.1,173.5"/>
			</g>
		</g>
		<g>
			<g>
				<path class="st1" d="M491.9,189.6c-1.7-4.2-3.3-8.3-3-13c0.2-3.2-0.1-6.5,0-9.7c0.1-2.6,0.2-5.3,0.8-7.8c1-4.5,2.4-8.9,3.7-13.3
					c0.6-2.1,0.5-4-0.9-5.6c-1.9-2.4-2.1-5-1.5-7.7c0.8-3.3,1.9-6.6,2.8-10c0.3-1.2,0.7-2.4,0.6-3.7c-0.1-2.1-0.9-4-3-4.8
					c-2.2-0.9-4.1-0.1-5.6,1.6c-1,1.2-2.1,2.4-2.7,3.8c-1,2.5-1.7,5.2-2.3,7.8c-1.3,5.2-2.4,10.3-3.6,15.5l-0.4,1.2
					c-2.5,3.8-3.3,8.1-3.9,12.5c-0.3,2.3-1.5,3.8-3.6,5c-3.1,1.8-6,4.2-8.6,6.7c-2.4,2.4-4.4,5.3-6.6,8c0.1-1.8,0-3.7,0.3-5.5
					c1.1-6.2,2.4-12.3,3.6-18.4c0.6-3.1,1.2-6.2,1.6-9.3c0.2-1.6,0.2-3.4-0.3-4.9c-0.6-1.9-1.7-3.7-4.1-3.8
					c-2.2-0.1-3.8,1.1-4.8,2.9c-0.4,0.6-0.7,1.3-1,2c-2.7,6.8-5.5,13.6-8.4,20.9c-1-4.4-2.8-7.7-7.8-6.5c-1.7-2.9-2.2-5.9-2.8-8.9
					c-0.5-2.3-1.6-4.3-3.2-6c-1.3-1.3-2.9-1.3-4.4-0.8c-1.5,0.6-2.6,1.7-2.6,3.6c0,1.6-0.2,3.1-0.4,4.7c-0.2,2.6-0.5,5.2-0.5,7.8
					c0,2.7,0.2,5.4,0.5,8.1c0.5,4-2,6.7-4.1,9.9c-1-2.1-2.1-3.8-2.7-5.7c-0.5-1.2-0.2-2.7-0.5-4c-0.5-2-1.1-4-1.6-6.1
					c-0.5-2.3-0.9-4.7-1.3-7c-0.2-1.1-0.1-2.3-0.3-3.4c-1-5.4-2.6-10.8-2.6-16.4c0-1.7-0.3-3.6-0.7-5.2c-0.5-1.9-1.9-2.9-3.4-2.6
					c-1.9,0.4-3.7,1.1-4.7,2.8c-1,1.8-2,3.7-2.7,5.6c-0.8,2.1-1.2,4.2-1.8,6.3c-0.4,1.5-1.2,2.4-2.9,2.3c-3-0.1-4.5,1.8-5.6,4.2
					c-0.8,1.7-1.3,3.5-2.2,5.2c-2.3,4.4-2.9,8.9-1,13.6c0.6,1.6,0.8,3.2,0.2,4.9c-2.1,5.7-3.1,11.8-6.5,17c-0.7,1-1.3,2.3-1.4,3.5
					c-0.2,2-0.6,4.5,0.3,6.1c1.7,2.7,2,5.4,1.9,8.3c0,0.6,0.1,1.3,0.2,1.9c0.5,1.9,2,3.3,3.7,3.4c1.8,0.1,2.9-0.8,3.6-3.2
					c0.5-1.7,1.1-3.3,2.5-4.6c1.6-1.5,1.9-3.6,1.1-5.5c-0.6-1.6-0.1-2.8,0.7-4.1c0.7-0.9,1.5-1.8,2-2.8c0.5-1,1.1-2.1,1-3.2
					c0-3.5,1.9-6,3.9-8.8c0.7,0.5,1.1,1.1,1.7,1.3c2.5,0.9,3.4,2.9,4.1,5.2c1,3.2,1.7,6.5,3,9.6c1.7,4.3,3.7,8.4,5.6,12.6l0.8,1
					c1,1.1,2.3,1.4,3.7,0.9c1.9-0.6,3.1-1.9,3.1-3.9c0-4.2-0.1-8.3-0.2-12.5c-0.1-2.3-0.2-4.7-0.3-7.4c2.2,1.2,3.1,2.5,2.9,4.5
					c-0.1,0.9,0.1,1.9-0.1,2.8c-0.6,3.6,1.8,5.6,4.1,7.5c0.9,0.7,2,0.8,2.9,0c2.2-2.1,4.4-4.2,4-7.7c-0.1-0.9-0.1-1.9,0.1-2.8
					c0.9-3.4,0.5-6.6-0.8-9.8c-0.4-1-0.6-2.1,0-3.3c1.5,1.4,3.1,2.4,4,3.8c2.2,3.3,4.1,6.8,6,10.2c1.5,2.7,2.8,5.6,4.3,8.4
					c0.8,1.4,1.9,2.6,3.7,2.4c1.8-0.2,3.1-1.2,3.6-3c0.3-1.2,0.8-2.3,1.2-3.6l0.4,0.4l0.1,0.9c0.3,4.3,2.6,6.9,6.5,8.3
					c1.4,0.5,2.7,1.1,4,1.8c5.1,2.9,10.9,1.8,14.6-2.7c0.6-0.7,1.1-1.4,1.9-2.5c0.3,1.6,0.6,2.8,0.9,4c0.6,3,2.1,5.5,4.2,7.5
					c2,1.9,4.8,2.1,7.2,0.5c2.1-1.4,3.2-3.2,2.9-5.8C494.9,198.3,493.7,193.9,491.9,189.6 M392.2,161.6c1.8-4.8,3.5-9.4,5.2-13.9
					l0.8,0.2c0,2.4-0.3,4.8,0.1,7.1c0.4,2.1,1.7,4.1,2.7,6.6L392.2,161.6L392.2,161.6z M473.8,185.3c-1.1,0.9-1.8,2.1-2.8,3
					c-1.7,1.7-3.9,1.4-4.2-0.8c-0.3-2,0.2-4.2,0.6-6.3c0.3-2,1.2-3.5,3.4-4.4c2-0.8,3.6-2.7,5.9-4.5
					C477.3,177.3,478.1,181.7,473.8,185.3"/>
			</g>
			<g>
				<path class="st0" d="M491.9,189.6c-1.7-4.2-3.3-8.3-3-13c0.2-3.2-0.1-6.5,0-9.7c0.1-2.6,0.2-5.3,0.8-7.8c1-4.5,2.4-8.9,3.7-13.3
					c0.6-2.1,0.5-4-0.9-5.6c-1.9-2.4-2.1-5-1.5-7.7c0.8-3.3,1.9-6.6,2.8-10c0.3-1.2,0.7-2.4,0.6-3.7c-0.1-2.1-0.9-4-3-4.8
					c-2.2-0.9-4.1-0.1-5.6,1.6c-1,1.2-2.1,2.4-2.7,3.8c-1,2.5-1.7,5.2-2.3,7.8c-1.3,5.2-2.4,10.3-3.6,15.5l-0.4,1.2
					c-2.5,3.8-3.3,8.1-3.9,12.5c-0.3,2.3-1.5,3.8-3.6,5c-3.1,1.8-6,4.2-8.6,6.7c-2.4,2.4-4.4,5.3-6.6,8c0.1-1.8,0-3.7,0.3-5.5
					c1.1-6.2,2.4-12.3,3.6-18.4c0.6-3.1,1.2-6.2,1.6-9.3c0.2-1.6,0.2-3.4-0.3-4.9c-0.6-1.9-1.7-3.7-4.1-3.8
					c-2.2-0.1-3.8,1.1-4.8,2.9c-0.4,0.6-0.7,1.3-1,2c-2.7,6.8-5.5,13.6-8.4,20.9c-1-4.4-2.8-7.7-7.8-6.5c-1.7-2.9-2.2-5.9-2.8-8.9
					c-0.5-2.3-1.6-4.3-3.2-6c-1.3-1.3-2.9-1.3-4.4-0.8c-1.5,0.6-2.6,1.7-2.6,3.6c0,1.6-0.2,3.1-0.4,4.7c-0.2,2.6-0.5,5.2-0.5,7.8
					c0,2.7,0.2,5.4,0.5,8.1c0.5,4-2,6.7-4.1,9.9c-1-2.1-2.1-3.8-2.7-5.7c-0.5-1.2-0.2-2.7-0.5-4c-0.5-2-1.1-4-1.6-6.1
					c-0.5-2.3-0.9-4.7-1.3-7c-0.2-1.1-0.1-2.3-0.3-3.4c-1-5.4-2.6-10.8-2.6-16.4c0-1.7-0.3-3.6-0.7-5.2c-0.5-1.9-1.9-2.9-3.4-2.6
					c-1.9,0.4-3.7,1.1-4.7,2.8c-1,1.8-2,3.7-2.7,5.6c-0.8,2.1-1.2,4.2-1.8,6.3c-0.4,1.5-1.2,2.4-2.9,2.3c-3-0.1-4.5,1.8-5.6,4.2
					c-0.8,1.7-1.3,3.5-2.2,5.2c-2.3,4.4-2.9,8.9-1,13.6c0.6,1.6,0.8,3.2,0.2,4.9c-2.1,5.7-3.1,11.8-6.5,17c-0.7,1-1.3,2.3-1.4,3.5
					c-0.2,2-0.6,4.5,0.3,6.1c1.7,2.7,2,5.4,1.9,8.3c0,0.6,0.1,1.3,0.2,1.9c0.5,1.9,2,3.3,3.7,3.4c1.8,0.1,2.9-0.8,3.6-3.2
					c0.5-1.7,1.1-3.3,2.5-4.6c1.6-1.5,1.9-3.6,1.1-5.5c-0.6-1.6-0.1-2.8,0.7-4.1c0.7-0.9,1.5-1.8,2-2.8c0.5-1,1.1-2.1,1-3.2
					c0-3.5,1.9-6,3.9-8.8c0.7,0.5,1.1,1.1,1.7,1.3c2.5,0.9,3.4,2.9,4.1,5.2c1,3.2,1.7,6.5,3,9.6c1.7,4.3,3.7,8.4,5.6,12.6l0.8,1
					c1,1.1,2.3,1.4,3.7,0.9c1.9-0.6,3.1-1.9,3.1-3.9c0-4.2-0.1-8.3-0.2-12.5c-0.1-2.3-0.2-4.7-0.3-7.4c2.2,1.2,3.1,2.5,2.9,4.5
					c-0.1,0.9,0.1,1.9-0.1,2.8c-0.6,3.6,1.8,5.6,4.1,7.5c0.9,0.7,2,0.8,2.9,0c2.2-2.1,4.4-4.2,4-7.7c-0.1-0.9-0.1-1.9,0.1-2.8
					c0.9-3.4,0.5-6.6-0.8-9.8c-0.4-1-0.6-2.1,0-3.3c1.5,1.4,3.1,2.4,4,3.8c2.2,3.3,4.1,6.8,6,10.2c1.5,2.7,2.8,5.6,4.3,8.4
					c0.8,1.4,1.9,2.6,3.7,2.4c1.8-0.2,3.1-1.2,3.6-3c0.3-1.2,0.8-2.3,1.2-3.6l0.4,0.4l0.1,0.9c0.3,4.3,2.6,6.9,6.5,8.3
					c1.4,0.5,2.7,1.1,4,1.8c5.1,2.9,10.9,1.8,14.6-2.7c0.6-0.7,1.1-1.4,1.9-2.5c0.3,1.6,0.6,2.8,0.9,4c0.6,3,2.1,5.5,4.2,7.5
					c2,1.9,4.8,2.1,7.2,0.5c2.1-1.4,3.2-3.2,2.9-5.8C494.9,198.3,493.7,193.9,491.9,189.6 M392.2,161.6c1.8-4.8,3.5-9.4,5.2-13.9
					l0.8,0.2c0,2.4-0.3,4.8,0.1,7.1c0.4,2.1,1.7,4.1,2.7,6.6L392.2,161.6L392.2,161.6z M473.8,185.3c-1.1,0.9-1.8,2.1-2.8,3
					c-1.7,1.7-3.9,1.4-4.2-0.8c-0.3-2,0.2-4.2,0.6-6.3c0.3-2,1.2-3.5,3.4-4.4c2-0.8,3.6-2.7,5.9-4.5
					C477.3,177.3,478.1,181.7,473.8,185.3"/>
			</g>
			<path class="st2" d="M491.9,189.6c-1.7-4.2-3.3-8.3-3-13c0.2-3.2-0.1-6.5,0-9.7c0.1-2.6,0.2-5.3,0.8-7.8c1-4.5,2.4-8.9,3.7-13.3
				c0.6-2.1,0.5-4-0.9-5.6c-1.9-2.4-2.1-5-1.5-7.7c0.8-3.3,1.9-6.6,2.8-10c0.3-1.2,0.7-2.4,0.6-3.7c-0.1-2.1-0.9-4-3-4.8
				c-2.2-0.9-4.1-0.1-5.6,1.6c-1,1.2-2.1,2.4-2.7,3.8c-1,2.5-1.7,5.2-2.3,7.8c-1.3,5.2-2.4,10.3-3.6,15.5l-0.4,1.2
				c-2.5,3.8-3.3,8.1-3.9,12.5c-0.3,2.3-1.5,3.8-3.6,5c-3.1,1.8-6,4.2-8.6,6.7c-2.4,2.4-4.4,5.3-6.6,8c0.1-1.8,0-3.7,0.3-5.5
				c1.1-6.2,2.4-12.3,3.6-18.4c0.6-3.1,1.2-6.2,1.6-9.3c0.2-1.6,0.2-3.4-0.3-4.9c-0.6-1.9-1.7-3.7-4.1-3.8c-2.2-0.1-3.8,1.1-4.8,2.9
				c-0.4,0.6-0.7,1.3-1,2c-2.7,6.8-5.5,13.6-8.4,20.9c-1-4.4-2.8-7.7-7.8-6.5c-1.7-2.9-2.2-5.9-2.8-8.9c-0.5-2.3-1.6-4.3-3.2-6
				c-1.3-1.3-2.9-1.3-4.4-0.8c-1.5,0.6-2.6,1.7-2.6,3.6c0,1.6-0.2,3.1-0.4,4.7c-0.2,2.6-0.5,5.2-0.5,7.8c0,2.7,0.2,5.4,0.5,8.1
				c0.5,4-2,6.7-4.1,9.9c-1-2.1-2.1-3.8-2.7-5.7c-0.5-1.2-0.2-2.7-0.5-4c-0.5-2-1.1-4-1.6-6.1c-0.5-2.3-0.9-4.7-1.3-7
				c-0.2-1.1-0.1-2.3-0.3-3.4c-1-5.4-2.6-10.8-2.6-16.4c0-1.7-0.3-3.6-0.7-5.2c-0.5-1.9-1.9-2.9-3.4-2.6c-1.9,0.4-3.7,1.1-4.7,2.8
				c-1,1.8-2,3.7-2.7,5.6c-0.8,2.1-1.2,4.2-1.8,6.3c-0.4,1.5-1.2,2.4-2.9,2.3c-3-0.1-4.5,1.8-5.6,4.2c-0.8,1.7-1.3,3.5-2.2,5.2
				c-2.3,4.4-2.9,8.9-1,13.6c0.6,1.6,0.8,3.2,0.2,4.9c-2.1,5.7-3.1,11.8-6.5,17c-0.7,1-1.3,2.3-1.4,3.5c-0.2,2-0.6,4.5,0.3,6.1
				c1.7,2.7,2,5.4,1.9,8.3c0,0.6,0.1,1.3,0.2,1.9c0.5,1.9,2,3.3,3.7,3.4c1.8,0.1,2.9-0.8,3.6-3.2c0.5-1.7,1.1-3.3,2.5-4.6
				c1.6-1.5,1.9-3.6,1.1-5.5c-0.6-1.6-0.1-2.8,0.7-4.1c0.7-0.9,1.5-1.8,2-2.8c0.5-1,1.1-2.1,1-3.2c0-3.5,1.9-6,3.9-8.8
				c0.7,0.5,1.1,1.1,1.7,1.3c2.5,0.9,3.4,2.9,4.1,5.2c1,3.2,1.7,6.5,3,9.6c1.7,4.3,3.7,8.4,5.6,12.6l0.8,1c1,1.1,2.3,1.4,3.7,0.9
				c1.9-0.6,3.1-1.9,3.1-3.9c0-4.2-0.1-8.3-0.2-12.5c-0.1-2.3-0.2-4.7-0.3-7.4c2.2,1.2,3.1,2.5,2.9,4.5c-0.1,0.9,0.1,1.9-0.1,2.8
				c-0.6,3.6,1.8,5.6,4.1,7.5c0.9,0.7,2,0.8,2.9,0c2.2-2.1,4.4-4.2,4-7.7c-0.1-0.9-0.1-1.9,0.1-2.8c0.9-3.4,0.5-6.6-0.8-9.8
				c-0.4-1-0.6-2.1,0-3.3c1.5,1.4,3.1,2.4,4,3.8c2.2,3.3,4.1,6.8,6,10.2c1.5,2.7,2.8,5.6,4.3,8.4c0.8,1.4,1.9,2.6,3.7,2.4
				c1.8-0.2,3.1-1.2,3.6-3c0.3-1.2,0.8-2.3,1.2-3.6l0.4,0.4l0.1,0.9c0.3,4.3,2.6,6.9,6.5,8.3c1.4,0.5,2.7,1.1,4,1.8
				c5.1,2.9,10.9,1.8,14.6-2.7c0.6-0.7,1.1-1.4,1.9-2.5c0.3,1.6,0.6,2.8,0.9,4c0.6,3,2.1,5.5,4.2,7.5c2,1.9,4.8,2.1,7.2,0.5
				c2.1-1.4,3.2-3.2,2.9-5.8C494.9,198.3,493.7,193.9,491.9,189.6 M392.2,161.6c1.8-4.8,3.5-9.4,5.2-13.9l0.8,0.2
				c0,2.4-0.3,4.8,0.1,7.1c0.4,2.1,1.7,4.1,2.7,6.6L392.2,161.6L392.2,161.6z M473.8,185.3c-1.1,0.9-1.8,2.1-2.8,3
				c-1.7,1.7-3.9,1.4-4.2-0.8c-0.3-2,0.2-4.2,0.6-6.3c0.3-2,1.2-3.5,3.4-4.4c2-0.8,3.6-2.7,5.9-4.5
				C477.3,177.3,478.1,181.7,473.8,185.3"/>
		</g>
		<g>
			<g>
				<g>
					<path class="st1" d="M187.7,268.3c-0.6-3.9-2.2-7.4-5-10.3c-3.3-3.5-5.4-7.6-5.7-12.6c-0.4-5.7-3.6-9.4-8.8-11.4
						c-1.7-0.7-2.9-1.6-3.7-3.1c-1-1.8-2.1-3.6-2.9-5.6c-1-2.4-2.8-4.1-5.2-4.6c-2.8-0.6-4-2.3-4.7-4.8c-0.2-0.9-0.5-1.8-0.7-2.7
						c-0.9-6-4.2-10.4-9.4-13.4c-1.6-1-2.5-2.3-3.2-4c-1.6-3.4-3-7-5.3-9.9c-3.3-4.1-7.5-7.2-13.4-4.9l-0.7-0.2
						c-0.7-1.5-1.4-3.2-2.3-4.7c-2.2-3.7-3.6-4-7.3-1.9l-0.5,0c-0.3-0.7-0.7-1.4-1-2.1c-1.3-2.5-2.4-5.1-3.8-7.5
						c-1.3-2.2-2.8-4.1-5.9-4c-0.8,0-1.6-0.7-2.9-1.3c1.5-1.1,2.3-1.8,3.2-2.2c2.8-1.4,5-3.5,6.1-6.5c0.5-1.3,1.4-2.1,2.6-2.5
						c1.5-0.5,3-0.9,4.6-1c4.2-0.4,6.9-2.9,9-6.1c2.1-3.4,3.6-7.1,4.3-11.1c0.3-2.1,0.7-3.9,2.8-5.2c1-0.6,1.6-2.2,2-3.4
						c0.4-1.6,0.6-3.3,0.6-5c0-2.9,0.7-5.3,2.7-7.4c3.8-3.9,4.8-8.7,4-13.9c-0.7-4.3-1.2-8.4,0.4-12.7c1.9-5,0.7-9.5-3.6-12.9
						c-1.3-1-1.8-2.2-1.6-3.8c0.1-0.9,0.2-1.9,0.3-2.8c0.1-3.2,0.3-6.5,0.4-9.7c0-0.9-0.3-1.9-0.8-2.6c-3.7-5-6.7-6.5-12-4.6
						c-1.1,0.4-2.2,0.8-3.3,1c-1.8,0.3-2.5-0.3-2.7-2.1c-0.1-1.3-0.2-2.7-0.4-4c-0.6-2.8-2.2-4.1-5-4.3c-1-0.1-2.1,0-3.1,0.2
						c-3.2,0.6-5.9,0.1-8.4-2.1c-1.8-1.5-4-2.6-6.2-3.7c-3.7-1.9-7.5-3.7-11.2-5.6c-2.3-1.2-4.6-1.9-7.2-2c-1.2,0-2.5,0.1-3.8-0.1
						c-4.1-0.7-7.3,0.8-10.4,3.2c-3.5,2.7-7,5.3-10.6,7.8c-4.8,3.3-9.9,4.9-15.7,3.1L30.9,37c-2.4-0.7-4.5-0.1-6.7,0.9
						c-3.5,1.6-6.4,4-8.9,6.9c-1.5,1.7-2.9,2.4-5.2,1.3c-2-0.9-3.2-0.5-4.1,1c-2.3,3.8-3.7,10,1,14.4c0.8,0.7,1.5,1.4,2.3,2.1
						c3.3,2.7,3.7,6.1,2.5,9.9c-0.5,1.7-1.1,3.4-1.4,5.1c-1.3,7.1-0.7,13.8,5.4,18.9c1.3,1.1,2.4,2.4,3.4,3.7
						c1.8,2.4,3.2,4.9,2.4,8.1c-0.6,2.4-0.9,4.9-1.5,7.3c-0.5,2-0.5,3.9,0.7,5.7c0.4,0.6,0.7,1.6,0.7,2.3c-0.2,2,0.2,3.7,1.1,5.5
						c0.9,1.9,1,3.7,0.4,5.8c-1,3.4-0.6,6.6,1.8,9.5c1,1.2,1.9,2.5,2.9,3.7c1.5,1.8,2.2,3.7,1.5,6.1c-0.8,2.7-0.4,5.3,0.8,7.9
						c2.6,5.5,4.3,11.4,4.3,17.5c0,3.5,0.3,7.1-1.7,10.3c-1.8,2.7-0.8,5.5,1,7.5c2.5,2.9,3.7,6.3,4.9,9.7c0.6,1.6,0.5,3-0.5,4.5
						c-2.8,4.3-2.9,9-1.8,13.9c0.8,3.4,2.3,6.5,4.2,9.4c1.3,2.1,2.3,4.2,2.7,6.6c0.3,2,1.1,3.8,2.7,5.1c0.5,0.4,1,1.2,1.1,1.8
						c0.3,3.4,1.1,6.8,0.2,10.3c-1,3.6-0.2,5.4,3.1,7.4c2.2,1.3,3,3.1,3.1,5.4c0.1,1.8,0,3.6,0.1,5.3c0.2,3.1,1.1,6,3.6,8.1
						c1.1,0.9,2.3,1.9,3.9,1.2c1.6-0.7,2.3-2.1,2.3-3.8c0-2,0-4-0.2-6c-0.2-3.5-0.1-6.7,3.4-8.7l0.5-0.4c3.7-3.7,4.1-7.6,1.5-12.1
						c-1.9-3.4-2.8-6.9-1.1-10.8c0.7-1.5,1.2-3.2,1.3-4.8c0.1-1.6,0-3.4-0.7-4.8c-1.3-2.7-3.1-5.2-4.8-7.7c-2.6-4-4.1-8-1.3-12.5
						l0.4-0.9c2.7-4.9,2.9-9.7-0.1-14.6c-0.9-1.5-1-2.9,0-4.4c1.9-2.7,1.5-5.5,0-8.3c-0.9-1.6-1.7-3.4-2.3-5.1
						c-1.2-3.4-0.1-5.4,3.9-6.8c1.6,1.7,3.3,3.7,5.1,5.6c2.7,2.8,6,3.9,9.7,2.8c2.8-0.8,4.4,0.4,5.8,2.4c1.4,2.2,2.7,4.5,4.1,6.7
						c1.2,1.7,2.5,3.4,4,4.8c1.6,1.5,2.8,1.3,4.4-0.2c2.9-2.8,3.5-2.9,6.3,0c1.5,1.6,3.2,2.7,5.5,2.5c1.7-0.2,2.8,0.5,3.5,2
						c1.5,3.2,3,6.4,4.4,9.7c1.7,4.1,4.4,5.4,8.4,3.7c0.6-0.2,1.1-0.5,1.7-0.8c2.3-0.9,2.5-1,3.8,1.2c1.6,2.7,3,5.5,4.4,8.3
						c1.8,3.8,4.7,6.3,8.7,7c2.4,0.4,3.7,1.6,4.7,3.5c0.5,1,1.1,2,1.6,3c2.3,4.8,5,9.2,10.5,11l1,0.7c2.7,1.9,5.3,3.8,5.4,7.6
						c0.2,3.7,1.7,7.1,3.1,10.5c0.9,2.3,2.3,4.2,4.6,5.4c1.8,1,3.1,2.4,3.8,4.4c0.7,1.9,1.5,3.7,2.4,5.5c1.2,2.5,3.5,4,5,3.6
						c1.6-0.4,2.5-2.2,2.4-5.3c0-1.3-0.7-2.8-0.3-4C189,274,188.1,271.2,187.7,268.3 M92.4,135.2c-0.6,0.4-1.5,0.6-2.2,0.8
						c-1.7,0.4-3.5,0.6-5.1,1.1c-1.9,0.6-3.7,1.4-5.5,2.4c-1.3,0.8-2.6,1.8-3.6,2.9c-1.4,1.7-3,2.9-5.2,3.8
						c-0.8-0.6-1.5-1.4-2.3-1.9c-3.7-2.5-5.9-2.7-8.9-0.5c-0.8,0.6-1.7,1-3.3,1.9c0.3-2,0.4-3.3,0.7-4.5c0.3-1.1,0.9-2.1,1.3-3.2
						c1.2-3.3,0.9-4.7-2.1-6.6c-1.2-0.8-1.7-1.7-1.7-3.1c0-2.1,0-4.2,0-6.3c0-3.1-1.2-5.4-4.1-6.8c-1.9-0.9-2.1-1.6-1.6-3.8
						c0.3-1.3,0.5-2.7,0.7-4c0.5-4.5-1.7-7.7-5.1-10.3c-0.6-0.5-1.1-1.3-1.1-2c0.1-3.2-1-6.4,0.3-9.6c0.8-2-0.5-3.7-1.9-5
						c-2.2-2-2.4-4.5-1.9-7.2c0.4-2.3,1.5-2.9,3.7-2.6c0.6,0.1,1.3,0.1,1.9,0.3c5.1,1.6,9.2-0.4,12.8-3.9c0.6-0.6,1.2-1.2,1.8-1.8
						c2-2,4.4-2.8,7.1-2.5c1.8,0.2,3.5,0.6,5.3,0.7c2.3,0.1,4.6,0,7.1,0c5,9.1,7.1,10.2,14.8,7.4c1.8,1.9,3.9,3.6,2.6,6.9
						c-0.6,1.5-0.1,3.1,1,4.4c1.5,1.8,3,3.5,4.6,5.1c1.1,1.1,2.5,2,3.7,3c-0.8,1.3-1.2,2.1-1.7,2.7c-1.9,2.7-2.2,4.6-0.2,6.9
						c2.8,3.2,1.3,6.5,1.2,9.9l-0.4,0.8c-2,2.2-4,4.5-6,6.7c-2,2.2-2.5,5-3,7.8c-0.3,1.6-0.4,3.3-0.6,5
						C95.2,132.1,94.3,134,92.4,135.2"/>
				</g>
				<g>
					<path class="st0" d="M187.7,268.3c-0.6-3.9-2.2-7.4-5-10.3c-3.3-3.5-5.4-7.6-5.7-12.6c-0.4-5.7-3.6-9.4-8.8-11.4
						c-1.7-0.7-2.9-1.6-3.7-3.1c-1-1.8-2.1-3.6-2.9-5.6c-1-2.4-2.8-4.1-5.2-4.6c-2.8-0.6-4-2.3-4.7-4.8c-0.2-0.9-0.5-1.8-0.7-2.7
						c-0.9-6-4.2-10.4-9.4-13.4c-1.6-1-2.5-2.3-3.2-4c-1.6-3.4-3-7-5.3-9.9c-3.3-4.1-7.5-7.2-13.4-4.9l-0.7-0.2
						c-0.7-1.5-1.4-3.2-2.3-4.7c-2.2-3.7-3.6-4-7.3-1.9l-0.5,0c-0.3-0.7-0.7-1.4-1-2.1c-1.3-2.5-2.4-5.1-3.8-7.5
						c-1.3-2.2-2.8-4.1-5.9-4c-0.8,0-1.6-0.7-2.9-1.3c1.5-1.1,2.3-1.8,3.2-2.2c2.8-1.4,5-3.5,6.1-6.5c0.5-1.3,1.4-2.1,2.6-2.5
						c1.5-0.5,3-0.9,4.6-1c4.2-0.4,6.9-2.9,9-6.1c2.1-3.4,3.6-7.1,4.3-11.1c0.3-2.1,0.7-3.9,2.8-5.2c1-0.6,1.6-2.2,2-3.4
						c0.4-1.6,0.6-3.3,0.6-5c0-2.9,0.7-5.3,2.7-7.4c3.8-3.9,4.8-8.7,4-13.9c-0.7-4.3-1.2-8.4,0.4-12.7c1.9-5,0.7-9.5-3.6-12.9
						c-1.3-1-1.8-2.2-1.6-3.8c0.1-0.9,0.2-1.9,0.3-2.8c0.1-3.2,0.3-6.5,0.4-9.7c0-0.9-0.3-1.9-0.8-2.6c-3.7-5-6.7-6.5-12-4.6
						c-1.1,0.4-2.2,0.8-3.3,1c-1.8,0.3-2.5-0.3-2.7-2.1c-0.1-1.3-0.2-2.7-0.4-4c-0.6-2.8-2.2-4.1-5-4.3c-1-0.1-2.1,0-3.1,0.2
						c-3.2,0.6-5.9,0.1-8.4-2.1c-1.8-1.5-4-2.6-6.2-3.7c-3.7-1.9-7.5-3.7-11.2-5.6c-2.3-1.2-4.6-1.9-7.2-2c-1.2,0-2.5,0.1-3.8-0.1
						c-4.1-0.7-7.3,0.8-10.4,3.2c-3.5,2.7-7,5.3-10.6,7.8c-4.8,3.3-9.9,4.9-15.7,3.1L30.9,37c-2.4-0.7-4.5-0.1-6.7,0.9
						c-3.5,1.6-6.4,4-8.9,6.9c-1.5,1.7-2.9,2.4-5.2,1.3c-2-0.9-3.2-0.5-4.1,1c-2.3,3.8-3.7,10,1,14.4c0.8,0.7,1.5,1.4,2.3,2.1
						c3.3,2.7,3.7,6.1,2.5,9.9c-0.5,1.7-1.1,3.4-1.4,5.1c-1.3,7.1-0.7,13.8,5.4,18.9c1.3,1.1,2.4,2.4,3.4,3.7
						c1.8,2.4,3.2,4.9,2.4,8.1c-0.6,2.4-0.9,4.9-1.5,7.3c-0.5,2-0.5,3.9,0.7,5.7c0.4,0.6,0.7,1.6,0.7,2.3c-0.2,2,0.2,3.7,1.1,5.5
						c0.9,1.9,1,3.7,0.4,5.8c-1,3.4-0.6,6.6,1.8,9.5c1,1.2,1.9,2.5,2.9,3.7c1.5,1.8,2.2,3.7,1.5,6.1c-0.8,2.7-0.4,5.3,0.8,7.9
						c2.6,5.5,4.3,11.4,4.3,17.5c0,3.5,0.3,7.1-1.7,10.3c-1.8,2.7-0.8,5.5,1,7.5c2.5,2.9,3.7,6.3,4.9,9.7c0.6,1.6,0.5,3-0.5,4.5
						c-2.8,4.3-2.9,9-1.8,13.9c0.8,3.4,2.3,6.5,4.2,9.4c1.3,2.1,2.3,4.2,2.7,6.6c0.3,2,1.1,3.8,2.7,5.1c0.5,0.4,1,1.2,1.1,1.8
						c0.3,3.4,1.1,6.8,0.2,10.3c-1,3.6-0.2,5.4,3.1,7.4c2.2,1.3,3,3.1,3.1,5.4c0.1,1.8,0,3.6,0.1,5.3c0.2,3.1,1.1,6,3.6,8.1
						c1.1,0.9,2.3,1.9,3.9,1.2c1.6-0.7,2.3-2.1,2.3-3.8c0-2,0-4-0.2-6c-0.2-3.5-0.1-6.7,3.4-8.7l0.5-0.4c3.7-3.7,4.1-7.6,1.5-12.1
						c-1.9-3.4-2.8-6.9-1.1-10.8c0.7-1.5,1.2-3.2,1.3-4.8c0.1-1.6,0-3.4-0.7-4.8c-1.3-2.7-3.1-5.2-4.8-7.7c-2.6-4-4.1-8-1.3-12.5
						l0.4-0.9c2.7-4.9,2.9-9.7-0.1-14.6c-0.9-1.5-1-2.9,0-4.4c1.9-2.7,1.5-5.5,0-8.3c-0.9-1.6-1.7-3.4-2.3-5.1
						c-1.2-3.4-0.1-5.4,3.9-6.8c1.6,1.7,3.3,3.7,5.1,5.6c2.7,2.8,6,3.9,9.7,2.8c2.8-0.8,4.4,0.4,5.8,2.4c1.4,2.2,2.7,4.5,4.1,6.7
						c1.2,1.7,2.5,3.4,4,4.8c1.6,1.5,2.8,1.3,4.4-0.2c2.9-2.8,3.5-2.9,6.3,0c1.5,1.6,3.2,2.7,5.5,2.5c1.7-0.2,2.8,0.5,3.5,2
						c1.5,3.2,3,6.4,4.4,9.7c1.7,4.1,4.4,5.4,8.4,3.7c0.6-0.2,1.1-0.5,1.7-0.8c2.3-0.9,2.5-1,3.8,1.2c1.6,2.7,3,5.5,4.4,8.3
						c1.8,3.8,4.7,6.3,8.7,7c2.4,0.4,3.7,1.6,4.7,3.5c0.5,1,1.1,2,1.6,3c2.3,4.8,5,9.2,10.5,11l1,0.7c2.7,1.9,5.3,3.8,5.4,7.6
						c0.2,3.7,1.7,7.1,3.1,10.5c0.9,2.3,2.3,4.2,4.6,5.4c1.8,1,3.1,2.4,3.8,4.4c0.7,1.9,1.5,3.7,2.4,5.5c1.2,2.5,3.5,4,5,3.6
						c1.6-0.4,2.5-2.2,2.4-5.3c0-1.3-0.7-2.8-0.3-4C189,274,188.1,271.2,187.7,268.3 M92.4,135.2c-0.6,0.4-1.5,0.6-2.2,0.8
						c-1.7,0.4-3.5,0.6-5.1,1.1c-1.9,0.6-3.7,1.4-5.5,2.4c-1.3,0.8-2.6,1.8-3.6,2.9c-1.4,1.7-3,2.9-5.2,3.8
						c-0.8-0.6-1.5-1.4-2.3-1.9c-3.7-2.5-5.9-2.7-8.9-0.5c-0.8,0.6-1.7,1-3.3,1.9c0.3-2,0.4-3.3,0.7-4.5c0.3-1.1,0.9-2.1,1.3-3.2
						c1.2-3.3,0.9-4.7-2.1-6.6c-1.2-0.8-1.7-1.7-1.7-3.1c0-2.1,0-4.2,0-6.3c0-3.1-1.2-5.4-4.1-6.8c-1.9-0.9-2.1-1.6-1.6-3.8
						c0.3-1.3,0.5-2.7,0.7-4c0.5-4.5-1.7-7.7-5.1-10.3c-0.6-0.5-1.1-1.3-1.1-2c0.1-3.2-1-6.4,0.3-9.6c0.8-2-0.5-3.7-1.9-5
						c-2.2-2-2.4-4.5-1.9-7.2c0.4-2.3,1.5-2.9,3.7-2.6c0.6,0.1,1.3,0.1,1.9,0.3c5.1,1.6,9.2-0.4,12.8-3.9c0.6-0.6,1.2-1.2,1.8-1.8
						c2-2,4.4-2.8,7.1-2.5c1.8,0.2,3.5,0.6,5.3,0.7c2.3,0.1,4.6,0,7.1,0c5,9.1,7.1,10.2,14.8,7.4c1.8,1.9,3.9,3.6,2.6,6.9
						c-0.6,1.5-0.1,3.1,1,4.4c1.5,1.8,3,3.5,4.6,5.1c1.1,1.1,2.5,2,3.7,3c-0.8,1.3-1.2,2.1-1.7,2.7c-1.9,2.7-2.2,4.6-0.2,6.9
						c2.8,3.2,1.3,6.5,1.2,9.9l-0.4,0.8c-2,2.2-4,4.5-6,6.7c-2,2.2-2.5,5-3,7.8c-0.3,1.6-0.4,3.3-0.6,5
						C95.2,132.1,94.3,134,92.4,135.2"/>
				</g>
				<path class="st2" d="M187.7,268.3c-0.6-3.9-2.2-7.4-5-10.3c-3.3-3.5-5.4-7.6-5.7-12.6c-0.4-5.7-3.6-9.4-8.8-11.4
					c-1.7-0.7-2.9-1.6-3.7-3.1c-1-1.8-2.1-3.6-2.9-5.6c-1-2.4-2.8-4.1-5.2-4.6c-2.8-0.6-4-2.3-4.7-4.8c-0.2-0.9-0.5-1.8-0.7-2.7
					c-0.9-6-4.2-10.4-9.4-13.4c-1.6-1-2.5-2.3-3.2-4c-1.6-3.4-3-7-5.3-9.9c-3.3-4.1-7.5-7.2-13.4-4.9l-0.7-0.2
					c-0.7-1.5-1.4-3.2-2.3-4.7c-2.2-3.7-3.6-4-7.3-1.9l-0.5,0c-0.3-0.7-0.7-1.4-1-2.1c-1.3-2.5-2.4-5.1-3.8-7.5
					c-1.3-2.2-2.8-4.1-5.9-4c-0.8,0-1.6-0.7-2.9-1.3c1.5-1.1,2.3-1.8,3.2-2.2c2.8-1.4,5-3.5,6.1-6.5c0.5-1.3,1.4-2.1,2.6-2.5
					c1.5-0.5,3-0.9,4.6-1c4.2-0.4,6.9-2.9,9-6.1c2.1-3.4,3.6-7.1,4.3-11.1c0.3-2.1,0.7-3.9,2.8-5.2c1-0.6,1.6-2.2,2-3.4
					c0.4-1.6,0.6-3.3,0.6-5c0-2.9,0.7-5.3,2.7-7.4c3.8-3.9,4.8-8.7,4-13.9c-0.7-4.3-1.2-8.4,0.4-12.7c1.9-5,0.7-9.5-3.6-12.9
					c-1.3-1-1.8-2.2-1.6-3.8c0.1-0.9,0.2-1.9,0.3-2.8c0.1-3.2,0.3-6.5,0.4-9.7c0-0.9-0.3-1.9-0.8-2.6c-3.7-5-6.7-6.5-12-4.6
					c-1.1,0.4-2.2,0.8-3.3,1c-1.8,0.3-2.5-0.3-2.7-2.1c-0.1-1.3-0.2-2.7-0.4-4c-0.6-2.8-2.2-4.1-5-4.3c-1-0.1-2.1,0-3.1,0.2
					c-3.2,0.6-5.9,0.1-8.4-2.1c-1.8-1.5-4-2.6-6.2-3.7c-3.7-1.9-7.5-3.7-11.2-5.6c-2.3-1.2-4.6-1.9-7.2-2c-1.2,0-2.5,0.1-3.8-0.1
					c-4.1-0.7-7.3,0.8-10.4,3.2c-3.5,2.7-7,5.3-10.6,7.8c-4.8,3.3-9.9,4.9-15.7,3.1L30.9,37c-2.4-0.7-4.5-0.1-6.7,0.9
					c-3.5,1.6-6.4,4-8.9,6.9c-1.5,1.7-2.9,2.4-5.2,1.3c-2-0.9-3.2-0.5-4.1,1c-2.3,3.8-3.7,10,1,14.4c0.8,0.7,1.5,1.4,2.3,2.1
					c3.3,2.7,3.7,6.1,2.5,9.9c-0.5,1.7-1.1,3.4-1.4,5.1c-1.3,7.1-0.7,13.8,5.4,18.9c1.3,1.1,2.4,2.4,3.4,3.7
					c1.8,2.4,3.2,4.9,2.4,8.1c-0.6,2.4-0.9,4.9-1.5,7.3c-0.5,2-0.5,3.9,0.7,5.7c0.4,0.6,0.7,1.6,0.7,2.3c-0.2,2,0.2,3.7,1.1,5.5
					c0.9,1.9,1,3.7,0.4,5.8c-1,3.4-0.6,6.6,1.8,9.5c1,1.2,1.9,2.5,2.9,3.7c1.5,1.8,2.2,3.7,1.5,6.1c-0.8,2.7-0.4,5.3,0.8,7.9
					c2.6,5.5,4.3,11.4,4.3,17.5c0,3.5,0.3,7.1-1.7,10.3c-1.8,2.7-0.8,5.5,1,7.5c2.5,2.9,3.7,6.3,4.9,9.7c0.6,1.6,0.5,3-0.5,4.5
					c-2.8,4.3-2.9,9-1.8,13.9c0.8,3.4,2.3,6.5,4.2,9.4c1.3,2.1,2.3,4.2,2.7,6.6c0.3,2,1.1,3.8,2.7,5.1c0.5,0.4,1,1.2,1.1,1.8
					c0.3,3.4,1.1,6.8,0.2,10.3c-1,3.6-0.2,5.4,3.1,7.4c2.2,1.3,3,3.1,3.1,5.4c0.1,1.8,0,3.6,0.1,5.3c0.2,3.1,1.1,6,3.6,8.1
					c1.1,0.9,2.3,1.9,3.9,1.2c1.6-0.7,2.3-2.1,2.3-3.8c0-2,0-4-0.2-6c-0.2-3.5-0.1-6.7,3.4-8.7l0.5-0.4c3.7-3.7,4.1-7.6,1.5-12.1
					c-1.9-3.4-2.8-6.9-1.1-10.8c0.7-1.5,1.2-3.2,1.3-4.8c0.1-1.6,0-3.4-0.7-4.8c-1.3-2.7-3.1-5.2-4.8-7.7c-2.6-4-4.1-8-1.3-12.5
					l0.4-0.9c2.7-4.9,2.9-9.7-0.1-14.6c-0.9-1.5-1-2.9,0-4.4c1.9-2.7,1.5-5.5,0-8.3c-0.9-1.6-1.7-3.4-2.3-5.1
					c-1.2-3.4-0.1-5.4,3.9-6.8c1.6,1.7,3.3,3.7,5.1,5.6c2.7,2.8,6,3.9,9.7,2.8c2.8-0.8,4.4,0.4,5.8,2.4c1.4,2.2,2.7,4.5,4.1,6.7
					c1.2,1.7,2.5,3.4,4,4.8c1.6,1.5,2.8,1.3,4.4-0.2c2.9-2.8,3.5-2.9,6.3,0c1.5,1.6,3.2,2.7,5.5,2.5c1.7-0.2,2.8,0.5,3.5,2
					c1.5,3.2,3,6.4,4.4,9.7c1.7,4.1,4.4,5.4,8.4,3.7c0.6-0.2,1.1-0.5,1.7-0.8c2.3-0.9,2.5-1,3.8,1.2c1.6,2.7,3,5.5,4.4,8.3
					c1.8,3.8,4.7,6.3,8.7,7c2.4,0.4,3.7,1.6,4.7,3.5c0.5,1,1.1,2,1.6,3c2.3,4.8,5,9.2,10.5,11l1,0.7c2.7,1.9,5.3,3.8,5.4,7.6
					c0.2,3.7,1.7,7.1,3.1,10.5c0.9,2.3,2.3,4.2,4.6,5.4c1.8,1,3.1,2.4,3.8,4.4c0.7,1.9,1.5,3.7,2.4,5.5c1.2,2.5,3.5,4,5,3.6
					c1.6-0.4,2.5-2.2,2.4-5.3c0-1.3-0.7-2.8-0.3-4C189,274,188.1,271.2,187.7,268.3 M92.4,135.2c-0.6,0.4-1.5,0.6-2.2,0.8
					c-1.7,0.4-3.5,0.6-5.1,1.1c-1.9,0.6-3.7,1.4-5.5,2.4c-1.3,0.8-2.6,1.8-3.6,2.9c-1.4,1.7-3,2.9-5.2,3.8c-0.8-0.6-1.5-1.4-2.3-1.9
					c-3.7-2.5-5.9-2.7-8.9-0.5c-0.8,0.6-1.7,1-3.3,1.9c0.3-2,0.4-3.3,0.7-4.5c0.3-1.1,0.9-2.1,1.3-3.2c1.2-3.3,0.9-4.7-2.1-6.6
					c-1.2-0.8-1.7-1.7-1.7-3.1c0-2.1,0-4.2,0-6.3c0-3.1-1.2-5.4-4.1-6.8c-1.9-0.9-2.1-1.6-1.6-3.8c0.3-1.3,0.5-2.7,0.7-4
					c0.5-4.5-1.7-7.7-5.1-10.3c-0.6-0.5-1.1-1.3-1.1-2c0.1-3.2-1-6.4,0.3-9.6c0.8-2-0.5-3.7-1.9-5c-2.2-2-2.4-4.5-1.9-7.2
					c0.4-2.3,1.5-2.9,3.7-2.6c0.6,0.1,1.3,0.1,1.9,0.3c5.1,1.6,9.2-0.4,12.8-3.9c0.6-0.6,1.2-1.2,1.8-1.8c2-2,4.4-2.8,7.1-2.5
					c1.8,0.2,3.5,0.6,5.3,0.7c2.3,0.1,4.6,0,7.1,0c5,9.1,7.1,10.2,14.8,7.4c1.8,1.9,3.9,3.6,2.6,6.9c-0.6,1.5-0.1,3.1,1,4.4
					c1.5,1.8,3,3.5,4.6,5.1c1.1,1.1,2.5,2,3.7,3c-0.8,1.3-1.2,2.1-1.7,2.7c-1.9,2.7-2.2,4.6-0.2,6.9c2.8,3.2,1.3,6.5,1.2,9.9
					l-0.4,0.8c-2,2.2-4,4.5-6,6.7c-2,2.2-2.5,5-3,7.8c-0.3,1.6-0.4,3.3-0.6,5C95.2,132.1,94.3,134,92.4,135.2"/>
			</g>
			<g>
				<path class="st1" d="M344.1,93c-2.2,0.4-4.6,0.6-6.7,1.4c-2.5,1-5,2.3-7.1,4c-6.4,4.9-12.6,10.1-18.8,15.2
					c-1.5,1.3-2.9,2.8-5.1,2.6c-1.9-0.2-3.5,0.6-4.9,1.7c-2.3,1.8-4.5,3.8-6.8,5.6c-1.1,0.8-2.2,1.6-3.4,2.1
					c-2.1,0.9-4.2,1.6-6.4,2.4c-1.4-2.5-1.6-5.2-0.1-7.9c0.6-1.1,1.1-2.3,1.3-3.5c0.6-3.6,1.4-7.2-0.7-10.7c-0.6-1-0.4-2.6-0.5-4
					c-0.1-1.8,0.2-3.8-0.5-5.2c-1.2-2.5-0.8-4.6,0-6.9c0.3-0.9,0.6-1.8,0.9-2.7c1.1-4,1.4-8,0.6-12.1c-0.9-4.5-4.8-5.9-8.5-3.1
					c-0.7,0.5-1.3,1-1.9,1.5c-3.7-0.9-4.4-0.8-6,1.6c-0.7,1.1-1.3,2.4-1.4,3.7c-0.2,1.9,0.1,3.8,0,5.6c-0.1,5.8,0.4,11.8-0.6,17.5
					c-1.3,7.4-2.9,14.8-5.7,21.8c-0.8,2.1-1.1,4.5-1.6,6.7c-0.5,2.1-0.8,4.3-1.5,6.4c-1,3.3-2.3,6.5-3.3,9.8
					c-0.3,1.2-0.4,2.5-0.2,3.7c0.2,2,1.5,3.5,3.4,4.1c1.8,0.6,3-0.3,4.1-1.6c1.3-1.5,2.5-3.1,3.8-4.6c0.6-0.6,1.2-1.2,1.8-1.8
					l0.7,0.4c-0.4,1.8-0.9,3.6-1.3,5.3c-0.3,1.3-0.7,2.6-0.7,4c-0.1,4.9-0.8,9.5-3.4,13.8c-1.1,1.8-1.7,4.2,0.1,5.8
					c2,1.7,1.8,3.6,1.4,5.7c-1.2,6.5-2.3,13-3.6,19.4c-0.2,1.1-0.6,2.2-1,3.3c-1.7,3.5-2.3,7.3-3.1,11.1c-0.9,4.1,1,6.6,3.4,9.2
					c1.5,1.6,2.9,1.7,4.4,0.2c1.4-1.5,2.9-3.2,3.5-5.1c1.2-3.9,2.6-7.7,4.3-11.4c0.4-0.9,0.7-2,0.9-3c0.9-4,1.7-8,2.5-12
					c0.8-3.8,1.6-7.5,2.5-11.8c3.3,1.6,4.9-0.6,6.7-2.7c0.4-0.5,1.1-0.7,1.9-1.1c0.7,1.9,1.1,3.6,1.9,4.9c0.9,1.4,2.3,2.4,3.5,3.5
					l0.7,1c2.6,4.9,5.6,9.7,5.9,15.4c0.2,3.5,2,6.1,4.6,8.2c3.1,2.5,4.9,5.8,5.6,9.5c1.1,5.1,3.6,9.3,6.7,13.3
					c1.4,1.8,2,3.6,2.2,5.7c0.2,1.7,0.4,3.6,1.1,5.2c1.3,2.6,2.3,5.1,2.5,8c0.1,2.1,1.8,3.4,3.8,3.4c2.2,0,3.3-0.9,3.8-3.3
					c0.1-0.4,0.1-0.8,0.2-1.4c3.1,0.1,4.7-0.8,5.1-3.2c0.5-3.3,0.9-6.6-0.4-9.9c-0.6-1.6-1.1-3.2-1.6-4.7c-3.1-9.3-6-18.7-6.5-28.7
					c-0.1-2.4-1.4-4.8-2.7-6.9c-2.2-3.5-3.9-7-4.6-11.2c-0.9-5.6-3.2-7.6-8.8-8.5c-2.1-0.4-4-1-5.4-2.9c-3-4.3-6.1-8.5-9.2-12.7
					c-0.4-0.6-0.8-1.3-1.1-1.9c-1-1.7-2-3.4-3.1-5.1c-2.2-3.3-1-7.2,2.8-8.7c2.3-0.9,4.7-1.7,7-2.6c6.7-2.6,11.3-6.9,13-14.1
					c1-4.2,3.2-7.7,7.5-9.4c0.9-0.3,1.7-0.9,2.5-1.3c4.4-2,7.5-5.3,9.5-9.6c0.8-1.7,2.1-2.7,3.5-3.9c2.9-2.5,5.7-5.3,8.4-8
					c0.8-0.8,1.4-1.9,0.7-3.1C346.4,93.3,345.4,92.8,344.1,93"/>
				<path class="st0" d="M344.1,93c-2.2,0.4-4.6,0.6-6.7,1.4c-2.5,1-5,2.3-7.1,4c-6.4,4.9-12.6,10.1-18.8,15.2
					c-1.5,1.3-2.9,2.8-5.1,2.6c-1.9-0.2-3.5,0.6-4.9,1.7c-2.3,1.8-4.5,3.8-6.8,5.6c-1.1,0.8-2.2,1.6-3.4,2.1
					c-2.1,0.9-4.2,1.6-6.4,2.4c-1.4-2.5-1.6-5.2-0.1-7.9c0.6-1.1,1.1-2.3,1.3-3.5c0.6-3.6,1.4-7.2-0.7-10.7c-0.6-1-0.4-2.6-0.5-4
					c-0.1-1.8,0.2-3.8-0.5-5.2c-1.2-2.5-0.8-4.6,0-6.9c0.3-0.9,0.6-1.8,0.9-2.7c1.1-4,1.4-8,0.6-12.1c-0.9-4.5-4.8-5.9-8.5-3.1
					c-0.7,0.5-1.3,1-1.9,1.5c-3.7-0.9-4.4-0.8-6,1.6c-0.7,1.1-1.3,2.4-1.4,3.7c-0.2,1.9,0.1,3.8,0,5.6c-0.1,5.8,0.4,11.8-0.6,17.5
					c-1.3,7.4-2.9,14.8-5.7,21.8c-0.8,2.1-1.1,4.5-1.6,6.7c-0.5,2.1-0.8,4.3-1.5,6.4c-1,3.3-2.3,6.5-3.3,9.8
					c-0.3,1.2-0.4,2.5-0.2,3.7c0.2,2,1.5,3.5,3.4,4.1c1.8,0.6,3-0.3,4.1-1.6c1.3-1.5,2.5-3.1,3.8-4.6c0.6-0.6,1.2-1.2,1.8-1.8
					l0.7,0.4c-0.4,1.8-0.9,3.6-1.3,5.3c-0.3,1.3-0.7,2.6-0.7,4c-0.1,4.9-0.8,9.5-3.4,13.8c-1.1,1.8-1.7,4.2,0.1,5.8
					c2,1.7,1.8,3.6,1.4,5.7c-1.2,6.5-2.3,13-3.6,19.4c-0.2,1.1-0.6,2.2-1,3.3c-1.7,3.5-2.3,7.3-3.1,11.1c-0.9,4.1,1,6.6,3.4,9.2
					c1.5,1.6,2.9,1.7,4.4,0.2c1.4-1.5,2.9-3.2,3.5-5.1c1.2-3.9,2.6-7.7,4.3-11.4c0.4-0.9,0.7-2,0.9-3c0.9-4,1.7-8,2.5-12
					c0.8-3.8,1.6-7.5,2.5-11.8c3.3,1.6,4.9-0.6,6.7-2.7c0.4-0.5,1.1-0.7,1.9-1.1c0.7,1.9,1.1,3.6,1.9,4.9c0.9,1.4,2.3,2.4,3.5,3.5
					l0.7,1c2.6,4.9,5.6,9.7,5.9,15.4c0.2,3.5,2,6.1,4.6,8.2c3.1,2.5,4.9,5.8,5.6,9.5c1.1,5.1,3.6,9.3,6.7,13.3
					c1.4,1.8,2,3.6,2.2,5.7c0.2,1.7,0.4,3.6,1.1,5.2c1.3,2.6,2.3,5.1,2.5,8c0.1,2.1,1.8,3.4,3.8,3.4c2.2,0,3.3-0.9,3.8-3.3
					c0.1-0.4,0.1-0.8,0.2-1.4c3.1,0.1,4.7-0.8,5.1-3.2c0.5-3.3,0.9-6.6-0.4-9.9c-0.6-1.6-1.1-3.2-1.6-4.7c-3.1-9.3-6-18.7-6.5-28.7
					c-0.1-2.4-1.4-4.8-2.7-6.9c-2.2-3.5-3.9-7-4.6-11.2c-0.9-5.6-3.2-7.6-8.8-8.5c-2.1-0.4-4-1-5.4-2.9c-3-4.3-6.1-8.5-9.2-12.7
					c-0.4-0.6-0.8-1.3-1.1-1.9c-1-1.7-2-3.4-3.1-5.1c-2.2-3.3-1-7.2,2.8-8.7c2.3-0.9,4.7-1.7,7-2.6c6.7-2.6,11.3-6.9,13-14.1
					c1-4.2,3.2-7.7,7.5-9.4c0.9-0.3,1.7-0.9,2.5-1.3c4.4-2,7.5-5.3,9.5-9.6c0.8-1.7,2.1-2.7,3.5-3.9c2.9-2.5,5.7-5.3,8.4-8
					c0.8-0.8,1.4-1.9,0.7-3.1C346.4,93.3,345.4,92.8,344.1,93"/>
				<path class="st2" d="M344.1,93c-2.2,0.4-4.6,0.6-6.7,1.4c-2.5,1-5,2.3-7.1,4c-6.4,4.9-12.6,10.1-18.8,15.2
					c-1.5,1.3-2.9,2.8-5.1,2.6c-1.9-0.2-3.5,0.6-4.9,1.7c-2.3,1.8-4.5,3.8-6.8,5.6c-1.1,0.8-2.2,1.6-3.4,2.1
					c-2.1,0.9-4.2,1.6-6.4,2.4c-1.4-2.5-1.6-5.2-0.1-7.9c0.6-1.1,1.1-2.3,1.3-3.5c0.6-3.6,1.4-7.2-0.7-10.7c-0.6-1-0.4-2.6-0.5-4
					c-0.1-1.8,0.2-3.8-0.5-5.2c-1.2-2.5-0.8-4.6,0-6.9c0.3-0.9,0.6-1.8,0.9-2.7c1.1-4,1.4-8,0.6-12.1c-0.9-4.5-4.8-5.9-8.5-3.1
					c-0.7,0.5-1.3,1-1.9,1.5c-3.7-0.9-4.4-0.8-6,1.6c-0.7,1.1-1.3,2.4-1.4,3.7c-0.2,1.9,0.1,3.8,0,5.6c-0.1,5.8,0.4,11.8-0.6,17.5
					c-1.3,7.4-2.9,14.8-5.7,21.8c-0.8,2.1-1.1,4.5-1.6,6.7c-0.5,2.1-0.8,4.3-1.5,6.4c-1,3.3-2.3,6.5-3.3,9.8
					c-0.3,1.2-0.4,2.5-0.2,3.7c0.2,2,1.5,3.5,3.4,4.1c1.8,0.6,3-0.3,4.1-1.6c1.3-1.5,2.5-3.1,3.8-4.6c0.6-0.6,1.2-1.2,1.8-1.8
					l0.7,0.4c-0.4,1.8-0.9,3.6-1.3,5.3c-0.3,1.3-0.7,2.6-0.7,4c-0.1,4.9-0.8,9.5-3.4,13.8c-1.1,1.8-1.7,4.2,0.1,5.8
					c2,1.7,1.8,3.6,1.4,5.7c-1.2,6.5-2.3,13-3.6,19.4c-0.2,1.1-0.6,2.2-1,3.3c-1.7,3.5-2.3,7.3-3.1,11.1c-0.9,4.1,1,6.6,3.4,9.2
					c1.5,1.6,2.9,1.7,4.4,0.2c1.4-1.5,2.9-3.2,3.5-5.1c1.2-3.9,2.6-7.7,4.3-11.4c0.4-0.9,0.7-2,0.9-3c0.9-4,1.7-8,2.5-12
					c0.8-3.8,1.6-7.5,2.5-11.8c3.3,1.6,4.9-0.6,6.7-2.7c0.4-0.5,1.1-0.7,1.9-1.1c0.7,1.9,1.1,3.6,1.9,4.9c0.9,1.4,2.3,2.4,3.5,3.5
					l0.7,1c2.6,4.9,5.6,9.7,5.9,15.4c0.2,3.5,2,6.1,4.6,8.2c3.1,2.5,4.9,5.8,5.6,9.5c1.1,5.1,3.6,9.3,6.7,13.3
					c1.4,1.8,2,3.6,2.2,5.7c0.2,1.7,0.4,3.6,1.1,5.2c1.3,2.6,2.3,5.1,2.5,8c0.1,2.1,1.8,3.4,3.8,3.4c2.2,0,3.3-0.9,3.8-3.3
					c0.1-0.4,0.1-0.8,0.2-1.4c3.1,0.1,4.7-0.8,5.1-3.2c0.5-3.3,0.9-6.6-0.4-9.9c-0.6-1.6-1.1-3.2-1.6-4.7c-3.1-9.3-6-18.7-6.5-28.7
					c-0.1-2.4-1.4-4.8-2.7-6.9c-2.2-3.5-3.9-7-4.6-11.2c-0.9-5.6-3.2-7.6-8.8-8.5c-2.1-0.4-4-1-5.4-2.9c-3-4.3-6.1-8.5-9.2-12.7
					c-0.4-0.6-0.8-1.3-1.1-1.9c-1-1.7-2-3.4-3.1-5.1c-2.2-3.3-1-7.2,2.8-8.7c2.3-0.9,4.7-1.7,7-2.6c6.7-2.6,11.3-6.9,13-14.1
					c1-4.2,3.2-7.7,7.5-9.4c0.9-0.3,1.7-0.9,2.5-1.3c4.4-2,7.5-5.3,9.5-9.6c0.8-1.7,2.1-2.7,3.5-3.9c2.9-2.5,5.7-5.3,8.4-8
					c0.8-0.8,1.4-1.9,0.7-3.1C346.4,93.3,345.4,92.8,344.1,93"/>
			</g>
			<g>
				<path class="st1" d="M244.8,180c-3.7,2.7-6.2,2.7-10,0.1c-1.1-0.8-2.2-1.6-3.3-2.4c-2-1.3-4.1-1.8-6.1-0.1c-1.2,1-2.5,1-3.8,0.3
					c-2.2-1.1-4.3-0.7-6.2,0.5c-1.5,0.9-2.9,2.1-4.4,3c-2.1,1.2-4.1,0.1-4.1-2.3c0-0.8,0.1-1.7,0.5-2.4c0.7-1.5,1.5-3,2.3-4.4
					c1-1.8,2.3-3.5,3.2-5.4c1.9-4.4,1.2-6.5-2.6-9.1c-0.4-0.3-0.9-0.6-1.6-1c0.5-4,3.1-6.4,5.9-8.7c3.7-3.1,7.4-6.1,11-9.4
					c2-1.8,3.3-4.1,1.9-6.9c2-1.2,4-1.7,6.1-1.7c1.8,0,3.6,0,5.3-0.1c4.5-0.2,8.4-1.6,11.2-5.4c1.2-1.6,1.7-3.4,0.7-5.3
					c-0.9-1.7-2.4-2.5-4.4-2.4c-3.4,0.1-6.9,0.2-10.3,0.5c-1.6,0.1-2.8,0.2-3.9-1.2c-1.2-1.5-2.9-1.9-4.8-1.8
					c-4.7,0.3-9,1.9-12.6,4.9c-1.1,0.9-2.2,2.5-2.4,3.8c-0.4,3.5-2.4,5.1-5.6,5.7l-1.5,0.5c-6.3,1.8-8.3,4.3-9.2,10.7
					c-0.4,2.7-0.7,5.5-1.9,7.8c-1.7,3.2-2.7,6.5-2.9,10.1c-0.1,2.4-1,4.4-2.7,6.2c-1.1,1.2-2.4,2.4-3.2,3.9c-1,1.9-1.8,4-2.2,6.1
					c-0.4,2.6,1.3,4.3,3.9,4.5c0.5,0,0.9,0,1.7,0c-0.7,1.2-1.4,2-1.7,2.9c-0.6,1.9-1.4,3.8-1.5,5.7c-0.3,3,1.2,4.4,4.2,4.6
					c1.5,0.1,2.9,0.1,4.4,0.1c3,0.1,4,1.1,3.4,4.1c-0.5,2.8,0,5.1,2.3,6.7c2.1,1.5,2.5,3.4,2.6,5.6c0,1.5,0.2,2.9,0.6,4.3
					c0.3,1,0.9,2.1,1.7,2.9c1.3,1.4,3.1,1.6,4.5,0.3c1.2-1.1,2.3-2.5,3-3.9c1.2-2.2,2-4.6,3.2-6.8c0.9-1.7,2-3.4,3.3-4.9
					c1.1-1.3,2.5-1.9,4.5-1.2c1.2,0.5,2.9,0.2,4.2-0.3c1.5-0.6,3-1.6,4.2-2.7c2.1-1.9,4.4-2.5,7.2-2c6.5,1.1,12.4-3.2,13.4-9.7
					c0.2-1.3-0.1-3-0.7-4.1C250.1,177.9,247.7,177.9,244.8,180"/>
				<path class="st0" d="M244.8,180c-3.7,2.7-6.2,2.7-10,0.1c-1.1-0.8-2.2-1.6-3.3-2.4c-2-1.3-4.1-1.8-6.1-0.1c-1.2,1-2.5,1-3.8,0.3
					c-2.2-1.1-4.3-0.7-6.2,0.5c-1.5,0.9-2.9,2.1-4.4,3c-2.1,1.2-4.1,0.1-4.1-2.3c0-0.8,0.1-1.7,0.5-2.4c0.7-1.5,1.5-3,2.3-4.4
					c1-1.8,2.3-3.5,3.2-5.4c1.9-4.4,1.2-6.5-2.6-9.1c-0.4-0.3-0.9-0.6-1.6-1c0.5-4,3.1-6.4,5.9-8.7c3.7-3.1,7.4-6.1,11-9.4
					c2-1.8,3.3-4.1,1.9-6.9c2-1.2,4-1.7,6.1-1.7c1.8,0,3.6,0,5.3-0.1c4.5-0.2,8.4-1.6,11.2-5.4c1.2-1.6,1.7-3.4,0.7-5.3
					c-0.9-1.7-2.4-2.5-4.4-2.4c-3.4,0.1-6.9,0.2-10.3,0.5c-1.6,0.1-2.8,0.2-3.9-1.2c-1.2-1.5-2.9-1.9-4.8-1.8
					c-4.7,0.3-9,1.9-12.6,4.9c-1.1,0.9-2.2,2.5-2.4,3.8c-0.4,3.5-2.4,5.1-5.6,5.7l-1.5,0.5c-6.3,1.8-8.3,4.3-9.2,10.7
					c-0.4,2.7-0.7,5.5-1.9,7.8c-1.7,3.2-2.7,6.5-2.9,10.1c-0.1,2.4-1,4.4-2.7,6.2c-1.1,1.2-2.4,2.4-3.2,3.9c-1,1.9-1.8,4-2.2,6.1
					c-0.4,2.6,1.3,4.3,3.9,4.5c0.5,0,0.9,0,1.7,0c-0.7,1.2-1.4,2-1.7,2.9c-0.6,1.9-1.4,3.8-1.5,5.7c-0.3,3,1.2,4.4,4.2,4.6
					c1.5,0.1,2.9,0.1,4.4,0.1c3,0.1,4,1.1,3.4,4.1c-0.5,2.8,0,5.1,2.3,6.7c2.1,1.5,2.5,3.4,2.6,5.6c0,1.5,0.2,2.9,0.6,4.3
					c0.3,1,0.9,2.1,1.7,2.9c1.3,1.4,3.1,1.6,4.5,0.3c1.2-1.1,2.3-2.5,3-3.9c1.2-2.2,2-4.6,3.2-6.8c0.9-1.7,2-3.4,3.3-4.9
					c1.1-1.3,2.5-1.9,4.5-1.2c1.2,0.5,2.9,0.2,4.2-0.3c1.5-0.6,3-1.6,4.2-2.7c2.1-1.9,4.4-2.5,7.2-2c6.5,1.1,12.4-3.2,13.4-9.7
					c0.2-1.3-0.1-3-0.7-4.1C250.1,177.9,247.7,177.9,244.8,180"/>
				<path class="st2" d="M244.8,180c-3.7,2.7-6.2,2.7-10,0.1c-1.1-0.8-2.2-1.6-3.3-2.4c-2-1.3-4.1-1.8-6.1-0.1c-1.2,1-2.5,1-3.8,0.3
					c-2.2-1.1-4.3-0.7-6.2,0.5c-1.5,0.9-2.9,2.1-4.4,3c-2.1,1.2-4.1,0.1-4.1-2.3c0-0.8,0.1-1.7,0.5-2.4c0.7-1.5,1.5-3,2.3-4.4
					c1-1.8,2.3-3.5,3.2-5.4c1.9-4.4,1.2-6.5-2.6-9.1c-0.4-0.3-0.9-0.6-1.6-1c0.5-4,3.1-6.4,5.9-8.7c3.7-3.1,7.4-6.1,11-9.4
					c2-1.8,3.3-4.1,1.9-6.9c2-1.2,4-1.7,6.1-1.7c1.8,0,3.6,0,5.3-0.1c4.5-0.2,8.4-1.6,11.2-5.4c1.2-1.6,1.7-3.4,0.7-5.3
					c-0.9-1.7-2.4-2.5-4.4-2.4c-3.4,0.1-6.9,0.2-10.3,0.5c-1.6,0.1-2.8,0.2-3.9-1.2c-1.2-1.5-2.9-1.9-4.8-1.8
					c-4.7,0.3-9,1.9-12.6,4.9c-1.1,0.9-2.2,2.5-2.4,3.8c-0.4,3.5-2.4,5.1-5.6,5.7l-1.5,0.5c-6.3,1.8-8.3,4.3-9.2,10.7
					c-0.4,2.7-0.7,5.5-1.9,7.8c-1.7,3.2-2.7,6.5-2.9,10.1c-0.1,2.4-1,4.4-2.7,6.2c-1.1,1.2-2.4,2.4-3.2,3.9c-1,1.9-1.8,4-2.2,6.1
					c-0.4,2.6,1.3,4.3,3.9,4.5c0.5,0,0.9,0,1.7,0c-0.7,1.2-1.4,2-1.7,2.9c-0.6,1.9-1.4,3.8-1.5,5.7c-0.3,3,1.2,4.4,4.2,4.6
					c1.5,0.1,2.9,0.1,4.4,0.1c3,0.1,4,1.1,3.4,4.1c-0.5,2.8,0,5.1,2.3,6.7c2.1,1.5,2.5,3.4,2.6,5.6c0,1.5,0.2,2.9,0.6,4.3
					c0.3,1,0.9,2.1,1.7,2.9c1.3,1.4,3.1,1.6,4.5,0.3c1.2-1.1,2.3-2.5,3-3.9c1.2-2.2,2-4.6,3.2-6.8c0.9-1.7,2-3.4,3.3-4.9
					c1.1-1.3,2.5-1.9,4.5-1.2c1.2,0.5,2.9,0.2,4.2-0.3c1.5-0.6,3-1.6,4.2-2.7c2.1-1.9,4.4-2.5,7.2-2c6.5,1.1,12.4-3.2,13.4-9.7
					c0.2-1.3-0.1-3-0.7-4.1C250.1,177.9,247.7,177.9,244.8,180"/>
			</g>
			<g>
				<g>
					<path class="st1" d="M170.1,145.5c-0.1-3.9,0.6-7.7,1.9-11.4c1-2.7,1.6-5.6,0.3-8.3c-1.5-3-1.8-5.9-1.2-9.1v-1.3
						c-0.2-2.4-1.3-3.6-3.7-3.8c-2.2-0.2-4.1,0.3-6,1.5c-0.6,0.4-1.5,0.8-2.2,0.8c-3.8-0.2-5.2,0.8-4.7,4.5c0.5,4,0,7.7-1.3,11.4
						c-0.2,0.6-0.3,1.2-0.4,1.8c-0.5,2.3-0.2,4.2,2.2,5.2c1.5,0.7,1.9,2,1.6,3.4c-0.2,1.3-0.8,2.6-1.3,3.8c-0.8,2.1-1.9,4.2-2.6,6.4
						c-1.2,3.6-0.8,6.8,2.4,9.3c1.3,1,1.9,2.2,1.8,3.8c-0.1,3.1-0.1,6.3-0.6,9.3c-0.3,2.1-0.7,4.2,0.3,6.1c0.9,1.8,1,3.6,0.6,5.5
						c-0.5,2.3-0.1,4.4,1.2,6.3c1.2,1.7,1.6,3.6,1.5,5.7c0,1.9,0,3.8,0,5.7h-0.1c0,2.2-0.1,4.4,0,6.6c0.1,2.7,0.7,5.2,2.6,7.2
						c2.1,2.2,4.7,1.9,6.3-0.6c0.4-0.7,0.8-1.5,0.9-2.3c0.3-2.5,0.7-5,0.5-7.5c-0.4-6,0.2-11.7,3.1-17c0.5-0.9,0.6-2,1-3
						c1.6-4.1,1.1-8-0.9-11.8l-0.3-0.6c-1-2-1-4,0.3-6c1-1.6,1.8-3.3,2.8-4.9c2.4-3.5,2.1-8-2.6-10.7
						C170.8,150.2,170.2,148.1,170.1,145.5"/>
					<path class="st0" d="M170.1,145.5c-0.1-3.9,0.6-7.7,1.9-11.4c1-2.7,1.6-5.6,0.3-8.3c-1.5-3-1.8-5.9-1.2-9.1v-1.3
						c-0.2-2.4-1.3-3.6-3.7-3.8c-2.2-0.2-4.1,0.3-6,1.5c-0.6,0.4-1.5,0.8-2.2,0.8c-3.8-0.2-5.2,0.8-4.7,4.5c0.5,4,0,7.7-1.3,11.4
						c-0.2,0.6-0.3,1.2-0.4,1.8c-0.5,2.3-0.2,4.2,2.2,5.2c1.5,0.7,1.9,2,1.6,3.4c-0.2,1.3-0.8,2.6-1.3,3.8c-0.8,2.1-1.9,4.2-2.6,6.4
						c-1.2,3.6-0.8,6.8,2.4,9.3c1.3,1,1.9,2.2,1.8,3.8c-0.1,3.1-0.1,6.3-0.6,9.3c-0.3,2.1-0.7,4.2,0.3,6.1c0.9,1.8,1,3.6,0.6,5.5
						c-0.5,2.3-0.1,4.4,1.2,6.3c1.2,1.7,1.6,3.6,1.5,5.7c0,1.9,0,3.8,0,5.7h-0.1c0,2.2-0.1,4.4,0,6.6c0.1,2.7,0.7,5.2,2.6,7.2
						c2.1,2.2,4.7,1.9,6.3-0.6c0.4-0.7,0.8-1.5,0.9-2.3c0.3-2.5,0.7-5,0.5-7.5c-0.4-6,0.2-11.7,3.1-17c0.5-0.9,0.6-2,1-3
						c1.6-4.1,1.1-8-0.9-11.8l-0.3-0.6c-1-2-1-4,0.3-6c1-1.6,1.8-3.3,2.8-4.9c2.4-3.5,2.1-8-2.6-10.7
						C170.8,150.2,170.2,148.1,170.1,145.5"/>
					<path class="st2" d="M170.1,145.5c-0.1-3.9,0.6-7.7,1.9-11.4c1-2.7,1.6-5.6,0.3-8.3c-1.5-3-1.8-5.9-1.2-9.1v-1.3
						c-0.2-2.4-1.3-3.6-3.7-3.8c-2.2-0.2-4.1,0.3-6,1.5c-0.6,0.4-1.5,0.8-2.2,0.8c-3.8-0.2-5.2,0.8-4.7,4.5c0.5,4,0,7.7-1.3,11.4
						c-0.2,0.6-0.3,1.2-0.4,1.8c-0.5,2.3-0.2,4.2,2.2,5.2c1.5,0.7,1.9,2,1.6,3.4c-0.2,1.3-0.8,2.6-1.3,3.8c-0.8,2.1-1.9,4.2-2.6,6.4
						c-1.2,3.6-0.8,6.8,2.4,9.3c1.3,1,1.9,2.2,1.8,3.8c-0.1,3.1-0.1,6.3-0.6,9.3c-0.3,2.1-0.7,4.2,0.3,6.1c0.9,1.8,1,3.6,0.6,5.5
						c-0.5,2.3-0.1,4.4,1.2,6.3c1.2,1.7,1.6,3.6,1.5,5.7c0,1.9,0,3.8,0,5.7h-0.1c0,2.2-0.1,4.4,0,6.6c0.1,2.7,0.7,5.2,2.6,7.2
						c2.1,2.2,4.7,1.9,6.3-0.6c0.4-0.7,0.8-1.5,0.9-2.3c0.3-2.5,0.7-5,0.5-7.5c-0.4-6,0.2-11.7,3.1-17c0.5-0.9,0.6-2,1-3
						c1.6-4.1,1.1-8-0.9-11.8l-0.3-0.6c-1-2-1-4,0.3-6c1-1.6,1.8-3.3,2.8-4.9c2.4-3.5,2.1-8-2.6-10.7
						C170.8,150.2,170.2,148.1,170.1,145.5"/>
				</g>
				<g>
					<path class="st1" d="M158.1,100.4c2.4,2,5.3,2.7,8.2,1.7c3-1.1,4.5-3.6,4.7-6.8c0.3-4.3,0.9-8.5,2-12.7
						c1.1-4.5-1.6-7.3-6.7-6.6c0.3-1.5,0.5-2.7,0.7-3.9c0.4-3.6-2.2-7-5.4-6.6c-2.4,0.3-4.7,1.2-6.4,3.1c-1.9,2.1-2.6,5.4-1,7.8
						c1.4,2.1,1,3.8-0.1,5.8c-1.1,2-2.1,4.1-2.8,6.3c-0.9,3-0.5,5.8,1.9,8C154.8,97.8,156.5,99.1,158.1,100.4"/>
					<path class="st0" d="M158.1,100.4c2.4,2,5.3,2.7,8.2,1.7c3-1.1,4.5-3.6,4.7-6.8c0.3-4.3,0.9-8.5,2-12.7
						c1.1-4.5-1.6-7.3-6.7-6.6c0.3-1.5,0.5-2.7,0.7-3.9c0.4-3.6-2.2-7-5.4-6.6c-2.4,0.3-4.7,1.2-6.4,3.1c-1.9,2.1-2.6,5.4-1,7.8
						c1.4,2.1,1,3.8-0.1,5.8c-1.1,2-2.1,4.1-2.8,6.3c-0.9,3-0.5,5.8,1.9,8C154.8,97.8,156.5,99.1,158.1,100.4"/>
					<path class="st2" d="M158.1,100.4c2.4,2,5.3,2.7,8.2,1.7c3-1.1,4.5-3.6,4.7-6.8c0.3-4.3,0.9-8.5,2-12.7
						c1.1-4.5-1.6-7.3-6.7-6.6c0.3-1.5,0.5-2.7,0.7-3.9c0.4-3.6-2.2-7-5.4-6.6c-2.4,0.3-4.7,1.2-6.4,3.1c-1.9,2.1-2.6,5.4-1,7.8
						c1.4,2.1,1,3.8-0.1,5.8c-1.1,2-2.1,4.1-2.8,6.3c-0.9,3-0.5,5.8,1.9,8C154.8,97.8,156.5,99.1,158.1,100.4"/>
				</g>
			</g>
		</g>
	</g>
</g>
</svg>
