<svg xmlns="http://www.w3.org/2000/svg" viewBox="0 0 834 619">
	<g>
		<path d="M671.92,94.28c-7.37-.75-8.69-2-9.42-9a1.34,1.34,0,0,0-1.35-1.21h0a1.32,1.32,0,0,0-1.34,1.21c-.73,6.76-2.15,8.18-8.95,8.93a1.35,1.35,0,0,0,0,2.69c6.72.68,8.13,2.14,8.91,9.17a1.32,1.32,0,0,0,1.34,1.2h0a1.34,1.34,0,0,0,1.34-1.21c.71-6.93,2.12-8.29,9.46-9.1a1.34,1.34,0,0,0,1.2-1.35A1.32,1.32,0,0,0,671.92,94.28Z"/>
		<g>
			<path d="M671.82,166.61a85.23,85.23,0,0,0,13.31-8.6,109.84,109.84,0,0,0,11.79-10.46,71.46,71.46,0,0,0,9.6-12.14c2.64-4.33,4.58-9,4.93-13.7a3,3,0,0,1,6,.46,2.89,2.89,0,0,1,0,.29h0a36.93,36.93,0,0,1-7.15,15.46A75.22,75.22,0,0,1,699,149.74a111.78,111.78,0,0,1-13,9.5A86.25,86.25,0,0,1,671.82,166.61Z"/>
			<path d="M646.65,203.88A109.49,109.49,0,0,0,662,198.29a107.86,107.86,0,0,0,14.27-7.65,82.39,82.39,0,0,0,12.61-9.82,59.93,59.93,0,0,0,9.83-12.15v0a3,3,0,1,1,5.14,3.12,1.88,1.88,0,0,1-.16.23,65.08,65.08,0,0,1-11.86,12.21,85.77,85.77,0,0,1-14.07,9,116.45,116.45,0,0,1-31.09,10.64Z"/>
		</g>
		<g>
			<path d="M728.71,59.27c-1.26-.64-3.21-1.24-5.68,1-4.77,4.31-7.57,15.6-4.17,24.25,2.76,7,9,10.65,18.15,10.55h0a3.5,3.5,0,0,1,3.25,4.81c-.85,2.09.63,4.44,1.58,5.66,3.71,4.73,12.34,9.08,21,7.84,7.61-1.09,13.5-6.34,17-15.18A3.49,3.49,0,0,1,783.47,96c8.71.67,15.57-2.36,19.3-8.55a20.61,20.61,0,0,0-.18-20.9c-3.62-5.75-9.94-8.49-17.78-7.73A3.51,3.51,0,0,1,781,55c1-11.34-2.21-19.24-9.41-22.85-9.09-4.57-23.75-1.76-32.68,6.26-3.21,2.88-8.17,8.86-5.32,16.5a3.5,3.5,0,0,1-4.87,4.34Z" fill="#fff"/>
			<path d="M759.88,120.59c-9.92,0-19-5.06-23.5-10.73a14.47,14.47,0,0,1-3.31-8c-13.35-1.26-18.69-9.64-20.73-14.83-4.17-10.63-1.43-25.29,6-32a12.3,12.3,0,0,1,7.44-3.37c-.47-6.59,2.45-13.1,8.45-18.49,9.71-8.71,27.51-13.83,40.5-7.31,11.36,5.7,13.53,17.38,13.44,25.81,8.7.24,16,4.17,20.35,11.11a27.46,27.46,0,0,1,.25,28.25c-4.66,7.73-13,12-23,12h-.31c-4.6,9.79-12.18,15.87-21.55,17.21A28.8,28.8,0,0,1,759.88,120.59ZM737.06,95.07a3.5,3.5,0,0,1,3.25,4.81c-.85,2.09.63,4.44,1.58,5.66,3.71,4.73,12.34,9.08,21,7.84,7.61-1.09,13.5-6.34,17-15.18A3.49,3.49,0,0,1,783.47,96c8.71.67,15.57-2.36,19.3-8.55a20.61,20.61,0,0,0-.18-20.9c-3.62-5.75-9.94-8.49-17.78-7.73A3.51,3.51,0,0,1,781,55c1-11.34-2.21-19.24-9.41-22.85-9.09-4.57-23.75-1.76-32.68,6.26-3.21,2.88-8.17,8.86-5.32,16.5a3.5,3.5,0,0,1-4.87,4.34c-1.26-.64-3.21-1.24-5.68,1-4.77,4.31-7.57,15.6-4.17,24.25,2.76,7,9,10.65,18.15,10.55Z"/>
			<circle cx="738.31" cy="73.25" r="3.5"/>
			<circle cx="780.48" cy="73.25" r="3.5"/>
			<path d="M760.75,83a3.18,3.18,0,0,1-1.39-.29c-1.68-.78-2.26-6.48-2.14-7.5h0c.14-1.13.84-2.69,3.44-3.67,2.12-.8,3.29-.18,3.89.48,1.74,1.91.62,6.14-1,9.47A3.06,3.06,0,0,1,760.75,83ZM760.3,81c.49.16,1.29,0,1.45-.33,1.73-3.54,2-6.46,1.33-7.24-.36-.39-1.23-.14-1.71,0-1.33.5-2.06,1.19-2.16,2A14.73,14.73,0,0,0,760.3,81Zm0,0Z"/>
		</g>
	</g>
	<g>
		<g>
			<g>
				<polygon points="303.28 552.07 221.55 518.68 226.89 556.29 226.89 556.29 307.42 589.66 303.28 552.07 303.28 552.07" fill="#fff"/>
				<polygon points="308.36 552.5 308.36 552.5 312.54 590.51 312.54 590.51 608.75 590.51 608.75 590.51 614.77 552.5 614.77 552.5 308.36 552.5" fill="#fff"/>
				<polygon points="293.26 461.09 291.06 441.1 291.05 441.1 205.01 408.51 220.71 513.39 220.71 513.39 302.7 546.84 293.26 461.09" fill="#fff"/>
				<path d="M290.49,436,272,268.05h0s-90.19-32-94.27-33.39c-2-.69-2.59-.95-1.8,2.55l28.27,165.17h0L290.49,436Z" fill="#fff"/>
				<polygon points="296.11 441.36 296.11 441.36 307.81 547.5 307.81 547.5 615.56 547.5 615.56 547.5 632.36 441.36 632.36 441.36 296.11 441.36" fill="#fff"/>
				<polygon points="277.1 268.72 277.1 268.72 295.56 436.36 295.56 436.36 633.15 436.36 633.15 436.36 659.69 268.72 659.69 268.72 277.1 268.72" fill="#fff"/>
			</g>
			<path d="M664.52,264.59a2.53,2.53,0,0,0-1.91-.87H274.74L178.8,229.48l1.57-3.63-9.37.89a1.55,1.55,0,0,0-.61.06h0a1.54,1.54,0,0,0-1,1.8c4.85,20.73,43.48,268.72,52.08,320.45.41,2.5.7,5,.91,7.53.29,3.36.91,3.92,1.68,4.12l85.63,34.72h.06a2.79,2.79,0,0,0,.58.07H610.89a2.5,2.5,0,0,0,2.47-2.11l51.72-326.79A2.51,2.51,0,0,0,664.52,264.59ZM204.19,402.38,175.92,237.21c-.79-3.5-.19-3.24,1.8-2.55,4.08,1.42,94.27,33.39,94.27,33.39h0L290.49,436h0l-86.3-33.61Zm16.52,111h0L205,408.51l86,32.59h0l2.21,20,9.44,85.75Zm6.18,42.9h0l-5.34-37.61,81.73,33.39h0l4.14,37.59Zm381.86,34.22H312.54l-4.18-38H614.77Zm6.81-43H307.81l-11.7-106.14H632.36Zm17.59-111.14H295.56L277.09,268.72h382.6Z"/>
		</g>
		<g>
			<path d="M464.58,545c-35.58,0-69.07-5.31-94.3-14.94-26-9.93-40.3-23.43-40.3-38s14.31-28.09,40.3-38C395.51,444.33,429,439,464.58,439s69.08,5.3,94.31,14.94c26,9.93,40.3,23.43,40.3,38s-14.31,28.09-40.3,38C533.66,539.64,500.17,545,464.58,545Zm0-100.92c-35,0-67.84,5.19-92.52,14.61C348.49,467.64,335,479.8,335,492s13.51,24.34,37.08,33.35C396.74,534.76,429.6,540,464.58,540s67.85-5.19,92.53-14.61c23.56-9,37.08-21.16,37.08-33.35s-13.52-24.35-37.08-33.35C532.43,449.22,499.58,444,464.58,444Z"/>
			<path d="M464.58,533.26C404.8,533.26,358,514.69,358,491s46.83-42.27,106.61-42.27S571.2,467.29,571.2,491,524.37,533.26,464.58,533.26Zm0-79.54C409.5,453.72,363,470.79,363,491s46.53,37.27,101.61,37.27S566.2,511.19,566.2,491,519.67,453.72,464.58,453.72Z"/>
			<g>
				<path d="M474.1,493.61a2,2,0,0,0-2.75.69,4.22,4.22,0,0,1-5.1,2.1c-2.77-.75-5-3.38-5.05-5.86,0-3,3.17-5.62,8.77-7.24a2,2,0,1,0-1.11-3.85c-10.2,3-11.69,8.23-11.66,11.12,0,4.29,3.47,8.46,8,9.69a9.28,9.28,0,0,0,2.46.34,8.17,8.17,0,0,0,7.13-4.25A2,2,0,0,0,474.1,493.61Z"/>
				<path d="M420.32,480.48l-.28-.06a4.92,4.92,0,0,0-4.09.92c-2.8,2.2-3.32,7.29-3.47,10.93l0,.33h0c-.52,9.74,4.16,11.63,7,11.89l.49,0a5.74,5.74,0,0,0,4-1.7c2.33-2.2,3.85-6.65,3.7-10.82C427.29,482.62,423.83,481.16,420.32,480.48Zm.86,19.43a1.64,1.64,0,0,1-1.36.59c-.93-.08-3.76-.34-3.36-7.69v-.38c.24-5.76,1.33-7.45,1.95-7.94a.91.91,0,0,1,.83-.15l.3.06c2.05.4,3.83.75,4.08,7.74C423.74,495.14,422.69,498.48,421.18,499.91Z"/>
				<path d="M402,479.52a12.34,12.34,0,0,0-12.51.68,2,2,0,0,0-.83,1.64c0,2.78.1,6.56.16,10.27,0,0,0,.06,0,.08.12,6.63.25,13,.25,13.13a2,2,0,0,0,2,2h0a2,2,0,0,0,2-2c0-.09-.1-5.08-.21-10.8,4.79.52,8.82-.26,11.28-2.21a6.2,6.2,0,0,0,2.49-4.66A8.45,8.45,0,0,0,402,479.52Zm-.33,9.58c-1.7,1.35-4.95,1.81-8.87,1.3-.05-2.67-.1-5.29-.12-7.47a8.57,8.57,0,0,1,7.43.11,4.52,4.52,0,0,1,2.54,4.36A2.28,2.28,0,0,1,401.68,489.1Z"/>
				<path d="M436.94,479.42a2,2,0,0,0-1.59,1.93l-.3,23.35a2,2,0,0,0,2,2h0a2,2,0,0,0,2-2l.13-9.89c4.72.31,8.54-1.17,10.47-4.15a7,7,0,0,0-.11-7.87C447.26,479.52,442.55,478.24,436.94,479.42Zm9.34,9.12c-1.14,1.77-3.72,2.59-7,2.32l.1-7.78c3.23-.37,5.76.35,6.92,2A3,3,0,0,1,446.28,488.54Z"/>
				<path d="M485.73,478.92c-3.13.58-5.46,3-6.41,6.54-1.69,6.43-.84,11.92,2.34,15.07a7.36,7.36,0,0,0,5.2,2.23,7.13,7.13,0,0,0,1.93-.27c3.41-.94,6.07-4.2,7.29-8.94.78-3,.88-7.58-1.36-10.69A9.23,9.23,0,0,0,485.73,478.92Zm6.48,13.63c-.84,3.27-2.52,5.54-4.48,6.08a3.24,3.24,0,0,1-3.25-.94c-2.11-2.09-2.59-6.28-1.29-11.21.55-2.08,1.68-3.33,3.27-3.62a3.35,3.35,0,0,1,.71-.07,5.55,5.55,0,0,1,4.31,2.4C492.75,487,492.81,490.24,492.21,492.55Z"/>
				<path d="M517.77,479a2,2,0,0,0-2.09,1.92v.69c0,2.25-.34,2.29-1.07,2.36a5.3,5.3,0,0,1-1-.26,9.52,9.52,0,0,0-3.65-.62,9.75,9.75,0,0,0-2.29.4c0-1.48,0-2.43,0-2.47a2,2,0,0,0-2-2h0a2,2,0,0,0-2,2c0,.64-.16,15.79,0,20.41a2,2,0,0,0,2,1.93h.07a2,2,0,0,0,1.93-2.07c-.08-2.29-.08-7.4-.06-11.91a2.08,2.08,0,0,0,.08-.83c0-.81.87-1.33,2.49-1.42a6.15,6.15,0,0,1,2.18.42,6.18,6.18,0,0,0,2.55.44c4.75-.46,4.73-4.9,4.72-6.36,0-.19,0-.36,0-.51A2,2,0,0,0,517.77,479Z"/>
				<path d="M537.31,481.46c-2-.66-4.9-.58-8.31,2.43v-2.08a2,2,0,1,0-4,0v20a2,2,0,0,0,4,0V489.85c1.69-2.28,4.55-5.41,7.07-4.59a3.24,3.24,0,0,1,2.06,3.2l-.2,13.3a2,2,0,0,0,2,2h0a2,2,0,0,0,2-2l.2-13.3A7.25,7.25,0,0,0,537.31,481.46Z"/>
			</g>
		</g>
		<g>
			<path d="M451.33,379.11a13.21,13.21,0,0,1,1.73-6.54,17.73,17.73,0,0,1,4.61-5.31,22.38,22.38,0,0,1,13.3-4.54,20.82,20.82,0,0,1,13.41,4.48,16.77,16.77,0,0,1,6.27,11.91,25.39,25.39,0,0,0-8.9-8,22.79,22.79,0,0,0-10.71-2.4,25.86,25.86,0,0,0-10.84,2.51A21,21,0,0,0,451.33,379.11Z"/>
			<g>
				<g>
					<g>
						<path d="M330,402.9c4.72-3.52,7.31-5.35,9.45-8.64" fill="none" stroke="#000" stroke-linecap="round" stroke-linejoin="round" stroke-width="4"/>
						<path d="M339.43,410.14a31.3,31.3,0,0,0,9.28-7.24" fill="none" stroke="#000" stroke-linecap="round" stroke-linejoin="round" stroke-width="4"/>
					</g>
					<path d="M339.43,420.82c-13.51,0-24.49-12.23-24.49-27.28s11-27.28,24.49-27.28,24.49,12.24,24.49,27.28S352.93,420.82,339.43,420.82Zm0-52.56c-12.41,0-22.49,11.34-22.49,25.28s10.08,25.28,22.49,25.28,22.49-11.34,22.49-25.28S351.83,368.26,339.43,368.26Z"/>
					<circle cx="366.96" cy="367.27" r="29.67"/>
				</g>
				<g>
					<g>
						<path d="M587.56,401.92c1.63,2.12,6.9,6.32,8.21,7.16" fill="none" stroke="#000" stroke-linecap="round" stroke-linejoin="round" stroke-width="4"/>
						<path d="M597.42,393.92a35.51,35.51,0,0,0,7.67,7.64" fill="none" stroke="#000" stroke-linecap="round" stroke-linejoin="round" stroke-width="4"/>
					</g>
					<path d="M596.64,419c-13.47,0-24.44-11.83-24.44-26.37s11-26.37,24.44-26.37,24.45,11.83,24.45,26.37S610.12,419,596.64,419Zm0-50.74c-12.37,0-22.44,10.94-22.44,24.37S584.27,417,596.64,417s22.45-10.93,22.45-24.37S609,368.26,596.64,368.26Z"/>
					<circle cx="567.02" cy="365.13" r="29.67"/>
				</g>
			</g>
		</g>
		<g>
			<path d="M657,263.09c-3.5,1.36-5.89-2.71-3.49-6.08,3.14-4.42,3.82-11.94-.47-18.64-4.65-7.26-11.94-8.07-23.3-2.51-.79.39-2.76.9-3.5.41s-1.21-2.49-1.16-3.37c.35-6.9-.15-12.21-2.92-15.19A8.91,8.91,0,0,0,620.1,216c-.76,9-9.52,18.64-17.9,19.57a14.18,14.18,0,0,1-1.43.08,11.1,11.1,0,0,1-8.47-3.93,6.55,6.55,0,0,0-7.45-1.47c-7.78,3.33-13.16-2.22-15.21-4.44-7-7.56-7.17-20.38-.11-27.32A13.52,13.52,0,0,1,584,195.18c.09,0,.17,0,.25,0a20.25,20.25,0,0,0-9-8.12c-4.29-2-12.47,0-17.37,2.12-1.45.64-4.34,1.2-5.35,0a3.32,3.32,0,0,1,.35-5c6.45-5.32,13.69-11.63,10-17.71-5.34-8.83-28.13-12.29-41.36-6.18-9,4.15-7.38,9.65-6.71,11.66a3,3,0,0,1-3.17,3.93,15.44,15.44,0,0,0-8.29,1.43,23.23,23.23,0,0,1-1.13,6.42,3.05,3.05,0,0,0,2.29,3.95c9.15,1.89,20.13,6.57,20.38,17.79.24,10.65-6.73,20.74-16.51,22.71a46.55,46.55,0,0,1-7.43.43c-2.48,0-5.11-.73-7.68-4.4a3.07,3.07,0,0,0-4.88-.18,6.92,6.92,0,0,1-4.9,2.9,5.59,5.59,0,0,1-.82,0,26.71,26.71,0,0,1,4.55,12.3,2.44,2.44,0,0,1-1.2,2.56,3.23,3.23,0,0,1-4.08-1.63,2.72,2.72,0,0,1-.12-.25c-4.91-12.51-11.06-18.57-19.14-19.75-10.75-1.57-15.08,3.63-16.6,5-1.35,1-3.09,1.92-4,1.41a2,2,0,0,1-.8-2.71c1-1.94,4.32-9.75,19.87-9.71,4.41,0,9.36,1.79,13.77,4.89a32.92,32.92,0,0,0-22.16-12.84c-3.58-.79-8.84-6.79-6-12.41,2.27-4.54,5.95-6.4,10.05-7.34,0,0-1.14-12.59,5.6-21.74a15.18,15.18,0,0,0-7.08-2.1,18.22,18.22,0,0,1-2.8,5.35c-4.06,5.29-8.18,9.13-16.38,6.6-.29-.09-.48.07-.43.37,1.21,6.83-.55,13.75-5.39,18.25A21.13,21.13,0,0,1,418,198.94a19.52,19.52,0,0,1-9.69-2.19c-2.54-1.53-8.83-5.37-5.85-18.24a.56.56,0,0,0-.59-.73c-6.17.12-9.26-2.95-10.68-5.15-4-6.15-1.71-15.48,2.67-20.59.27-.32.56-.61.84-.89-7.77,1.39-12.85,8.39-10.9,15.37,1,3.58-.29,5-2.39,5v0c-4.05-.57-6.27.52-8.88,1.84a25.46,25.46,0,0,1-.64,5c-1.53,6.61,12,.66,17.24,11.15,8.32,17.05-20.93,45.87-34.48,29.38a2.82,2.82,0,0,0-4.12-.08c-24.36,26.53-50.05-12.61-19.9-26.07,1.32-.59,3.26-1.43,3.23-2.88a33.88,33.88,0,0,1,.89-15c-4.28-.11-17.07.87-20.93,17.38a3.78,3.78,0,0,1-3.75,3,24.48,24.48,0,0,1-5.65-1.1c-5.11-1.39-10.9-3-18.06,2.9a3.51,3.51,0,0,1-3.9.36c-9.89-5.4-17.86-6.77-29.16-4.39,7.26,5.71,7,18.3,1.55,24.84-3.76,4.47-9.82,5.2-14.74,4.49a2.09,2.09,0,0,0-2.46,2.1,16,16,0,0,1-2.2,7.75c-3.09,4.31-7.75,7.64-13.53,7.64a20.71,20.71,0,0,1-10.3-1.48c-4.71-1.93-6.94-6.71-7.94-11.58-.27-1.33-2.24-1.17-3.6-1.22a15.55,15.55,0,0,1-9.52-3.77,13.65,13.65,0,0,0-7.23,9.39l91.46,32.64H656.3A4.85,4.85,0,0,1,657,263.09ZM320,243.53c-1.55,8.21-8.65,14.76-19.66,15.64a11.91,11.91,0,0,1-10.45-6.11,3.1,3.1,0,0,0-4.18-1.3c-14.32,7.76-22.64,2-26.33-.54-8.67-5.95-9.28-19.42-4-28.3,2.05-3.46,7.3-11.73,19.37-10.24,1.67.21,3.55.49,3.81-1.17a15.58,15.58,0,0,1,7.52-11.08c6.54-4,15-3.5,20.21,1.19,3.21,2.92,7.4,9.49,2.94,22.29a3,3,0,0,0,1.63,3.73C321.45,232.39,320.62,240.29,320,243.53Zm83.55-25.43c-26.39,4.81-26.32,13.06-26.57,19.31-.17,4.46-3.15,5.55-4.68,3.85-9.78-10.86-27.52-17.43-43.44-3.66a.76.76,0,0,1-1.07-1.07c11.25-13.28,32.28-10.76,42.36-2.35,1,.81,2,.22,2.1-1.05,1.31-12.44,22.3-21.5,44.24-19.14C419.7,215.74,406.82,217.5,403.55,218.1Zm157.12,19.22c-2.15-1.51-36.72-32.73-43.19.24-.9,2.33-2.6,1.33-2.77.29-.36-31.34,33.15-21.38,49.26-4.78C566.87,236.06,564,239.65,560.67,237.32Z" fill="#fff"/>
			<path d="M362.59,186.43a4.38,4.38,0,0,1,.37-3.23c3.56-5.47,4.83-13.18.08-18a10.41,10.41,0,0,0-2.53-1.83c-15.18-8.08-25.48,13.29-23.64,26.81.29,2.8,3.65,1.28,5.62,1.6,3.76-.11,4.43,6.65.41,6.51-13.14-.17-18.55,6.89-18.59,13.37,0,8.74,9.08,10.54,15.64,7.26,10.64-5.31,11-15.47,15.56-8.47,4,6.16,9.21,6.77,15,4.1,8.53-3.94,14.06-15.05,11.79-21.94C378.64,182.66,364.05,192.61,362.59,186.43Z" fill="#fff"/>
			<path d="M247.11,198c-3.56-1.35-6.66-1.21-9.77.75a8.08,8.08,0,0,1-3.16,1c-2.92.18-4.25-1.71-2.78-6.46,3.5-11.26-1.46-16.86-6.2-18.52-8.87-3.11-14.3.25-16.95,4.28-4.55,6.9-5.41,12.29-.88,16.86,1.21,1.22,3.95,1.09,3.93,2.8,0,2.1-1.25,3.36-4.8,2.62-4.69-1-8.37-1.34-10.75,1.42-2.65,3.06-3.62,7.49-1.55,10.88s6.3,4.42,12,3a3.42,3.42,0,0,1,.83-.1,3.56,3.56,0,0,1,3.49,3c.07.31.26,1.58.29,1.9.44,4,1.28,8,5.07,9.52,4.49,1.84,13.72,1.94,14.83-6.76.59-4.57-2.64-5.05-5.5-8.29a3,3,0,0,1-.74-2.41c.44-2.87,3.49-4.2,5.35-2.7,7.55,6.1,16.66,5.53,18.91,3.39C254,209.25,253,200.25,247.11,198Z" fill="#fff"/>
			<path d="M431.15,154.46a6.18,6.18,0,0,1-3.16.45,3,3,0,0,1-2.34-4.1c5.79-14.46,5.61-24.53.08-28.24-3.94-2.65-10-1.09-14.68,3.4-10.18,9.86-2.21,21.78-.68,24.19a.7.7,0,0,1,.11.37,3.11,3.11,0,0,1-4.29,3.32c-2.89-1.3-5.52-.59-7.82,2.09-3.3,3.85-4.33,10.13-2.19,13.44S403,172,406.57,171a3.05,3.05,0,0,1,3.9,2.88.85.85,0,0,1,0,.32c-2.22,7.92-1.31,13.79,2.48,16.08,3.2,1.92,8.15,1,11.52-2.13,2.25-2.09,6.26-7.41.68-18.44a5.5,5.5,0,0,1-.09-3.14c.66-1.93,3.2-2.47,4.77-1.63,7.87,4.19,13.13,4,16.64-.56,2.9-3.78,3.45-8.48.61-11.53C443.76,149.27,439.12,149.19,431.15,154.46Z" fill="#fff"/>
			<path d="M489.52,191.6c-.48-1.44.44-2.56,2.62-4.64,5.68-5.41,4.6-12.08,3.06-15.81-2.95-7.13-8.87-9.31-16.34-8.13-8.05,1.27-16.17,7.34-15.73,22.63,0,0,5.81-.54,7-.52,5.64.09,5.46,3.06-4.11,4.71-2.21.38-4.68.93-6.14,1.18a14.71,14.71,0,0,0-2.54.62c-3.08,1.06-5.13,2.55-5.55,3.66-1.22,3.19.83,4.7,2.45,5.5a3.19,3.19,0,0,0,1.17.32l1.13,0c5.11.18,14.38,1.15,25.69,16.26.88,1.17,3.34,1.19,3.94,0a17.09,17.09,0,0,0,1.51-5c.23-1.7.76-3.8,3.9-3.45,2,.23,3.06,1.14,3.12,3.06.26,9.69,4.32,10.31,8.67,10.57,6.94.4,15.74-8,14.08-17.05-1.42-7.71-8.36-11.53-23.16-12.13C493.19,193.38,490.3,194,489.52,191.6Z" fill="#fff"/>
			<path d="M603.46,178.93c-6.45,1.75-11.61,11-9.36,25.8a2.27,2.27,0,0,1-2.83,2.57,1.44,1.44,0,0,1-1-.78c-4.39-11.17-11.59-8.7-16.34-4s-4.43,13.52.47,18.41c4,4,11.71,8.26,14.36,0,1.14-3.52,7-3.63,5.75.62-1.64,5.5,3.76,6.63,7.36,6.63,7.25,0,11.23-6.24,11.62-12.31a7.4,7.4,0,0,0-3.24-7.08c-1.57-1.14-3.14-1.57-3.59-3.36-.34-1.41.69-2.56,4.5-2.24,7.87.67,8.3-10.29,5.79-16.3S608.67,177.5,603.46,178.93Z" fill="#fff"/>
			<path d="M301.29,232.36a3,3,0,0,1-2-1.65,2.45,2.45,0,0,1,0-2.56c8.86-10.14,7-20.21,2.88-24-3.19-2.9-9.08-2.49-13.33.11s-5.47,8.39-4,13.79a2.85,2.85,0,0,1,0,1.56,3,3,0,0,1-3.93,2.08c-9.55-3.38-16.82-1.87-20.46,4.26a15.92,15.92,0,0,0,2.76,19.56c5.85,5.24,20.19,6.11,25.63-5,.29-.59,1.16-.59,1.8-.59a3,3,0,0,1,2.51,1.32,2.88,2.88,0,0,1,.47,1.36c.68,6.17,3.21,9.88,7.43,9.45,9-.91,12.28-5.86,12.14-11.45C313.12,234.16,306.2,233.65,301.29,232.36Z" fill="#fff"/>
		</g>
		<g>
			<path d="M310.85,227.64a3,3,0,0,1-1.63-3.73c4.46-12.8.27-19.37-2.94-22.29-5.17-4.69-13.67-5.2-20.21-1.19a15.58,15.58,0,0,0-7.52,11.08c-.26,1.66-2.14,1.38-3.81,1.17-12.07-1.49-17.32,6.78-19.37,10.24-5.27,8.88-4.66,22.35,4,28.3,3.69,2.53,12,8.3,26.33.54a3.1,3.1,0,0,1,4.18,1.3,11.91,11.91,0,0,0,10.45,6.11c11-.88,18.11-7.43,19.66-15.64C320.62,240.29,321.45,232.39,310.85,227.64Zm-9.72,24.45c-4.22.43-6.75-3.28-7.43-9.45a2.88,2.88,0,0,0-.47-1.36,3,3,0,0,0-2.51-1.32c-.64,0-1.51,0-1.8.59-5.44,11.1-19.78,10.23-25.63,5A15.92,15.92,0,0,1,260.53,226c3.64-6.13,10.91-7.64,20.46-4.26a3,3,0,0,0,3.93-2.08,2.85,2.85,0,0,0,0-1.56c-1.45-5.4-.19-11.21,4-13.79s10.14-3,13.33-.11c4.13,3.76,6,13.83-2.88,24a2.45,2.45,0,0,0,0,2.56,3,3,0,0,0,2,1.65c4.91,1.29,11.83,1.8,12,8.28C313.41,246.23,310.13,251.18,301.13,252.09Z"/>
			<path d="M514.71,237.85c.17,1,1.87,2,2.77-.29,6.47-33,41-1.75,43.19-.24,3.3,2.33,6.2-1.26,3.3-4.25C547.86,216.47,514.35,206.51,514.71,237.85Z"/>
			<path d="M660.28,235c-2.24-4-6.87-13.39-25.86-9-1.93.45-4,1.06-3.87-.92.26-4.44-1.53-9.47-4-12.13a21.93,21.93,0,0,0-8.09-5.24,3.48,3.48,0,0,1,1-2.68c5.58-5.5,5.9-13.7,3.08-20.46-3.66-8.74-12-13.22-20.13-11-8.41,2.29-12.25,10.08-13.31,17.94a34.1,34.1,0,0,0-2.53-5.13c-3-4.33-7.18-7.76-16.25-7.59a1.18,1.18,0,0,1-1.08-1.73c3.29-6,2.26-10.8.2-14.2-7.53-12.47-35.93-15.54-50.84-8.65-7,3.23-10.6,8.4-10.39,14.59a1.2,1.2,0,0,1-1,1.18,21.19,21.19,0,0,0-4.68,1.18c-.15-.45-.29-.9-.48-1.35-4-9.67-14.51-15.73-24.67-14a24,24,0,0,0-10.74,4.51,20.5,20.5,0,0,0-10.32-3.71,13.6,13.6,0,0,0-3.29-9.53c-2.05-2.21-8.31-5.42-17.6-2.16a.83.83,0,0,1-1.08-1c4.74-17.31-.75-24.39-4.9-27.17-6.33-4.25-15.82-2.6-22.56,3.92-5.41,5.24-11.14,13.93-7.43,24.53-8.77-.72-13.79,3.28-16.7,6.61A21.42,21.42,0,0,0,378,163.08c-.16,1.27-1.19,2-2.36,2.52a22.08,22.08,0,0,0-3.69,2.06,14.12,14.12,0,0,0-5.32-8.48c-10.33-7.22-21.79-2.53-28.19,7.46a11.37,11.37,0,0,0-2.34-.19c-.21,0-21.35-1.74-28.72,19.2-.28.81-.28,1.88-1.1,1.65h0c-5.35-1.46-13.26-3.62-22.39,2.76a.14.14,0,0,1-.14,0c-13.21-6.69-24.09-7-41.73-1.34-.13,0-.25.1-.37.15-1.65,0-2.25-1.26-2.24-3,.06-6.71-2.74-14.18-10.32-17.92-8.54-4.2-21-1-27.13,7a16.55,16.55,0,0,0-3.13,14.33,3.08,3.08,0,0,1-2.1,3.68,14.3,14.3,0,0,0-6.71,4.35c-4.54,5.26-6.75,13.6-3.42,19.57-8.84,5.06-9.56,15.31-9.59,15.8l6,.37c0-.36.67-8.18,7.58-11.44a15.55,15.55,0,0,0,9.52,3.77c1.36,0,3.33-.11,3.6,1.22,1,4.87,3.23,9.65,7.94,11.58a20.71,20.71,0,0,0,10.3,1.48c5.78,0,10.44-3.33,13.53-7.64a16,16,0,0,0,2.2-7.75,2.09,2.09,0,0,1,2.46-2.1c4.92.71,11,0,14.74-4.49,5.49-6.54,5.71-19.13-1.55-24.84,11.3-2.38,19.27-1,29.16,4.39a3.51,3.51,0,0,0,3.9-.36c7.16-5.87,12.95-4.29,18.06-2.9a24.48,24.48,0,0,0,5.65,1.1,3.78,3.78,0,0,0,3.75-3c3.86-16.51,16.65-17.49,20.93-17.38a33.88,33.88,0,0,0-.89,15c0,1.45-1.91,2.29-3.23,2.88-30.15,13.46-4.46,52.6,19.9,26.07a2.82,2.82,0,0,1,4.12.08c13.55,16.49,42.8-12.33,34.48-29.38-5.25-10.49-18.77-4.54-17.24-11.15a25.46,25.46,0,0,0,.64-5c2.61-1.32,4.83-2.41,8.88-1.84v0c2.1,0,3.39-1.41,2.39-5-1.95-7,3.13-14,10.9-15.37-.28.28-.57.57-.84.89-4.38,5.11-6.65,14.44-2.67,20.59,1.42,2.2,4.51,5.27,10.68,5.15a.56.56,0,0,1,.59.73c-3,12.87,3.31,16.71,5.85,18.24a19.52,19.52,0,0,0,9.69,2.19,21.13,21.13,0,0,0,12.32-5.77c4.84-4.5,6.6-11.42,5.39-18.25-.05-.3.14-.46.43-.37,8.2,2.53,12.32-1.31,16.38-6.6a18.22,18.22,0,0,0,2.8-5.35,15.18,15.18,0,0,1,7.08,2.1c-6.74,9.15-5.58,21.74-5.6,21.74-4.1.94-7.78,2.8-10.05,7.34-2.81,5.62,2.45,11.62,6,12.41A32.92,32.92,0,0,1,474.89,219c-4.41-3.1-9.36-4.88-13.77-4.89-15.55,0-18.83,7.77-19.87,9.71a2,2,0,0,0,.8,2.71c.95.51,2.69-.39,4-1.41,1.52-1.35,5.85-6.55,16.6-5,8.08,1.18,14.23,7.24,19.14,19.75a2.72,2.72,0,0,0,.12.25A3.23,3.23,0,0,0,486,241.8a2.44,2.44,0,0,0,1.2-2.56,26.71,26.71,0,0,0-4.55-12.3,5.59,5.59,0,0,0,.82,0,6.92,6.92,0,0,0,4.9-2.9,3.07,3.07,0,0,1,4.88.18c2.57,3.67,5.2,4.4,7.68,4.4a46.55,46.55,0,0,0,7.43-.43c9.78-2,16.75-12.06,16.51-22.71-.25-11.22-11.23-15.9-20.38-17.79a3.05,3.05,0,0,1-2.29-3.95,23.23,23.23,0,0,0,1.13-6.42,15.44,15.44,0,0,1,8.29-1.43,3,3,0,0,0,3.17-3.93c-.67-2-2.27-7.51,6.71-11.66,13.23-6.11,36-2.65,41.36,6.18,3.67,6.08-3.57,12.39-10,17.71a3.32,3.32,0,0,0-.35,5c1,1.22,3.9.66,5.35,0,4.9-2.12,13.08-4.07,17.37-2.12a20.25,20.25,0,0,1,9,8.12c-.08,0-.16,0-.25,0a13.52,13.52,0,0,0-14.47,3.35c-7.06,6.94-6.85,19.76.11,27.32,2.05,2.22,7.43,7.77,15.21,4.44a6.55,6.55,0,0,1,7.45,1.47,11.1,11.1,0,0,0,8.47,3.93,14.18,14.18,0,0,0,1.43-.08c8.38-.93,17.14-10.57,17.9-19.57a8.91,8.91,0,0,1,2.08,1.67c2.77,3,3.27,8.29,2.92,15.19-.05.88.43,2.89,1.16,3.37s2.71,0,3.5-.41c11.36-5.56,18.65-4.75,23.3,2.51,4.29,6.7,3.61,14.22.47,18.64-3,4.19,1.41,9.44,6.16,4.08C664,256.2,666.69,246.53,660.28,235ZM248.7,214.23c-2.25,2.14-11.36,2.71-18.91-3.39-1.86-1.5-4.91-.17-5.35,2.7a3,3,0,0,0,.74,2.41c2.86,3.24,6.09,3.72,5.5,8.29-1.11,8.7-10.34,8.6-14.83,6.76-3.79-1.55-4.63-5.54-5.07-9.52,0-.32-.22-1.59-.29-1.9a3.56,3.56,0,0,0-3.49-3,3.42,3.42,0,0,0-.83.1c-5.67,1.38-9.92.3-12-3s-1.1-7.82,1.55-10.88c2.38-2.76,6.06-2.39,10.75-1.42,3.55.74,4.79-.52,4.8-2.62,0-1.71-2.72-1.58-3.93-2.8-4.53-4.57-3.67-10,.88-16.86,2.65-4,8.08-7.39,16.95-4.28,4.74,1.66,9.7,7.26,6.2,18.52-1.47,4.75-.14,6.64,2.78,6.46a8.08,8.08,0,0,0,3.16-1c3.11-2,6.21-2.1,9.77-.75C253,200.25,254,209.25,248.7,214.23Zm133.6-21.59c2.27,6.89-3.26,18-11.79,21.94-5.79,2.67-11,2.06-15-4.1-4.57-7-4.92,3.16-15.56,8.47-6.56,3.28-15.68,1.48-15.64-7.26,0-6.48,5.45-13.54,18.59-13.37,4,.14,3.35-6.62-.41-6.51-2-.32-5.33,1.2-5.62-1.6-1.84-13.52,8.46-34.89,23.64-26.81a10.41,10.41,0,0,1,2.53,1.83c4.75,4.79,3.48,12.5-.08,18a4.38,4.38,0,0,0-.37,3.23C364.05,192.61,378.64,182.66,382.3,192.64Zm64.14-28.31c-3.51,4.57-8.77,4.75-16.64.56-1.57-.84-4.11-.3-4.77,1.63a5.5,5.5,0,0,0,.09,3.14c5.58,11,1.57,16.35-.68,18.44-3.37,3.13-8.32,4.05-11.52,2.13-3.79-2.29-4.7-8.16-2.48-16.08a.85.85,0,0,0,0-.32,3.05,3.05,0,0,0-3.9-2.88c-3.59,1.06-8.31,1.64-10.39-1.57s-1.11-9.59,2.19-13.44c2.3-2.68,4.93-3.39,7.82-2.09a3.11,3.11,0,0,0,4.29-3.32.7.7,0,0,0-.11-.37c-1.53-2.41-9.5-14.33.68-24.19,4.64-4.49,10.74-6,14.68-3.4,5.53,3.71,5.71,13.78-.08,28.24a3,3,0,0,0,2.34,4.1,6.18,6.18,0,0,0,3.16-.45c8-5.27,12.61-5.19,15.9-1.66C449.89,155.85,449.34,160.55,446.44,164.33Zm71,41.23c1.66,9-7.14,17.45-14.08,17.05-4.35-.26-8.41-.88-8.67-10.57-.06-1.92-1.1-2.83-3.12-3.06-3.14-.35-3.67,1.75-3.9,3.45a17.09,17.09,0,0,1-1.51,5c-.6,1.19-3.06,1.17-3.94,0-11.31-15.11-20.58-16.08-25.69-16.26l-1.13,0a3.19,3.19,0,0,1-1.17-.32c-1.62-.8-3.67-2.31-2.45-5.5.42-1.11,2.47-2.6,5.55-3.66a14.71,14.71,0,0,1,2.54-.62c1.46-.25,3.93-.8,6.14-1.18,9.57-1.65,9.75-4.62,4.11-4.71-1.22,0-7,.57-7,.52-.44-15.29,7.68-21.36,15.73-22.63,7.47-1.18,13.39,1,16.34,8.13,1.54,3.73,2.62,10.4-3.06,15.81-2.18,2.08-3.1,3.2-2.62,4.64.78,2.35,3.67,1.78,4.8,1.83C509.12,194,516.06,197.85,517.48,205.56Zm96,10.33c-.39,6.07-4.37,12.31-11.62,12.31-3.6,0-9-1.13-7.36-6.63,1.27-4.25-4.61-4.14-5.75-.62-2.65,8.21-10.33,4-14.36,0-4.9-4.89-5.15-13.81-.47-18.41s11.95-7.14,16.34,4a1.44,1.44,0,0,0,1,.78,2.27,2.27,0,0,0,2.83-2.57c-2.25-14.77,2.91-24,9.36-25.8,5.21-1.43,11,2.08,13.51,8s2.08,17-5.79,16.3c-3.81-.32-4.84.83-4.5,2.24.45,1.79,2,2.22,3.59,3.36A7.4,7.4,0,0,1,613.51,215.89Z"/>
			<path d="M416.49,214c-21.94-2.36-42.93,6.7-44.24,19.14-.13,1.27-1.12,1.86-2.1,1.05-10.08-8.41-31.11-10.93-42.36,2.35a.76.76,0,0,0,1.07,1.07c15.92-13.77,33.66-7.2,43.44,3.66,1.53,1.7,4.51.61,4.68-3.85.25-6.25.18-14.5,26.57-19.31C406.82,217.5,419.7,215.74,416.49,214Z"/>
		</g>
	</g>
</svg>
