<svg xmlns="http://www.w3.org/2000/svg" viewBox="0 0 3114 377">
	<title>Mis Películas Favoritas</title>
	<g>
		<path d="M104.26,272.69l.8,0Q119.88,170.59,134.73,69.8q30.59-.39,61.18-.75-.09,139.94-.19,279.88-20.78,1.43-41.55,2.89,0-101.2.11-202.43l-.8,0Q138.63,251.08,123.8,354q-20.77,1.5-41.54,3-16-100.14-31.93-201.65l-.8,0,0,204.08q-19.17,1.45-38.34,2.95v-291l61.18-.82Q88.32,172.33,104.26,272.69Z" fill="#fdbb2d"/>
		<path d="M227.91,68.67l44-.5q-.12,137.85-.25,275.7-22,1.42-44,2.89Q227.8,207.73,227.91,68.67Z" fill="#fdbb2d"/>
		<path d="M363.09,64.08c42.79-.36,64.76,23.93,64.71,66.73,0,2.8,0,5.61,0,8.41l-41.59,1c0-3.72,0-7.45,0-11.18,0-19.26-8-26.46-22-26.23s-22,7.75-22,27.2c0,19.8,8.76,34.43,37.52,57.84,36.75,30.05,48.32,51.65,48.28,82.28,0,42.8-22.47,68.54-65.64,71.22s-65.53-20.93-65.49-64.9q0-8.43,0-16.86,20.79-1,41.58-1.94,0,9.72,0,19.44c0,19.46,8.77,26,22.76,25.21S384,294.1,384,274.83c0-19.68-8.76-33.87-37.52-57.2-36.75-30.07-48.33-52.59-48.29-83.92C298.27,89.75,320.29,64.43,363.09,64.08Z" fill="#fdbb2d"/>
		<path d="M645.77,128.48q0,16.82,0,33.63c-.06,41.34-21.69,64.54-65.69,66.07l-20.79.71q-.07,49.23-.14,98.47-22,1.09-44,2.26l.36-263.94,64.79-.58C624.26,64.78,645.83,87.15,645.77,128.48Zm-86.36-25.76-.12,88.73,20.8-.59c14-.39,21.6-6.55,21.63-25.14l.06-39.06c0-18.59-7.57-24.43-21.57-24.24Z" fill="#fdbb2d"/>
		<path d="M710.11,172.08q30.2-.68,60.4-1.3,0,18.16,0,36.32-30.21.77-60.41,1.59,0,37.53-.11,75.06,38-1.42,76-2.73,0,18.12-.05,36.25-60,2.33-120,5,.18-129,.37-257.89,60-.47,120-.88,0,18.13,0,36.25-38,.44-76,.91Q710.17,136.38,710.11,172.08Z" fill="#fdbb2d"/>
		<path d="M813.47,63.34l44-.28-.3,215.64q36.21-1.12,72.42-2.13,0,17.82-.05,35.65-58.21,1.83-116.43,4Z" fill="#fdbb2d"/>
		<path d="M1018.34,9.87q-20.43,19.62-40.85,39.39l-29.6.12q13.62-19.82,27.25-39.51Q996.74,9.89,1018.34,9.87ZM949.07,62.54l44-.23q-.15,124-.31,248-22,.62-44,1.29Z" fill="#fdbb2d"/>
		<path d="M1152.53,215.16l0,32.52c0,39.16-22.47,62-65.7,63s-65.6-20.9-65.56-60.52q.09-64.3.16-128.63c.05-39.6,22.47-62.32,65.68-62.47s65.58,22.17,65.54,61.32q0,11.88,0,23.78l-41.61.4,0-26.31c0-17.53-8.78-24.14-22.78-24.05s-22.81,6.84-22.83,24.44l-.15,133.08c0,17.6,8.78,23.74,22.78,23.44s22.82-6.78,22.84-24.32l0-35.07Q1131.73,215.45,1152.53,215.16Z" fill="#fdbb2d"/>
		<path d="M1221.48,61.41l-.15,188c0,17.42,8.78,23.55,22.79,23.35s22.82-6.56,22.83-23.93q.08-93.78.14-187.58l41.6-.09q-.06,92.39-.11,184.79c0,38.82-22.46,61.26-65.69,62s-65.62-21.16-65.58-60.29q.09-93,.17-186.09Z" fill="#fdbb2d"/>
		<path d="M1338.7,61.12l44-.07-.09,207.46q36.23-.28,72.44-.45v34.52q-58.24.3-116.49.94Q1338.63,182.32,1338.7,61.12Z" fill="#fdbb2d"/>
		<path d="M1616.76,302.41q-22.21-.07-44.43-.09-3.81-21.9-7.61-43.8-27,0-54,.05-3.81,21.9-7.61,43.82-20.22.06-40.43.15,22.44-120.9,44.86-241.61,32.21,0,64.41,0Q1594.33,181.63,1616.76,302.41ZM1516.3,225.79l42.42,0q-10.41-61-20.81-122.08h-.8Q1526.72,164.73,1516.3,225.79Z" fill="#fdbb2d"/>
		<path d="M1696.34,58.24c42.8,0,64.82,22.23,64.84,61v7.61l-41.61-.15c0-3.34,0-6.68,0-10,0-17.29-8-23.87-22-23.9s-22,6.52-22,23.78c0,17.62,8.81,30.74,37.63,52.63,36.83,28.15,48.45,48.35,48.46,76,0,38.78-22.38,60.66-65.62,60.34s-65.65-22.43-65.66-61.07V229.65q20.82.06,41.62.15,0,8.63,0,17.26c0,17.26,8.81,23.52,22.82,23.61s22.81-6.07,22.81-23.35c0-17.63-8.82-30.84-37.64-52.71-36.83-28.1-48.43-48.1-48.44-75.71C1631.53,80.26,1653.53,58.19,1696.34,58.24Z" fill="#fdbb2d"/>
		<path d="M1892.85,169.7q28.41.26,56.82.56l0,34.94q-28.41-.37-56.82-.69,0,50.33.08,100.63-22-.36-44-.69l-.18-243.16q58.21.15,116.42.35l0,35q-36.21-.21-72.41-.39Z" fill="#fdbb2d"/>
		<path d="M2123.89,310.37q-22.2-.63-44.42-1.21-3.82-22.52-7.65-45-27-.6-54-1.13-3.78,22.23-7.55,44.42-20.22-.45-40.43-.87,22.29-122,44.56-244.76l64.41.28Q2101.32,185.73,2123.89,310.37Zm-100.53-80.59q21.21.38,42.41.77-10.47-62.6-20.94-125h-.8Q2033.7,167.78,2023.36,229.78Z" fill="#fdbb2d"/>
		<path d="M2200.27,266.63l.8,0q16.45-101.5,32.92-203.73l40.4.25q-21.42,125.9-42.85,250.56-32.82-1.12-65.63-2.12-21.76-125.19-43.52-249.3l44.4.23Q2183.52,164.23,2200.27,266.63Z" fill="#fdbb2d"/>
		<path d="M2290.88,123.89c-.05-40.37,23.51-63.32,66.72-63.08s66.83,23.91,66.89,65.08q.09,66.82.19,133.64c.06,41.17-23.5,63.6-66.71,61.79s-66.84-25.73-66.9-66.1Q2291,189.55,2290.88,123.89Zm44.2,135.21c0,18.13,8.84,25.33,22.84,25.83s22.79-6.09,22.77-24.35l-.21-137.94c0-18.25-8.83-25.29-22.83-25.44s-22.79,6.64-22.77,24.77Q2335,190.54,2335.08,259.1Z" fill="#fdbb2d"/>
		<path d="M2545.17,326.82c-2.41-6.85-4-11-4.05-32.32l-.06-41.09c0-24.29-8.84-33.54-28.84-34.17q-7.6-.26-15.2-.48l.15,105.73q-22-1-44-2-.19-129-.38-258l66.4.54c45.6.34,65.22,20.46,65.28,61.13l0,20.68c0,27.09-9.14,44.15-28.73,52.16v.75c22,9.26,29.24,29.1,29.28,56.56q0,20.31.05,40.62c0,12.79.43,22.21,4.85,32.22Q2567.57,327.94,2545.17,326.82Zm-48.32-224.93.12,79.76,17.2.45c16.39.44,26.38-6,26.35-26.93l0-25.78c0-18.68-6.84-27-22.44-27.21Z" fill="#fdbb2d"/>
		<path d="M2613.59,65.81l44,.41q.16,133.26.34,266.52-22-1.22-44-2.39Z" fill="#fdbb2d"/>
		<path d="M2676.78,66.41q68,.68,136,1.42,0,19.58,0,39.15l-46-.83q.12,116.46.25,232.93-22-1.33-44-2.63-.13-115.53-.28-231.07l-46-.77Q2676.82,85.51,2676.78,66.41Z" fill="#fdbb2d"/>
		<path d="M2959.3,351.71q-22.17-1.57-44.35-3.08-3.82-25.63-7.63-51.18-27-1.54-54-3.05-3.78,24.86-7.55,49.63-20.17-1.32-40.37-2.58Q2827.69,206,2850,68.24l64.39.75Q2936.85,209.06,2959.3,351.71Zm-100.38-94.53q21.2,1,42.37,2.08-10.44-71-20.89-141.47l-.8,0Q2869.25,187.76,2858.92,257.18Z" fill="#fdbb2d"/>
		<path d="M3038.72,67.26c42.79.45,64.79,27.34,64.79,74v9.15l-41.58-1.27v-12c0-20.61-8-28.61-22-28.89s-22,7.3-22,27.7c0,20.83,8.81,36.48,37.6,63.55,36.77,34.87,48.36,59.83,48.36,93.06,0,46.66-22.37,71.47-65.51,68.13s-65.53-30.76-65.55-76q0-8.7,0-17.38,20.79,1.11,41.56,2.25,0,10.2,0,20.39c0,20.38,8.8,28.29,22.78,29.23s22.77-5.88,22.77-26.48c0-21-8.8-37.26-37.58-64.36C2985.6,193.66,2974,170,2974,137.65,2974,92.44,2995.93,66.82,3038.72,67.26Z" fill="#fdbb2d"/>
	</g>
</svg>