<!-- Generated by IcoMoon.io -->
<svg version="1.1" xmlns="http://www.w3.org/2000/svg" width="20" height="20" viewBox="0 0 20 20">
<title>circular-graph</title>
<path d="M17.584 9.372h2c-0.065-1.049-0.293-2.053-0.668-2.984l-1.756 1.014c0.224 0.623 0.371 1.283 0.424 1.97zM14.101 1.295c-0.955-0.451-1.99-0.757-3.086-0.87v2.021c0.733 0.097 1.433 0.295 2.084 0.585l1.002-1.736zM16.242 5.622l1.741-1.005c-0.591-0.878-1.33-1.645-2.172-2.285l-1.006 1.742c0.549 0.446 1.031 0.968 1.437 1.548zM10.014 17.571c-4.197 0-7.6-3.402-7.6-7.6 0-3.858 2.877-7.036 6.601-7.526v-2.021c-4.833 0.5-8.601 4.583-8.601 9.547 0 5.303 4.298 9.601 9.601 9.601 4.824 0 8.807-3.563 9.486-8.2h-2.021c-0.658 3.527-3.748 6.199-7.466 6.199z"></path>
</svg>
