<!-- Generated by IcoMoon.io -->
<svg version="1.1" xmlns="http://www.w3.org/2000/svg" width="20" height="20" viewBox="0 0 20 20">
<title>creative-commons-noncommercial-eu</title>
<path d="M16.812 3.184c-1.859-1.856-4.133-2.784-6.824-2.784-2.66 0-4.91 0.928-6.752 2.784-1.891 1.92-2.835 4.192-2.835 6.816s0.945 4.88 2.835 6.768c1.89 1.888 4.141 2.832 6.752 2.832 2.643 0 4.934-0.952 6.872-2.856 1.826-1.808 2.74-4.056 2.74-6.744s-0.929-4.961-2.788-6.816zM15.61 15.496c-1.586 1.568-3.452 2.351-5.599 2.351s-3.997-0.776-5.551-2.328c-1.554-1.552-2.331-3.392-2.331-5.52 0-0.9 0.142-1.751 0.423-2.553l2.544 1.126h-0.183v1.141h0.9c0 0.161-0.016 0.322-0.016 0.482v0.274h-0.884v1.141h1.045c0.145 0.852 0.466 1.543 0.9 2.089 0.9 1.189 2.346 1.832 3.921 1.832 1.029 0 1.961-0.305 2.507-0.611l-0.386-1.784c-0.338 0.177-1.092 0.418-1.832 0.418-0.804 0-1.559-0.241-2.073-0.82-0.241-0.273-0.418-0.643-0.53-1.125h3.494l4.965 2.198c-0.344 0.609-0.78 1.172-1.314 1.688zM9.367 10.47l-0.021-0.016 0.036 0.016h-0.015zM12.355 9.714h0.144v-1.141h-2.721l-1.105-0.489c0.095-0.214 0.208-0.405 0.339-0.555 0.498-0.612 1.205-0.868 1.977-0.868 0.707 0 1.366 0.209 1.784 0.386l0.45-1.832c-0.579-0.257-1.43-0.482-2.411-0.482-1.511 0-2.796 0.611-3.713 1.639-0.203 0.235-0.38 0.499-0.54 0.778l-3.157-1.397c0.306-0.459 0.666-0.899 1.082-1.32 1.506-1.536 3.348-2.305 5.527-2.305s4.029 0.768 5.551 2.305c1.538 1.52 2.306 3.376 2.306 5.568 0 0.722-0.082 1.404-0.244 2.046l-5.27-2.332z"></path>
</svg>
