<!-- Generated by IcoMoon.io -->
<svg version="1.1" xmlns="http://www.w3.org/2000/svg" width="20" height="20" viewBox="0 0 20 20">
<title>creative-cloud</title>
<path d="M12.6 3c-1.966 0-3.74 0.813-5.012 2.119-0.384-0.078-0.781-0.119-1.188-0.119-3.314 0-6 2.686-6 6s2.686 6 6 6h6.2c3.866 0 7-3.134 7-7s-3.134-7-7-7zM6.4 15.728c-1.263 0-2.45-0.492-3.344-1.385-0.892-0.893-1.384-2.081-1.384-3.343s0.492-2.45 1.385-3.343c0.893-0.893 2.080-1.385 3.343-1.385s2.45 0.492 3.344 1.385l1.874 1.875c0.273 0.273 0.273 0.716 0 0.99s-0.718 0.273-0.99 0l-1.874-1.876c-1.258-1.256-3.449-1.256-4.707 0-0.629 0.63-0.975 1.465-0.975 2.354s0.346 1.724 0.975 2.354c0.785 0.784 1.933 1.078 2.991 0.884 0.324 0.424 0.689 0.815 1.1 1.155-0.547 0.216-1.133 0.335-1.738 0.335zM16.689 14.089c-1.093 1.092-2.545 1.694-4.089 1.694s-2.997-0.602-4.090-1.694l-2.709-2.709c-0.273-0.273-0.273-0.717 0-0.99s0.717-0.273 0.99 0l2.709 2.709c0.828 0.828 1.929 1.284 3.1 1.284s2.271-0.456 3.099-1.284 1.284-1.929 1.284-3.099-0.456-2.271-1.284-3.099-1.928-1.284-3.099-1.284c-0.873 0-1.707 0.255-2.418 0.727-0.381-0.309-0.802-0.569-1.251-0.779 1.035-0.858 2.309-1.349 3.67-1.349 1.544 0 2.996 0.602 4.089 1.694s1.694 2.545 1.694 4.089-0.602 2.998-1.695 4.090z"></path>
</svg>
