<!-- Generated by IcoMoon.io -->
<svg version="1.1" xmlns="http://www.w3.org/2000/svg" width="20" height="20" viewBox="0 0 20 20">
<title>creative-commons-share</title>
<path d="M9.987 0.4c-2.659 0-4.91 0.928-6.752 2.784-1.89 1.92-2.835 4.192-2.835 6.816s0.945 4.88 2.835 6.768c1.89 1.888 4.141 2.832 6.752 2.832 2.643 0 4.935-0.952 6.873-2.856 1.826-1.808 2.739-4.056 2.739-6.744s-0.929-4.96-2.787-6.816c-1.859-1.856-4.134-2.784-6.825-2.784zM10.011 2.127c2.179 0 4.029 0.768 5.552 2.304 1.538 1.52 2.307 3.375 2.307 5.568 0 2.208-0.753 4.040-2.259 5.496-1.586 1.568-3.453 2.352-5.6 2.352s-3.997-0.776-5.55-2.328c-1.554-1.552-2.331-3.392-2.331-5.52s0.785-3.984 2.355-5.568c1.506-1.536 3.348-2.304 5.526-2.304z"></path>
<path d="M13.932 7.25h-2.1v-2.091c0-0.29-0.235-0.525-0.525-0.525h-5.24c-0.016-0.001-0.032-0.001-0.047 0-0.272 0.025-0.479 0.253-0.478 0.525v7.069c0 0.29 0.235 0.525 0.525 0.525h2.1v2.091c0 0.29 0.235 0.525 0.525 0.525h5.24c0.29 0 0.525-0.235 0.525-0.525v-7.069c0-0.29-0.235-0.525-0.525-0.525zM6.591 11.703v-6.019h4.191v1.566h-2.091c-0.019-0.001-0.037-0.001-0.056 0-0.268 0.029-0.47 0.256-0.469 0.525v3.928h-1.575zM13.407 8.3v6.019h-4.191v-6.019h4.191z"></path>
</svg>
