<!-- Generated by IcoMoon.io -->
<svg version="1.1" xmlns="http://www.w3.org/2000/svg" width="20" height="20" viewBox="0 0 20 20">
<title>creative-commons-remix</title>
<path d="M9.987 0.4c-2.659 0-4.91 0.928-6.752 2.784-1.89 1.92-2.835 4.192-2.835 6.816s0.945 4.88 2.835 6.767c1.89 1.888 4.141 2.832 6.752 2.832 2.643 0 4.935-0.952 6.873-2.856 1.826-1.808 2.739-4.056 2.739-6.744s-0.929-4.96-2.787-6.816c-1.859-1.856-4.134-2.784-6.825-2.784zM10.011 2.128c2.179 0 4.029 0.768 5.552 2.304 1.538 1.52 2.307 3.375 2.307 5.568 0 2.208-0.753 4.040-2.259 5.496-1.586 1.568-3.453 2.352-5.6 2.352s-3.997-0.776-5.55-2.328c-1.554-1.551-2.331-3.392-2.331-5.519s0.785-3.984 2.355-5.568c1.506-1.536 3.348-2.304 5.526-2.304z"></path>
<path d="M16.278 10.17l-1.911-0.794v-2.381l-5.871-2.444-2.617 1.15v2.723l0.028 0.012-2.309 0.961v2.467l2.467 1.058 2.48-1.027 0.168 0.067 5.138 2.119 0.112-0.047 2.503-1.069v-2.719l-0.188-0.075zM13.55 13.312l-0.023-0.009v0.015l-4.401-1.824v-1.735l4.401 1.799v0.056l0.023 0.010v1.689zM13.847 11.095l-1.395-0.598 1.503-0.644 1.433 0.596-1.54 0.646zM15.866 12.56l-1.716 0.739v-1.68l1.716-0.722v1.663z"></path>
</svg>
