<!-- Generated by IcoMoon.io -->
<svg version="1.1" xmlns="http://www.w3.org/2000/svg" width="20" height="20" viewBox="0 0 20 20">
<title>evernote</title>
<path d="M17.339 4.307c0-1.15-1.732-1.277-1.732-1.277l-4.069-0.256c0 0-0.087-1.107-0.909-1.492-0.822-0.383-1.726-0.266-2.376-0.26s-0.803 0.835-0.803 1.617c0 0.781 0.014 1.684 0.014 2.25 0 1.018-0.447 1.449-1.566 1.449h-2.307c-0.645-0.041-1.147 0.064-1.147 0.586 0 0.523 0.759 4.973 1.801 6 0.605 0.596 4.305 1.014 5.084 1.014s0.519-2.301 0.736-2.301c0.217 0 0.454 1.299 1.682 1.603 1.226 0.307 2.864 0.25 2.951 1.123 0.113 1.152 0.217 2.642-0.541 2.748l-1.716 0.068c-1.176-0.084-0.86-1.369-0.341-1.369s0.779-0.019 0.779-0.019l0.065-1.406c0 0-2.693-0.318-2.807 1.498-0.105 1.66 0.18 2.443 0.389 2.613 0.209 0.172 0.571 0.504 3.869 0.504 4.647 0 2.944-13.543 2.944-14.693zM15.44 10.32c-0.182 0.196-0.842-0.32-1.472-0.32s-1.311 0.334-1.471 0.113c-0.16-0.219 0.146-1.99 1.334-1.99s1.793 2.004 1.609 2.197z"></path>
<path d="M5.804 4.166c0-0.229 0.058-2.984 0.058-2.984l-3.505 3.44c0 0 2.422 0 2.898 0s0.549-0.229 0.549-0.456z"></path>
</svg>
