<!-- Generated by IcoMoon.io -->
<svg version="1.1" xmlns="http://www.w3.org/2000/svg" width="20" height="20" viewBox="0 0 20 20">
<title>flow-cascade</title>
<path d="M14 14.6c-0.967 0-1.796 0.576-2.176 1.4h-3.324c-0.828 0-1.5-0.672-1.5-1.5v-3.85c0.456 0.218 0.961 0.35 1.5 0.35h3.324c0.38 0.824 1.208 1.4 2.176 1.4 1.326 0 2.4-1.075 2.4-2.4s-1.074-2.4-2.4-2.4c-0.967 0-1.796 0.576-2.176 1.4h-3.324c-0.828 0-1.5-0.672-1.5-1.5v-2.324c0.825-0.38 1.4-1.209 1.4-2.176 0-1.326-1.074-2.4-2.4-2.4s-2.4 1.074-2.4 2.4c0 0.967 0.576 1.796 1.4 2.176v9.324c0 1.933 1.567 3.5 3.5 3.5h3.324c0.38 0.824 1.208 1.4 2.176 1.4 1.326 0 2.4-1.075 2.4-2.4s-1.074-2.4-2.4-2.4zM14 8.615c0.764 0 1.384 0.619 1.384 1.385 0 0.764-0.62 1.385-1.384 1.385-0.766 0-1.385-0.621-1.385-1.385 0.001-0.766 0.62-1.385 1.385-1.385zM6 1.615c0.764 0 1.384 0.619 1.384 1.385 0 0.764-0.62 1.385-1.384 1.385s-1.384-0.621-1.384-1.385c0-0.766 0.619-1.385 1.384-1.385zM14 18.385c-0.766 0-1.385-0.621-1.385-1.385 0-0.766 0.619-1.385 1.385-1.385 0.764 0 1.384 0.619 1.384 1.385 0 0.764-0.62 1.385-1.384 1.385z"></path>
</svg>
