<!-- Generated by IcoMoon.io -->
<svg version="1.1" xmlns="http://www.w3.org/2000/svg" width="20" height="20" viewBox="0 0 20 20">
<title>folder-images</title>
<path d="M18.405 2.799c-0.112-0.44-0.656-0.799-1.21-0.799h-14.39c-0.555 0-1.099 0.359-1.21 0.799l-0.201 1.201h17.211l-0.2-1.201zM19.412 5h-18.825c-0.342 0-0.609 0.294-0.577 0.635l0.923 11.669c0.038 0.394 0.37 0.696 0.766 0.696h16.601c0.397 0 0.728-0.302 0.766-0.696l0.923-11.669c0.033-0.341-0.235-0.635-0.577-0.635zM12.438 8.375c0.518 0 0.938 0.42 0.938 0.938s-0.42 0.938-0.938 0.938-0.938-0.421-0.938-0.939c0-0.517 0.42-0.937 0.938-0.937zM5.5 14l2.486-5.714 2.827 4.576 2.424-1.204 1.263 2.342h-9z"></path>
</svg>
