<!-- Generated by IcoMoon.io -->
<svg version="1.1" xmlns="http://www.w3.org/2000/svg" width="20" height="20" viewBox="0 0 20 20">
<title>foursquare</title>
<path d="M4.92 1c-0.508 0-0.92 0.412-0.92 0.92v16.516c0 0.625 0.765 0.926 1.192 0.47l4.471-4.79c0.068-0.074 0.163-0.116 0.264-0.116h3.237c0.486 0 0.905-0.343 1.001-0.82l2.111-10.514c0.173-0.862-0.486-1.666-1.365-1.666h-9.991zM8.838 12.19l-2.838 3.337v-12.184c0-0.189 0.154-0.343 0.343-0.343h7.14c0.342 0 0.598 0.313 0.53 0.648l-0.413 2.055c-0.034 0.173-0.186 0.297-0.362 0.297h-3.71c-0.292 0-0.528 0.236-0.528 0.528v1.22c0 0.139 0.113 0.252 0.253 0.252h3.294c0.306 0 0.536 0.28 0.476 0.581l-0.614 3.058c-0.043 0.21-0.228 0.361-0.442 0.361h-2.717c-0.159 0-0.309 0.069-0.412 0.19z"></path>
</svg>
