<!-- Generated by IcoMoon.io -->
<svg version="1.1" xmlns="http://www.w3.org/2000/svg" width="20" height="20" viewBox="0 0 20 20">
<title>github-with-circle</title>
<path d="M10.015 9.949c0 0-0.010 0-0.015 0h-0.015c-1.191 0-2.24-0.303-2.861 0.268-0.371 0.342-0.527 0.754-0.527 1.197 0 1.852 1.483 2.080 3.389 2.080h0.029c1.905 0 3.389-0.229 3.389-2.080 0-0.443-0.156-0.856-0.527-1.197-0.622-0.571-1.671-0.268-2.862-0.268zM8.393 12.48c-0.363 0-0.656-0.408-0.656-0.91s0.293-0.908 0.656-0.908c0.363 0 0.657 0.406 0.657 0.908s-0.293 0.91-0.657 0.91zM11.606 12.48c-0.363 0-0.657-0.408-0.657-0.91s0.294-0.908 0.657-0.908c0.362 0 0.656 0.406 0.656 0.908s-0.293 0.91-0.656 0.91zM10 0.4c-5.302 0-9.6 4.298-9.6 9.6s4.298 9.6 9.6 9.6 9.6-4.298 9.6-9.6-4.298-9.6-9.6-9.6zM10.876 13.939c-0.172 0-0.514 0-0.876 0.002-0.362-0.002-0.704-0.002-0.876-0.002-0.76 0-3.772-0.059-3.772-3.689 0-0.834 0.286-1.445 0.755-1.955-0.074-0.184-0.078-1.232 0.32-2.236 0 0 0.916 0.1 2.301 1.051 0.289-0.081 0.781-0.122 1.272-0.122s0.982 0.041 1.273 0.121c1.385-0.951 2.301-1.051 2.301-1.051 0.398 1.004 0.395 2.053 0.32 2.236 0.469 0.51 0.755 1.121 0.755 1.955-0.001 3.632-3.013 3.69-3.773 3.69z"></path>
</svg>
