<!-- Generated by IcoMoon.io -->
<svg version="1.1" xmlns="http://www.w3.org/2000/svg" width="20" height="20" viewBox="0 0 20 20">
<title>hand</title>
<path d="M17.924 17.315c-0.057 0.174-0.193 0.367-0.416 0.432-0.161 0.047-5.488 1.59-5.652 1.633-0.469 0.125-0.795 0.033-1.009-0.156-0.326-0.287-4.093-2.85-8.845-3.092-0.508-0.025-0.259-1.951 1.193-1.951 0.995 0 3.904 0.723 4.255 0.371 0.271-0.272 0.394-1.879-0.737-4.683v0l-2.275-5.637c-0.216-0.535 0.044-1.143 0.578-1.359s1.145 0.043 1.359 0.578c0 0 1.791 4.438 1.986 4.919 0.193 0.48 0.431 0.662 0.69 0.562 0.231-0.088 0.279-0.242 0.139-0.709l-2.046-6.028c-0.186-0.546 0.106-1.138 0.652-1.324s1.141 0.106 1.325 0.652l1.946 5.732c0.172 0.504 0.354 0.768 0.642 0.646 0.173-0.073 0.161-0.338 0.115-0.569l-1.366-5.471c-0.14-0.561 0.201-1.127 0.761-1.267s1.125 0.2 1.266 0.761l1.26 5.042c0.184 0.741 0.353 1.008 0.646 0.935 0.299-0.073 0.285-0.319 0.244-0.522-0.095-0.475-0.872-4.328-0.872-4.328-0.103-0.515 0.23-1.015 0.744-1.118s1.014 0.23 1.116 0.743l0.948 4.711 0.001 0.001c0 0 0 0 0 0.001l0.568 2.825c0.124 0.533 0.266 1.035 0.45 1.527 1.085 2.889 0.519 5.564 0.334 6.143z"></path>
</svg>
