<!-- Generated by IcoMoon.io -->
<svg version="1.1" xmlns="http://www.w3.org/2000/svg" width="20" height="20" viewBox="0 0 20 20">
<title>icloud</title>
<path d="M10.909 5c1.884 0 3.417 1.598 3.417 3.561 0 0.136-0.012 0.29-0.037 0.484 0 0-0.163 1.262-0.206 1.594s0.186 0.65 0.528 0.653c0.342 0.002 1.65 0.010 1.65 0.010 0.958 0.006 1.739 0.835 1.739 1.848 0 1.020-0.785 1.85-1.75 1.85h-12.083c-1.195 0-2.167-1.022-2.167-2.278 0-0.913 0.519-1.735 1.323-2.095 0 0 0.421-0.188 0.651-0.291s0.508-0.431 0.516-0.775c0.008-0.344 0.016-0.714 0.016-0.714 0.012-0.535 0.421-0.97 0.91-0.97 0.032 0 0.094 0.006 0.207 0.035 0 0 0.774 0.197 1.039 0.264s0.606-0.066 0.73-0.309c0.124-0.243 0.503-0.981 0.503-0.981 0.598-1.163 1.753-1.886 3.014-1.886zM10.909 3c-2.081 0-3.886 1.207-4.793 2.974-0.225-0.057-0.457-0.096-0.699-0.096-1.587 0-2.873 1.304-2.91 2.924-1.474 0.659-2.507 2.164-2.507 3.92 0 2.363 1.865 4.278 4.167 4.278h12.083c2.071 0 3.75-1.724 3.75-3.85 0-2.118-1.667-3.835-3.728-3.848 0.031-0.243 0.053-0.489 0.053-0.741 0.001-3.071-2.424-5.561-5.416-5.561v0z"></path>
</svg>
