<!-- Generated by IcoMoon.io -->
<svg version="1.1" xmlns="http://www.w3.org/2000/svg" width="20" height="20" viewBox="0 0 20 20">
<title>lastfm</title>
<path d="M8.574 14.576c-0.477 0.348-1.455 1.024-3.381 1.024-2.661 0-5.193-1.893-5.193-5.405 0-3.648 2.637-5.795 5.354-5.795 3.047 0 4.183 1.108 5.144 4.109l0.756 2.309c0.551 1.688 1.713 2.91 4.026 2.91 1.558 0 2.382-0.346 2.382-1.199 0-0.67-0.389-1.156-1.557-1.434l-1.559-0.369c-1.9-0.461-2.656-1.455-2.656-3.025 0-2.516 2.016-3.301 4.077-3.301 2.337 0 3.757 0.854 3.94 2.932l-2.291 0.277c-0.092-0.992-0.688-1.408-1.787-1.408-1.008 0-1.627 0.461-1.627 1.246 0 0.693 0.299 1.109 1.307 1.34l1.466 0.324c1.97 0.461 3.025 1.432 3.025 3.303 0 2.309-1.924 3.186-4.766 3.186-3.963 0-5.338-1.801-6.070-4.041l-0.734-2.309c-0.549-1.687-0.99-2.902-3.006-2.902-1.398 0-3.219 0.916-3.219 3.756 0 2.217 1.523 3.604 3.104 3.604 1.34 0 2.146-0.754 2.564-1.131l0.701 1.999z"></path>
</svg>
