<!-- Generated by IcoMoon.io -->
<svg version="1.1" xmlns="http://www.w3.org/2000/svg" width="20" height="20" viewBox="0 0 20 20">
<title>mask</title>
<path d="M19.581 5.84c-0.043-0.469-0.462-0.803-0.92-0.73-1.742 0.278-5.826 1.89-8.661 1.89s-6.919-1.612-8.661-1.89c-0.458-0.073-0.876 0.26-0.92 0.729-0.142 1.532-0.419 5.611-0.419 6.229 0 0.83 3.472 2.732 6 2.732 2.452 0 2.95-2.732 4-2.732s1.548 2.732 4 2.732c2.528 0 6-1.902 6-2.732 0-0.618-0.277-4.697-0.419-6.228zM7.66 10.72c-0.353 0.318-1.335 1.070-2.531 0.835s-1.919-1.323-2.166-1.758c-0.060-0.106-0.041-0.24 0.044-0.317 0.353-0.318 1.335-1.070 2.532-0.835s1.919 1.323 2.166 1.758c0.059 0.106 0.040 0.24-0.045 0.317zM17.037 9.797c-0.246 0.436-0.969 1.523-2.166 1.758s-2.179-0.517-2.531-0.835c-0.086-0.077-0.104-0.211-0.045-0.317 0.246-0.436 0.969-1.523 2.166-1.758s2.179 0.517 2.531 0.835c0.086 0.077 0.105 0.211 0.045 0.317z"></path>
</svg>
