<!-- Generated by IcoMoon.io -->
<svg version="1.1" xmlns="http://www.w3.org/2000/svg" width="20" height="20" viewBox="0 0 20 20">
<title>music</title>
<path d="M16 1h-12c-0.553 0-1 0.447-1 1v16c0 0.552 0.447 1 1 1h12c0.553 0 1-0.448 1-1v-16c0-0.552-0.447-1-1-1zM12.795 11.519c-0.185 0.382-0.373 0.402-0.291 0 0.211-1.039 0.068-3.271-1.504-3.519v4.75c0 0.973-0.448 1.82-1.639 2.203-1.156 0.369-2.449-0.016-2.752-0.846s0.377-1.84 1.518-2.256c0.637-0.232 1.375-0.292 1.873-0.101v-6.75h1c0 2.355 4.065 1.839 1.795 6.519z"></path>
</svg>
