<!-- Generated by IcoMoon.io -->
<svg version="1.1" xmlns="http://www.w3.org/2000/svg" width="20" height="20" viewBox="0 0 20 20">
<title>old-mobile</title>
<path d="M13.6 3h-6.6v-3h-2v18.6c0 0.77 0.629 1.4 1.398 1.4h7.202c0.769 0 1.4-0.631 1.4-1.4v-14.199c0-0.772-0.631-1.401-1.4-1.401zM8 15c-0.691 0-1.25-0.447-1.25-1s0.559-1 1.25-1 1.25 0.447 1.25 1-0.559 1-1.25 1zM9.25 17c0 0.553-0.559 1-1.25 1s-1.25-0.447-1.25-1 0.559-1 1.25-1 1.25 0.447 1.25 1zM7 11v-6h6v6h-6zM12 15c-0.691 0-1.25-0.447-1.25-1s0.559-1 1.25-1 1.25 0.447 1.25 1-0.559 1-1.25 1zM13.25 17c0 0.553-0.559 1-1.25 1s-1.25-0.447-1.25-1 0.559-1 1.25-1 1.25 0.447 1.25 1z"></path>
</svg>
