<!-- Generated by IcoMoon.io -->
<svg version="1.1" xmlns="http://www.w3.org/2000/svg" width="20" height="20" viewBox="0 0 20 20">
<title>publish</title>
<path d="M9.967 8.193l-4.967 4.807h3v6h4v-6h3l-5.033-4.807zM18 1h-16c-1.1 0-2 0.9-2 2v12c0 1.1 0.9 2 2 2h4v-2h-4v-9h16v9h-4v2h4c1.1 0 2-0.9 2-2v-12c0-1.1-0.9-2-2-2zM2.5 4.25c-0.414 0-0.75-0.336-0.75-0.75s0.336-0.75 0.75-0.75c0.414 0 0.75 0.336 0.75 0.75s-0.336 0.75-0.75 0.75zM4.5 4.25c-0.414 0-0.75-0.336-0.75-0.75s0.336-0.75 0.75-0.75c0.414 0 0.75 0.336 0.75 0.75s-0.336 0.75-0.75 0.75zM18 4h-12v-1h12.019l-0.019 1z"></path>
</svg>
