<!-- Generated by IcoMoon.io -->
<svg version="1.1" xmlns="http://www.w3.org/2000/svg" width="20" height="20" viewBox="0 0 20 20">
<title>qq</title>
<path d="M17.005 13.018c-0.779-0.547-1.751-0.51-2.304 0.277-0.553 0.785-4.418 5.633-10.751 3.619 0.239 0.209 0.49 0.406 0.755 0.592 4.153 2.926 9.892 1.928 12.816-2.225 0.555-0.787 0.263-1.714-0.516-2.263zM4.785 12.401c-0.404-0.871-2.669-6.643 2.24-11.121-0.3 0.104-0.597 0.221-0.89 0.357-4.609 2.135-6.616 7.603-4.481 12.213 0.403 0.871 1.353 1.084 2.218 0.684s1.316-1.262 0.913-2.133zM10.826 0.823c-0.956-0.086-1.614 0.629-1.7 1.578s0.435 1.771 1.391 1.857 7.087 1.010 8.51 7.502c0.062-0.311 0.106-0.627 0.136-0.949 0.455-5.061-3.277-9.533-8.337-9.988zM6.891 10.53c-0.264 0.619-0.306 1.213-0.094 1.322 0.146 0.076 0.374-0.098 0.588-0.416 0.085 0.347 0.295 0.662 0.595 0.914-0.314 0.115-0.52 0.305-0.52 0.519 0 0.354 0.556 0.639 1.241 0.639 0.618 0 1.13-0.232 1.225-0.537 0.025 0 0.123 0 0.147 0 0.095 0.305 0.607 0.537 1.226 0.537 0.686 0 1.241-0.285 1.241-0.639 0-0.215-0.205-0.404-0.52-0.519 0.299-0.252 0.51-0.566 0.594-0.914 0.214 0.318 0.442 0.492 0.589 0.416 0.211-0.109 0.17-0.703-0.095-1.322-0.207-0.488-0.488-0.848-0.702-0.926 0.004-0.031 0.004-0.063 0.004-0.094 0-0.19-0.052-0.363-0.142-0.504 0.002-0.012 0.002-0.023 0.002-0.033 0-0.088-0.021-0.168-0.056-0.238-0.054-1.268-0.879-2.274-2.214-2.274s-2.161 1.006-2.215 2.273c-0.035 0.070-0.057 0.15-0.057 0.238 0 0.010 0.001 0.021 0.002 0.033-0.088 0.142-0.141 0.316-0.141 0.505 0 0.031 0.001 0.062 0.004 0.094-0.213 0.078-0.495 0.437-0.702 0.926z"></path>
</svg>
