<!-- Generated by IcoMoon.io -->
<svg version="1.1" xmlns="http://www.w3.org/2000/svg" width="20" height="20" viewBox="0 0 20 20">
<title>rdio-with-circle</title>
<path d="M10 0.4c-5.302 0-9.6 4.298-9.6 9.6s4.298 9.6 9.6 9.6 9.6-4.298 9.6-9.6-4.298-9.6-9.6-9.6zM13.403 9.482c0.022 0.17 0.034 0.342 0.034 0.518 0 2.176-1.742 3.941-3.892 3.941-2.148 0-3.891-1.766-3.891-3.941 0-2.178 1.742-3.942 3.891-3.942 0.309 0 0.608 0.039 0.896 0.107v2.245c-0.454-0.166-1.015-0.142-1.541 0.111-0.952 0.461-1.435 1.494-1.079 2.311s1.418 1.106 2.371 0.645c0.656-0.316 1.234-1.078 1.234-2.035v-2.893c0.082 0.045 0.162 0.096 0.24 0.146 0.739 0.465 1.838 1.086 3.121 1.152 0.501 0.026-0.197 1.284-1.384 1.635z"></path>
</svg>
