<!-- Generated by IcoMoon.io -->
<svg version="1.1" xmlns="http://www.w3.org/2000/svg" width="20" height="20" viewBox="0 0 20 20">
<title>rdio</title>
<path d="M16.203 10.001c0 4.307-3.448 7.799-7.701 7.799s-7.702-3.492-7.702-7.799c0-4.309 3.448-7.801 7.701-7.801 0.611 0 1.204 0.076 1.774 0.213v4.441c-0.902-0.33-2.010-0.281-3.053 0.223-1.885 0.91-2.841 2.957-2.135 4.57 0.705 1.615 2.807 2.188 4.691 1.277 1.299-0.627 2.443-2.137 2.443-4.029v-5.724c0.162 0.090 0.32 0.188 0.475 0.289 1.464 0.92 3.638 2.152 6.178 2.281 0.99 0.049-0.389 2.541-2.738 3.236 0.044 0.334 0.067 0.676 0.067 1.024z"></path>
</svg>
