<!-- Generated by IcoMoon.io -->
<svg version="1.1" xmlns="http://www.w3.org/2000/svg" width="20" height="20" viewBox="0 0 20 20">
<title>renren</title>
<path d="M8.468 0.865c-4.351 0.729-7.668 4.512-7.668 9.071 0 2.266 0.82 4.338 2.179 5.941 3.221-1.559 5.472-5.086 5.489-9.191v-5.821zM10.002 12.258c-0.573 2.373-2.285 4.4-4.418 5.748 1.31 0.719 2.816 1.129 4.416 1.129 1.602 0 3.108-0.41 4.418-1.129-2.133-1.348-3.844-3.375-4.416-5.748zM11.535 6.643c0 4.123 2.256 7.668 5.487 9.234 1.358-1.603 2.178-3.676 2.178-5.941 0-4.559-3.315-8.34-7.665-9.070v5.777z"></path>
</svg>
