<!-- Generated by IcoMoon.io -->
<svg version="1.1" xmlns="http://www.w3.org/2000/svg" width="20" height="20" viewBox="0 0 20 20">
<title>scribd</title>
<path d="M4.643 18.284c0 0.224-0.072 0.492-0.148 0.716h5.737c0.328-0.377 0.513-0.831 0.513-1.342 0-1.385-1.644-2.154-5.241-3.842l-0.506-0.236c-1.773-0.843-3.086-1.585-3.998-2.469v4.398c0.176-0.024 0.359-0.042 0.558-0.042 3.001 0.001 3.085 2.789 3.085 2.817zM17 1h-3.738c1.748 1.178 2.467 2.842 2.467 4.142 0 2.194-1.836 2.905-2.727 2.905l-0.271 0.002c-2.046 0-3.090-1.247-3.104-3.707-0.121-0.096-0.688-0.453-2.347-0.453-1.96 0-2.773 1.543-2.773 2.369 0 0.973 0.543 2.055 4.484 3.382 6.736 2.254 6.736 5.255 6.736 7.903v0.026c0 0.437-0.031 0.924-0.117 1.431h1.39c1.1 0 2-0.899 2-2v-14c0-1.1-0.9-2-2-2z"></path>
</svg>
