<!-- Generated by IcoMoon.io -->
<svg version="1.1" xmlns="http://www.w3.org/2000/svg" width="20" height="20" viewBox="0 0 20 20">
<title>spotify-with-circle</title>
<path d="M10 0.4c-5.302 0-9.6 4.298-9.6 9.6s4.298 9.6 9.6 9.6 9.6-4.298 9.6-9.6-4.298-9.6-9.6-9.6zM12.964 13.837c-0.148 0-0.25-0.056-0.359-0.122-1.013-0.613-2.268-0.935-3.628-0.935-0.694 0-1.443 0.082-2.226 0.242l-0.095 0.024c-0.1 0.024-0.201 0.050-0.279 0.050-0.315 0-0.562-0.245-0.562-0.559 0-0.318 0.18-0.543 0.479-0.6 0.934-0.213 1.814-0.316 2.687-0.316 1.58 0 2.994 0.365 4.201 1.090 0.208 0.121 0.338 0.26 0.338 0.569s-0.249 0.557-0.556 0.557zM13.742 11.654c-0.177 0-0.292-0.067-0.395-0.127-1.825-1.084-4.547-1.443-6.785-0.847-0.037 0.011-0.070 0.021-0.102 0.031-0.084 0.027-0.164 0.053-0.274 0.053-0.368 0-0.667-0.301-0.667-0.672 0-0.357 0.186-0.607 0.524-0.702 0.862-0.236 1.674-0.393 2.84-0.393 1.886 0 3.714 0.473 5.146 1.33 0.261 0.148 0.379 0.353 0.379 0.658 0 0.37-0.299 0.669-0.666 0.669zM14.625 9.166c-0.166 0-0.269-0.039-0.421-0.123-1.239-0.744-3.171-1.186-5.174-1.186-1.043 0-1.99 0.115-2.817 0.338-0.028 0.007-0.055 0.015-0.083 0.024-0.088 0.026-0.198 0.058-0.312 0.058-0.439 0-0.783-0.348-0.783-0.792 0-0.386 0.217-0.681 0.579-0.788 0.998-0.295 2.148-0.443 3.415-0.443 2.281 0 4.453 0.506 5.957 1.391 0.284 0.16 0.423 0.404 0.423 0.742 0 0.436-0.345 0.779-0.784 0.779z"></path>
</svg>
