<!-- Generated by IcoMoon.io -->
<svg version="1.1" xmlns="http://www.w3.org/2000/svg" width="20" height="20" viewBox="0 0 20 20">
<title>stumbleupon-with-circle</title>
<path d="M10 0.4c-5.302 0-9.6 4.298-9.6 9.6s4.298 9.6 9.6 9.6 9.6-4.298 9.6-9.6-4.298-9.6-9.6-9.6zM10 7.785c-0.293 0-0.531 0.238-0.531 0.529v3.168c0 1.244-1.015 2.256-2.261 2.256s-2.261-1.012-2.261-2.256v-1.326h1.729v1.326c0 0.293 0.238 0.529 0.531 0.529s0.531-0.236 0.531-0.529v-3.168c0.002-1.244 1.015-2.255 2.262-2.255s2.261 1.012 2.261 2.256v0.603l-1.040 0.334-0.69-0.334v-0.604c0-0.291-0.237-0.529-0.531-0.529zM15.053 11.482c0 1.244-1.015 2.256-2.261 2.256s-2.262-1.012-2.262-2.256v-1.354l0.69 0.334 1.040-0.334v1.354c0 0.293 0.238 0.529 0.531 0.529s0.53-0.236 0.53-0.529v-1.326h1.731v1.326z"></path>
</svg>
