<!-- Generated by IcoMoon.io -->
<svg version="1.1" xmlns="http://www.w3.org/2000/svg" width="20" height="20" viewBox="0 0 20 20">
<title>swarm</title>
<path d="M10.286 18.821c-1.429-0.232-2.733-0.607-3.677-0.923-0.046-0.015-0.781-0.282-1.007-0.37-0.278-0.107-0.423-0.431-0.317-0.71 0.086-0.225 0.379-0.949 0.399-0.994 0.4-0.92 1-2.153 1.795-3.379 0.029 1.203 0.297 2.399 0.791 3.506 0.48 1.077 1.169 2.056 2.016 2.87zM10.173 7.027c-2.791-5.689-8.99-5.486-9.968-2.943-0.751 1.952 2.535 6.602 10.097 3.244 0.002-0.001 0.002-0.001 0.004-0.002-0.026-0.047-0.114-0.247-0.133-0.299zM11.56 6.805c0.001 0 0.002-0.001 0.002-0.001 4.271-1.897 3.674-5.191 2.569-5.614-1.487-0.569-4.19 1.624-2.647 5.447 0.015 0.027 0.066 0.14 0.076 0.168zM19.413 10.97c-0.646-1.45-1.833-2.489-3.213-2.984-0.139-0.050-0.281-0.073-0.423-0.073-0.717 0-1.407 0.595-1.472 1.338-0.109 1.239 0.137 2.501 0.68 3.718 0.535 1.199 1.294 2.213 2.27 2.957 0.254 0.194 0.565 0.285 0.875 0.285 0.559 0 1.117-0.296 1.339-0.826 0.571-1.362 0.597-2.953-0.056-4.415zM16.172 17.339c-1.195-0.912-2.142-2.139-2.815-3.646-0.682-1.529-0.961-3.075-0.827-4.596 0.037-0.423 0.161-0.831 0.36-1.204-0.035 0.009-0.111 0.027-0.114 0.028-0.628 0.157-1.237 0.429-1.778 0.784-0.784 0.514-1.475 1.277-1.772 2.177-0.080 0.243-0.141 0.51-0.161 0.765-0.095 1.218 0.103 2.476 0.636 3.67 0.516 1.155 1.285 2.118 2.213 2.853 0.566 0.447 1.586 0.73 2.42 0.73 0.783 0 1.556-0.233 2.25-0.585 0.217-0.11 0.695-0.408 0.726-0.429-0.415-0.106-0.804-0.292-1.138-0.547z"></path>
</svg>
