<!-- Generated by IcoMoon.io -->
<svg version="1.1" xmlns="http://www.w3.org/2000/svg" width="20" height="20" viewBox="0 0 20 20">
<title>untag</title>
<path d="M1 14.742l4.945-0.709-0.706 4.967 5.962-5.985-4.069-4.429-6.132 6.156zM18.664 5.521c0.391-0.393 0.5-0.945 0-1.419l-2.826-2.839c-0.279-0.308-1.021-0.392-1.412 0l-3.766 3.78 4.068 4.429 3.936-3.951zM18.706 15.293l-14.001-14c-0.391-0.391-1.023-0.391-1.414 0s-0.391 1.023 0 1.414l14.001 14c0.196 0.196 0.452 0.293 0.707 0.293s0.512-0.098 0.707-0.293c0.391-0.39 0.391-1.023 0-1.414z"></path>
</svg>
