<!-- Generated by IcoMoon.io -->
<svg version="1.1" xmlns="http://www.w3.org/2000/svg" width="20" height="20" viewBox="0 0 20 20">
<title>vine-with-circle</title>
<path d="M10 0.4c-5.302 0-9.6 4.298-9.6 9.6s4.298 9.6 9.6 9.6 9.6-4.298 9.6-9.6-4.298-9.6-9.6-9.6zM11.908 6.851c-0.37 0-0.632 0.352-0.632 1.028 0 1.378 0.875 2.171 2.011 2.171 0.201 0 0.427-0.024 0.658-0.077v1.072c-0.378 0.086-0.758 0.121-1.074 0.123-0.755 1.591-2.113 2.951-2.565 3.208-0.29 0.163-0.561 0.172-0.878-0.018-0.559-0.333-2.668-2.065-3.373-7.508h1.53c0.387 3.268 1.325 4.941 2.363 6.196 0.571-0.571 1.121-1.332 1.552-2.193-1.025-0.522-1.648-1.663-1.648-2.992 0-1.345 0.775-2.362 2.102-2.362 1.287 0 1.991 0.802 1.991 2.181 0 0.514-0.109 1.098-0.314 1.548-0.957 0.188-1.305-0.423-1.305-0.423 0.070-0.236 0.168-0.635 0.168-0.998 0.001-0.64-0.234-0.956-0.586-0.956z"></path>
</svg>
