<!-- Generated by IcoMoon.io -->
<svg version="1.1" xmlns="http://www.w3.org/2000/svg" width="20" height="20" viewBox="0 0 20 20">
<title>vk-alternitive</title>
<path d="M19 17v-14c0-1.1-0.903-2-2.005-2h-13.99c-1.15 0-2.005 0.853-2.005 2v14c0 1.148 0.855 2 2.005 2h13.99c1.102 0 2.005-0.899 2.005-2zM15.184 11.607c0 0 1.132 1.117 1.411 1.635 0.008 0.011 0.011 0.021 0.014 0.025 0.113 0.19 0.142 0.34 0.085 0.45-0.094 0.183-0.414 0.275-0.523 0.283 0 0-1.943 0-1.999 0-0.14 0-0.43-0.036-0.782-0.279-0.27-0.188-0.537-0.499-0.797-0.802-0.388-0.45-0.724-0.84-1.062-0.84-0.043 0-0.086 0.007-0.126 0.021-0.257 0.082-0.583 0.447-0.583 1.422 0 0.305-0.24 0.479-0.41 0.479 0 0-0.872 0-0.916 0-0.312 0-1.937-0.109-3.376-1.628-1.766-1.86-3.352-5.591-3.366-5.624-0.1-0.241 0.107-0.372 0.332-0.372h2.020c0.271 0 0.358 0.164 0.42 0.311 0.070 0.167 0.334 0.841 0.766 1.599 0.703 1.233 1.136 1.735 1.481 1.735 0.064 0 0.126-0.017 0.184-0.049 0.451-0.249 0.367-1.857 0.347-2.189 0-0.063-0.001-0.719-0.231-1.034-0.166-0.228-0.447-0.315-0.617-0.348 0.045-0.065 0.142-0.166 0.266-0.226 0.309-0.154 0.866-0.176 1.42-0.176h0.308c0.601 0.008 0.757 0.047 0.974 0.102 0.439 0.105 0.448 0.39 0.409 1.36-0.011 0.276-0.023 0.589-0.023 0.956 0 0.079-0.003 0.166-0.003 0.256-0.014 0.496-0.030 1.057 0.32 1.287 0.046 0.028 0.097 0.044 0.151 0.044 0.122 0 0.487 0 1.476-1.697 0.435-0.749 0.77-1.633 0.793-1.699 0.020-0.036 0.079-0.142 0.148-0.183 0.056-0.033 0.128-0.039 0.166-0.039h2.375c0.26 0 0.436 0.039 0.469 0.138 0.057 0.159-0.011 0.644-1.096 2.11-0.184 0.243-0.343 0.455-0.483 0.64-0.984 1.288-0.984 1.354 0.058 2.332z"></path>
</svg>
