<!-- Generated by IcoMoon.io -->
<svg version="1.1" xmlns="http://www.w3.org/2000/svg" width="20" height="20" viewBox="0 0 20 20">
<title>xing-with-circle</title>
<path d="M10 0.4c-5.302 0-9.6 4.298-9.6 9.6s4.298 9.6 9.6 9.6 9.6-4.298 9.6-9.6-4.298-9.6-9.6-9.6zM8.063 11.5c0 0-0.086 0.172-0.153 0.309-0.071 0.138-0.236 0.191-0.347 0.191h-1.414c-0.25 0-0.239-0.191-0.178-0.316 0.063-0.125 0.092-0.184 0.092-0.184l1.125-2.25-0.625-1.25c0 0-0.029-0.060-0.092-0.185-0.061-0.125-0.072-0.315 0.178-0.315h1.414c0.111 0 0.276 0.053 0.347 0.19 0.067 0.138 0.153 0.31 0.153 0.31l0.625 1.25-1.125 2.25zM14.030 5.815c-0.063 0.125-0.092 0.185-0.092 0.185l-2.5 5 1.5 3c0 0 0.029 0.059 0.092 0.184s0.072 0.316-0.178 0.316h-1.414c-0.112 0-0.275-0.053-0.345-0.191s-0.155-0.309-0.155-0.309l-1.5-3 2.5-5c0 0 0.086-0.172 0.155-0.31s0.232-0.19 0.345-0.19h1.414c0.25 0 0.239 0.19 0.178 0.315z"></path>
</svg>
